<svg width="36" height="36" viewBox="0 0 36 36" fill="none" xmlns="http://www.w3.org/2000/svg">
<rect width="36" height="36" rx="18" fill="#F0F5FB"/>
<g clip-path="url(#clip0_18_97)">
<path d="M9 10.485C9 10.3299 9.06184 10.1811 9.17192 10.0714C9.28199 9.96166 9.43129 9.90002 9.58696 9.90002H11.3478C11.4788 9.90006 11.6059 9.94372 11.7091 10.0241C11.8122 10.1044 11.8855 10.2168 11.9172 10.3435L12.3926 12.24H26.0217C26.1109 12.24 26.1989 12.2603 26.279 12.2993C26.3591 12.3383 26.4293 12.3949 26.4842 12.4649C26.539 12.535 26.5772 12.6165 26.5957 12.7035C26.6142 12.7904 26.6127 12.8804 26.5911 12.9666L24.8302 19.9866C24.7985 20.1132 24.7253 20.2256 24.6221 20.306C24.519 20.3863 24.3918 20.43 24.2609 20.43H13.6957C13.5647 20.43 13.4376 20.3863 13.3344 20.306C13.2312 20.2256 13.158 20.1132 13.1263 19.9866L10.89 11.07H9.58696C9.43129 11.07 9.28199 11.0084 9.17192 10.8987C9.06184 10.789 9 10.6402 9 10.485ZM12.6861 13.41L14.1535 19.26H23.803L25.2704 13.41H12.6861ZM14.8696 22.77C14.5582 22.77 14.2596 22.8933 14.0395 23.1127C13.8193 23.3321 13.6957 23.6297 13.6957 23.94C13.6957 24.2503 13.8193 24.5479 14.0395 24.7673C14.2596 24.9868 14.5582 25.11 14.8696 25.11C15.1809 25.11 15.4795 24.9868 15.6996 24.7673C15.9198 24.5479 16.0435 24.2503 16.0435 23.94C16.0435 23.6297 15.9198 23.3321 15.6996 23.1127C15.4795 22.8933 15.1809 22.77 14.8696 22.77ZM12.5217 23.94C12.5217 23.3194 12.7691 22.7242 13.2094 22.2854C13.6497 21.8466 14.2469 21.6 14.8696 21.6C15.4922 21.6 16.0894 21.8466 16.5297 22.2854C16.97 22.7242 17.2174 23.3194 17.2174 23.94C17.2174 24.5606 16.97 25.1558 16.5297 25.5947C16.0894 26.0335 15.4922 26.28 14.8696 26.28C14.2469 26.28 13.6497 26.0335 13.2094 25.5947C12.7691 25.1558 12.5217 24.5606 12.5217 23.94ZM23.087 22.77C22.7756 22.77 22.477 22.8933 22.2569 23.1127C22.0367 23.3321 21.913 23.6297 21.913 23.94C21.913 24.2503 22.0367 24.5479 22.2569 24.7673C22.477 24.9868 22.7756 25.11 23.087 25.11C23.3983 25.11 23.6969 24.9868 23.917 24.7673C24.1372 24.5479 24.2609 24.2503 24.2609 23.94C24.2609 23.6297 24.1372 23.3321 23.917 23.1127C23.6969 22.8933 23.3983 22.77 23.087 22.77ZM20.7391 23.94C20.7391 23.3194 20.9865 22.7242 21.4268 22.2854C21.8671 21.8466 22.4643 21.6 23.087 21.6C23.7096 21.6 24.3068 21.8466 24.7471 22.2854C25.1874 22.7242 25.4348 23.3194 25.4348 23.94C25.4348 24.5606 25.1874 25.1558 24.7471 25.5947C24.3068 26.0335 23.7096 26.28 23.087 26.28C22.4643 26.28 21.8671 26.0335 21.4268 25.5947C20.9865 25.1558 20.7391 24.5606 20.7391 23.94Z" fill="white"/>
<path d="M9 10.485C9 10.3299 9.06184 10.1811 9.17192 10.0714C9.28199 9.96166 9.43129 9.90002 9.58696 9.90002H11.3478C11.4788 9.90006 11.6059 9.94372 11.7091 10.0241C11.8122 10.1044 11.8855 10.2168 11.9172 10.3435L12.3926 12.24H26.0217C26.1109 12.24 26.1989 12.2603 26.279 12.2993C26.3591 12.3383 26.4293 12.3949 26.4842 12.4649C26.539 12.535 26.5772 12.6165 26.5957 12.7035C26.6142 12.7904 26.6127 12.8804 26.5911 12.9666L24.8302 19.9866C24.7985 20.1132 24.7253 20.2256 24.6221 20.306C24.519 20.3863 24.3918 20.43 24.2609 20.43H13.6957C13.5647 20.43 13.4376 20.3863 13.3344 20.306C13.2312 20.2256 13.158 20.1132 13.1263 19.9866L10.89 11.07H9.58696C9.43129 11.07 9.28199 11.0084 9.17192 10.8987C9.06184 10.789 9 10.6402 9 10.485ZM12.6861 13.41L14.1535 19.26H23.803L25.2704 13.41H12.6861ZM14.8696 22.77C14.5582 22.77 14.2596 22.8933 14.0395 23.1127C13.8193 23.3321 13.6957 23.6297 13.6957 23.94C13.6957 24.2503 13.8193 24.5479 14.0395 24.7673C14.2596 24.9868 14.5582 25.11 14.8696 25.11C15.1809 25.11 15.4795 24.9868 15.6996 24.7673C15.9198 24.5479 16.0435 24.2503 16.0435 23.94C16.0435 23.6297 15.9198 23.3321 15.6996 23.1127C15.4795 22.8933 15.1809 22.77 14.8696 22.77ZM12.5217 23.94C12.5217 23.3194 12.7691 22.7242 13.2094 22.2854C13.6497 21.8466 14.2469 21.6 14.8696 21.6C15.4922 21.6 16.0894 21.8466 16.5297 22.2854C16.97 22.7242 17.2174 23.3194 17.2174 23.94C17.2174 24.5606 16.97 25.1558 16.5297 25.5947C16.0894 26.0335 15.4922 26.28 14.8696 26.28C14.2469 26.28 13.6497 26.0335 13.2094 25.5947C12.7691 25.1558 12.5217 24.5606 12.5217 23.94ZM23.087 22.77C22.7756 22.77 22.477 22.8933 22.2569 23.1127C22.0367 23.3321 21.913 23.6297 21.913 23.94C21.913 24.2503 22.0367 24.5479 22.2569 24.7673C22.477 24.9868 22.7756 25.11 23.087 25.11C23.3983 25.11 23.6969 24.9868 23.917 24.7673C24.1372 24.5479 24.2609 24.2503 24.2609 23.94C24.2609 23.6297 24.1372 23.3321 23.917 23.1127C23.6969 22.8933 23.3983 22.77 23.087 22.77ZM20.7391 23.94C20.7391 23.3194 20.9865 22.7242 21.4268 22.2854C21.8671 21.8466 22.4643 21.6 23.087 21.6C23.7096 21.6 24.3068 21.8466 24.7471 22.2854C25.1874 22.7242 25.4348 23.3194 25.4348 23.94C25.4348 24.5606 25.1874 25.1558 24.7471 25.5947C24.3068 26.0335 23.7096 26.28 23.087 26.28C22.4643 26.28 21.8671 26.0335 21.4268 25.5947C20.9865 25.1558 20.7391 24.5606 20.7391 23.94Z" fill="url(#paint0_linear_18_97)"/>
</g>
<defs>
<linearGradient id="paint0_linear_18_97" x1="8.53721" y1="32.1061" x2="26.2786" y2="26.4794" gradientUnits="userSpaceOnUse">
<stop stop-color="#0D748B"/>
<stop offset="1" stop-color="#1A0B73"/>
</linearGradient>
<clipPath id="clip0_18_97">
<rect width="18" height="18" fill="white" transform="translate(9 9)"/>
</clipPath>
</defs>
</svg>
