<svg width="30" height="30" viewBox="0 0 30 30" fill="none" xmlns="http://www.w3.org/2000/svg">
<path fill-rule="evenodd" clip-rule="evenodd" d="M15 0C23.2847 0 30 6.71582 30 15C30 23.2847 23.2842 30 15 30C6.71526 30 0 23.2842 0 15C0 6.71526 6.71582 0 15 0V0ZM7.57419 15.196C7.02017 14.5835 7.06806 13.6382 7.67961 13.0851C8.29207 12.5311 9.23734 12.579 9.7905 13.1905L13.5269 17.3191L21.6011 8.97893C22.1777 8.38619 23.125 8.37309 23.7177 8.94984C24.3105 9.5264 24.3236 10.4737 23.7468 11.0664L14.5645 20.5511L14.5625 20.5491C14.5409 20.5717 14.5175 20.5942 14.4939 20.615C13.8823 21.169 12.937 21.122 12.383 20.5096L7.57327 15.1957L7.57419 15.196Z" fill="url(#paint0_linear_38_925)"/>
<defs>
<linearGradient id="paint0_linear_38_925" x1="25.5" y1="9.62615e-07" x2="3" y2="23.5" gradientUnits="userSpaceOnUse">
<stop stop-color="#F6F8FB"/>
<stop offset="1" stop-color="#B9C6D5"/>
</linearGradient>
</defs>
</svg>
