<svg width="500" height="290" viewBox="0 0 500 290" fill="none" xmlns="http://www.w3.org/2000/svg">
<g filter="url(#filter0_d_38_1003)">
<g clip-path="url(#clip0_38_1003)">
<rect x="20" y="16" width="460" height="250" rx="10" fill="url(#paint0_radial_38_1003)"/>
<path opacity="0.8" d="M466.364 -18.5694C465.384 -19.1435 463.669 -19.1435 462.69 -18.5694C461.955 -18.1594 461.71 -17.5033 462.118 -16.9292L405.369 15.9574V57.5372L391.57 65.5744V110.763L344.211 138.237L336.862 133.972L373.361 112.813V88.0455L373.198 87.9635L331.636 63.8521V55.4869L355.152 41.873C356.132 42.2831 357.602 42.2831 358.5 41.709C359.48 41.1349 359.48 40.1508 358.5 39.5767C357.52 39.0026 355.806 39.0026 354.826 39.5767C353.928 40.0688 353.846 40.8889 354.581 41.545L331.065 55.1589V64.2622L331.228 64.3442L372.79 88.4556V112.567L345.109 128.477V118.144L357.765 110.845C358.745 111.255 360.215 111.255 361.113 110.681C362.093 110.107 362.093 109.122 361.113 108.548C360.133 107.974 358.419 107.974 357.439 108.548C356.541 109.04 356.459 109.861 357.194 110.517L344.538 117.816V128.805L336.209 133.644L326.329 127.903V109.943L344.946 99.1171V86.6513L344.783 86.5693L305.589 63.8521C306.324 63.278 306.242 62.4579 305.344 61.8838C304.364 61.3098 302.65 61.3098 301.67 61.8838C300.69 62.4579 300.69 63.442 301.67 64.0161C302.568 64.5082 304.038 64.5902 305.017 64.1802L344.374 86.9793V98.707L326.329 109.204V96.8207L326.166 96.7387L302.16 82.7968C302.895 82.2227 302.813 81.4026 301.915 80.8285C300.935 80.2544 299.22 80.2544 298.24 80.8285C297.26 81.4026 297.26 82.3867 298.24 82.9608C299.138 83.4529 300.608 83.5349 301.588 83.1248L325.676 97.1488V127.493L318.735 123.474L307.304 130.117L296.934 124.131V109.533L296.771 109.451L269.417 93.6223V79.8444C269.988 79.8444 270.56 79.6803 270.968 79.4343C271.948 78.8602 271.948 77.8761 270.968 77.302C269.988 76.7279 268.274 76.7279 267.294 77.302C266.314 77.8761 266.314 78.8602 267.294 79.4343C267.702 79.6803 268.274 79.8444 268.845 79.8444V93.9503L269.009 94.0323L296.362 109.861V123.803L251.861 97.9689V70.577L276.031 56.5531H298.159H298.24L336.291 34.492C337.27 34.9021 338.74 34.9021 339.638 34.328C340.618 33.7539 340.618 32.7698 339.638 32.1957C338.659 31.6216 336.944 31.6216 335.964 32.1957C335.066 32.6877 334.984 33.5899 335.719 34.164L298.077 55.979H277.092L346.906 15.4653C347.885 15.8754 349.355 15.8754 350.253 15.3013C351.233 14.7272 351.233 13.7431 350.253 13.169C349.273 12.5949 347.559 12.5949 346.579 13.169C345.681 13.6611 345.599 14.5632 346.334 15.1373L251.29 70.331V98.379L251.453 98.461L306.732 130.527L295.627 137.006L201.236 82.2227V49.5821L201.073 49.5001L168.984 30.8835C169.718 30.3094 169.637 29.4893 168.739 28.9152C167.759 28.3411 166.044 28.3411 165.064 28.9152C164.084 29.4893 164.084 30.4734 165.064 31.0475C165.962 31.5396 167.432 31.6216 168.412 31.2115L200.665 49.9102V82.5507L200.828 82.6328L295.137 137.334L284.523 143.485L191.111 89.3577H135.424L100.64 69.1829V38.1825C100.967 38.1005 101.375 38.0185 101.62 37.8545C102.6 37.2804 102.6 36.2962 101.62 35.7222C100.64 35.1481 98.9252 35.1481 97.9453 35.7222C96.9655 36.2962 96.9655 37.2804 97.9453 37.8545C98.5169 38.1825 99.2518 38.3465 99.9867 38.2645V69.5109L100.15 69.5929L135.261 89.9318H190.948L269.743 135.612H253.903L227.039 120.03H206.299H206.217L177.475 136.678C176.496 136.268 175.026 136.268 174.128 136.842C173.148 137.416 173.148 138.401 174.128 138.975C175.107 139.549 176.822 139.549 177.802 138.975C178.7 138.483 178.782 137.58 178.047 137.006L206.462 120.522H226.876L253.739 136.104H270.723L283.869 143.731L255.617 160.134L247.534 155.459V143.239L227.12 131.43C227.855 130.856 227.774 130.035 226.876 129.461C225.896 128.887 224.181 128.887 223.201 129.461C222.221 130.035 222.221 131.02 223.201 131.594C224.099 132.086 225.569 132.168 226.549 131.758L246.962 143.567V155.131L225.161 142.583H214.873H214.791L202.461 149.718C201.481 149.308 200.012 149.308 199.113 149.882C198.134 150.456 198.134 151.44 199.113 152.014C200.093 152.589 201.808 152.589 202.788 152.014C203.686 151.522 203.768 150.62 203.033 150.046L214.954 143.157H224.997L254.964 160.544L249.493 163.742L266.886 173.83L258.72 178.586H246.391L237.572 173.501C238.307 172.927 238.144 172.107 237.245 171.615C236.266 171.041 234.551 171.041 233.571 171.615C232.591 172.189 232.591 173.173 233.571 173.748C234.469 174.322 235.939 174.322 236.919 173.912L246.146 179.242H257.577L236.837 191.298L188.009 163.004H152.898H152.816L133.056 174.486C132.076 174.076 130.607 174.076 129.708 174.65C128.729 175.224 128.729 176.208 129.708 176.782C130.688 177.356 132.403 177.356 133.383 176.782C134.281 176.29 134.363 175.388 133.628 174.814L153.061 163.578H187.927L225.569 185.393H209.483L193.806 176.044C194.541 175.47 194.459 174.65 193.561 174.076C192.581 173.501 190.867 173.501 189.887 174.076C188.907 174.65 188.907 175.634 189.887 176.208C190.785 176.7 192.255 176.782 193.234 176.372L209.402 185.721H226.712L236.429 191.38L211.606 205.732H132.321L70.8365 170.139C71.5714 169.565 71.4898 168.745 70.5916 168.171C69.6117 167.597 67.897 167.597 66.9172 168.171C65.9373 168.745 65.9373 169.729 66.9172 170.303C67.8154 170.795 69.2851 170.877 70.265 170.467L132.24 206.388H210.627L200.828 212.129H142.12H142.038L113.133 228.941C112.153 228.531 110.683 228.531 109.785 229.105C108.805 229.679 108.805 230.663 109.785 231.238C110.765 231.812 112.48 231.812 113.459 231.238C114.358 230.746 114.439 229.843 113.704 229.269L142.283 212.703H200.992H201.073L267.539 174.158L274.888 178.422L204.992 218.936H153.878H153.796L92.0663 254.775H6.49392L-10 245.18V245.836L6.41227 255.349H92.2296H92.3113L131.096 232.878V246.164L105.539 261.008C104.559 260.598 103.089 260.598 102.191 261.172C101.211 261.746 101.211 262.73 102.191 263.304C103.171 263.878 104.886 263.878 105.866 263.304C106.764 262.812 106.846 261.91 106.111 261.336L131.668 246.492V232.632H131.505L154.041 219.592H205.156H205.237L275.459 178.832L283.869 183.671L147.509 262.73V277H148.08V263.058L284.441 183.999L294.811 189.986L224.508 230.746V238.045L212.015 245.262V261.992L187.845 276.016C186.866 275.606 185.396 275.606 184.498 276.18C184.089 276.426 183.926 276.672 183.763 276.918H188.825C188.744 276.754 188.58 276.508 188.417 276.344L212.586 262.32V245.59L224.508 238.701V265.518L231.53 269.619L218.874 276.918H220.017L232.101 269.947L244.186 276.918H245.329L225.079 265.19V231.074L295.382 190.314L304.854 195.809L255.128 224.677C254.148 224.267 252.678 224.267 251.78 224.841C250.8 225.415 250.8 226.399 251.78 226.973C252.76 227.547 254.474 227.547 255.454 226.973C256.352 226.481 256.434 225.661 255.699 225.005L305.426 196.137L314.571 201.385L255.046 235.912H238.879C238.797 235.666 238.552 235.338 238.144 235.174C237.164 234.6 235.449 234.6 234.469 235.174C233.489 235.748 233.489 236.732 234.469 237.306C235.449 237.881 237.164 237.881 238.144 237.306C238.552 237.06 238.797 236.814 238.879 236.568H255.209H255.291L315.142 201.877L318.817 204.01L321.675 202.37L335.964 210.653V222.134L324.206 228.941H305.752H305.671L285.421 240.669C284.441 240.259 282.971 240.259 282.073 240.833C281.093 241.407 281.093 242.391 282.073 242.965C283.053 243.539 284.768 243.539 285.747 242.965C286.646 242.473 286.727 241.571 285.992 240.997L305.916 229.433H323.144L288.524 249.526C287.544 249.034 286.074 249.116 285.094 249.608C284.114 250.182 284.114 251.166 285.094 251.74C286.074 252.315 287.789 252.315 288.769 251.74C289.667 251.248 289.748 250.428 289.095 249.854L332.29 224.759V230.335L306.569 245.262V255.759L285.666 267.897C284.686 267.487 283.216 267.487 282.318 268.061C281.338 268.635 281.338 269.619 282.318 270.193C283.298 270.767 285.013 270.767 285.992 270.193C286.891 269.701 286.972 268.799 286.237 268.225L307.14 256.087V245.59L332.861 230.664V224.431L336.454 222.38V210.161L322.165 201.877L331.555 196.465L360.868 213.523V232.878L340.945 244.441C339.965 243.949 338.495 244.031 337.515 244.523C336.536 245.098 336.536 246.082 337.515 246.656C338.495 247.23 340.21 247.23 341.19 246.656C342.088 246.164 342.17 245.344 341.516 244.769L360.868 233.534V249.198L345.599 258.055V277H346.171V258.383L360.868 249.854V277H361.44V213.195L332.126 196.055L342.66 189.986L381.036 212.211V265.19L399.49 275.852V276.918H400.062V275.524L381.608 264.862V211.883L343.231 189.658L351.07 185.147L402.838 215.163V260.352L431.498 276.918H432.641L403.409 260.024V214.835L351.641 184.819L364.298 177.52L450.442 227.465V249.936L480 267.077V266.421L451.095 249.608V227.137L402.675 199.007H440.97L480 221.642V220.986L441.052 198.433H401.531L364.869 177.192L379.567 168.663L411.085 186.951H461.71L479.918 197.531V196.875L475.917 194.578H479.918V194.004H474.938L461.873 186.459H411.248L402.43 181.375H423.986H424.068L434.846 175.142H479.837L480 175.224V174.568H435.907L448.074 167.515C449.053 167.925 450.523 167.925 451.421 167.351C452.401 166.777 452.401 165.792 451.421 165.218C450.442 164.644 448.727 164.644 447.747 165.218C446.849 165.71 446.767 166.613 447.502 167.187L423.904 180.883H401.531L380.22 168.581L388.059 163.988L382.996 161.036H397.694L416.882 172.189C416.147 172.763 416.229 173.584 417.127 174.158C418.107 174.732 419.822 174.732 420.802 174.158C421.781 173.584 421.781 172.599 420.802 172.025C419.903 171.533 418.434 171.451 417.454 171.861L397.775 160.462H381.935L371.156 154.229L377.77 150.374H389.528L399.817 144.387H407.492L424.884 154.475C424.068 155.049 424.149 155.869 425.129 156.443C426.109 157.017 427.824 157.017 428.804 156.443C429.783 155.869 429.783 154.885 428.804 154.311C427.905 153.819 426.517 153.737 425.537 154.147L407.737 143.813H399.735L389.447 149.8H378.832L399.98 137.498H411.411L435.254 151.276H480V150.702H435.417L411.493 136.678H399.735H399.653L370.503 153.573L362.828 149.144L395.734 130.035H418.923L438.112 141.107H479.837V140.533H438.275L420.148 130.035H479.837V129.461H395.652H395.571L362.338 148.816L353.683 143.813L399.572 117.16H479.918V116.586H421.373L479.918 82.6328V81.9767L420.23 116.586H399.98L443.501 91.326V85.7492L464.323 73.6935C465.302 74.1035 466.772 74.1035 467.67 73.5295C468.65 72.9554 468.65 71.9712 467.67 71.3972C466.691 70.8231 464.976 70.8231 463.996 71.3972C463.098 71.8892 463.016 72.7094 463.751 73.3654L452.401 79.9264V64.6722L479.918 48.762V48.1059L451.83 64.3442V80.2544L442.93 85.4211V90.9979L399.082 116.421L399.245 116.668L353.111 143.403L344.701 138.565L392.06 111.091V65.9024L479.918 14.9733V14.3172L405.941 57.2092V16.3675L462.608 -16.4371L462.69 -16.3551C463.669 -15.781 465.384 -15.781 466.364 -16.3551C467.344 -17.0112 467.344 -17.9954 466.364 -18.5694ZM386.834 163.66L318.817 203.108L250.8 163.66L318.817 124.213L386.834 163.66Z" fill="url(#paint1_radial_38_1003)"/>
<path opacity="0.1" d="M479.918 52.4783L467.849 59.5227V82.1305L360.531 144.384L352.376 139.633L407.748 107.523V101.789L417.534 96.1375V82.9496L436.535 71.8915C437.35 72.2191 438.41 72.2191 439.144 71.8096C439.96 71.3181 439.96 70.5809 439.144 70.1713C438.329 69.6798 437.024 69.6798 436.29 70.1713C435.556 70.5809 435.474 71.2362 436.045 71.7276L417.044 82.7858V95.9737L407.666 101.38V80.2465L407.585 80.1646L402.203 77.0519L434.659 58.2121V37.0787L457.737 23.727C458.553 24.0547 459.613 24.0547 460.347 23.6451C461.162 23.1536 461.162 22.4164 460.347 22.0069C459.531 21.5154 458.227 21.5154 457.493 22.0069C456.759 22.4164 456.677 23.0717 457.248 23.5632L434.17 36.9149V58.0483L401.713 76.8881L348.951 46.0072V22.3345C349.359 22.3345 349.848 22.1707 350.175 22.0069C350.99 21.5154 350.99 20.7782 350.175 20.3686C349.359 19.8771 348.054 19.8771 347.32 20.3686C346.505 20.8601 346.505 21.5973 347.32 22.0069C347.647 22.1707 348.054 22.3345 348.544 22.3345V46.2529L348.625 46.3348L380.348 64.7651H357.188L338.513 53.9527C339.084 53.4612 339.002 52.8059 338.268 52.3963C337.453 51.9049 336.148 51.9049 335.414 52.3963C334.599 52.8878 334.599 53.625 335.414 54.0346C336.148 54.4441 337.29 54.5261 338.024 54.1165L357.025 65.1747H381.081L407.177 80.3284V107.196L351.887 139.305L344.466 134.964L383.609 112.274C384.425 112.602 385.485 112.602 386.219 112.192C387.035 111.701 387.035 110.964 386.219 110.554C385.404 110.063 384.099 110.063 383.365 110.554C382.631 110.964 382.549 111.619 383.12 112.11L343.977 134.8L336.801 130.623L383.691 103.428H396.413C396.494 103.673 396.657 103.837 396.983 104.001C397.799 104.493 399.104 104.493 399.838 104.001C400.653 103.51 400.653 102.772 399.838 102.363C399.022 101.871 397.717 101.871 396.983 102.363C396.657 102.527 396.494 102.772 396.413 102.936H383.528H383.446L336.393 130.377L333.539 128.739L333.457 128.821L331.337 130.049L320.083 123.578V114.486L329.38 109.08H343.895L359.96 99.8236C360.776 100.151 361.836 100.151 362.57 99.7417C363.385 99.2502 363.385 98.513 362.57 98.1034C361.754 97.612 360.45 97.612 359.716 98.1034C358.982 98.513 358.9 99.1683 359.471 99.6598L343.732 108.588H330.032L357.269 92.7791C358.085 93.1068 359.226 93.1068 359.96 92.6972C360.776 92.2057 360.776 91.4685 359.96 91.059C359.145 90.5675 357.84 90.5675 357.106 91.059C356.372 91.4685 356.291 92.1238 356.862 92.5334L322.856 112.274V107.933L343.08 96.2194V87.9463L359.553 78.3625C360.368 78.6902 361.428 78.6902 362.162 78.2806C362.978 77.7892 362.978 77.0519 362.162 76.6424C361.347 76.1509 360.042 76.1509 359.308 76.6424C358.574 77.0519 358.492 77.7073 359.063 78.1987L342.591 87.7825V96.0556L322.366 107.769V112.684L319.512 114.322V123.906L330.766 130.377L323.427 134.636L300.348 121.203V105.967L316.006 96.7928C316.821 97.1205 317.963 97.1205 318.697 96.7109C319.512 96.2194 319.512 95.4822 318.697 95.0727C317.881 94.5812 316.576 94.5812 315.843 95.0727C315.109 95.4822 315.027 96.1375 315.598 96.5471L300.348 105.394V93.1068L312.418 86.1442V62.963C312.825 62.963 313.315 62.7992 313.641 62.6354C314.456 62.1439 314.456 61.4067 313.641 60.9971C312.825 60.5057 311.52 60.5057 310.787 60.9971C309.971 61.4886 309.971 62.2258 310.787 62.6354C311.113 62.7992 311.52 62.963 312.01 62.963V85.8166L300.43 92.5334V51.741H299.941V121.448L323.019 134.882L314.701 139.715L284.528 122.186V80.4923L270.012 72.0553V56.3281L257.209 48.8741C257.78 48.3826 257.698 47.7273 256.964 47.3178C256.149 46.8263 254.844 46.8263 254.11 47.3178C253.295 47.8092 253.295 48.5465 254.11 48.956C254.844 49.3656 255.986 49.4475 256.72 49.0379L269.523 56.492V72.2191L284.039 80.6561V122.349L314.212 139.879L308.095 143.401L267.321 119.728V84.1783L267.24 84.0964L231.195 63.2088C231.766 62.7173 231.684 62.062 230.95 61.6524C230.135 61.161 228.83 61.161 228.096 61.6524C227.281 62.1439 227.281 62.8811 228.096 63.2907C228.83 63.7002 229.972 63.7822 230.706 63.3726L266.913 84.3422V119.892L266.995 119.974L307.606 143.565L297.657 149.299L229.89 109.981V92.2877L229.809 92.2057L173.051 59.277C173.622 58.7855 173.54 58.1302 172.806 57.7206C171.991 57.2292 170.686 57.2292 169.952 57.7206C169.136 58.2121 169.136 58.9493 169.952 59.3589C170.686 59.7685 171.828 59.8504 172.562 59.4408L229.401 92.4515V110.145L229.482 110.226L267.484 132.261H237.311L202.408 112.029C202.979 111.537 202.898 110.882 202.164 110.472C201.348 109.981 200.043 109.981 199.309 110.472C198.494 110.964 198.494 111.701 199.309 112.11C200.043 112.52 201.185 112.602 201.919 112.192L237.148 132.67H268.218L297.086 149.381L285.506 156.097L260.716 141.681H220.838L175.497 115.387H150.38L140.105 109.407C140.676 108.916 140.594 108.261 139.86 107.851C139.045 107.36 137.74 107.36 137.006 107.851C136.191 108.342 136.191 109.08 137.006 109.489C137.74 109.899 138.882 109.981 139.616 109.571L150.217 115.715H175.334L209.585 135.537H179.982L165.956 127.756C166.527 127.264 166.445 126.609 165.711 126.199C164.896 125.708 163.591 125.708 162.857 126.199C162.042 126.691 162.042 127.428 162.857 127.838C163.591 128.247 164.733 128.329 165.467 127.92L180.064 136.356H210.563L220.838 142.336H260.716L267.647 146.35H250.767H250.685L242.204 151.265H206.812L196.863 145.449H176.802C176.72 145.203 176.557 145.039 176.231 144.875C175.416 144.384 174.111 144.384 173.377 144.875C172.562 145.367 172.562 146.104 173.377 146.514C174.192 147.005 175.497 147.005 176.231 146.514C176.557 146.35 176.72 146.104 176.802 145.94H196.7L206.649 151.756H241.389L231.847 157.326C231.032 156.998 229.972 156.998 229.238 157.408C228.422 157.899 228.422 158.637 229.238 159.046C230.053 159.538 231.358 159.538 232.092 159.046C232.826 158.637 232.908 157.981 232.337 157.49L250.93 146.677H268.544L285.262 156.425L279.064 160.029L279.39 160.193L283.06 162.323H271.48L256.312 153.558C256.883 153.067 256.801 152.411 256.067 152.002C255.252 151.51 253.947 151.51 253.213 152.002C252.398 152.493 252.398 153.23 253.213 153.64C253.947 154.05 255.089 154.131 255.823 153.722L271.317 162.732H283.794L292.275 167.647L287.056 170.678H277.841H277.759L269.686 175.347H263.651L249.951 167.401C250.604 166.91 250.522 166.254 249.788 165.845C248.973 165.353 247.668 165.353 246.934 165.845C246.118 166.336 246.118 167.074 246.934 167.483C247.668 167.893 248.728 167.975 249.543 167.647L263.57 175.756H269.849H269.931L278.004 171.087H286.322L269.686 180.753H260.716L241.959 169.859H185.446L150.38 149.544C150.951 149.053 150.951 148.398 150.217 147.988C149.402 147.497 148.097 147.497 147.363 147.988C146.547 148.48 146.547 149.217 147.363 149.626C148.097 150.036 149.157 150.118 149.973 149.79L185.365 170.35H241.796L260.553 181.244H269.768H269.849L292.764 167.975L298.799 171.497L272.866 186.487H254.599L239.513 177.722H200.777C200.696 177.476 200.533 177.313 200.207 177.149C199.391 176.657 198.086 176.657 197.352 177.149C196.537 177.64 196.537 178.378 197.352 178.787C198.168 179.279 199.473 179.279 200.207 178.787C200.533 178.623 200.696 178.378 200.777 178.214H239.35L253.621 186.487H199.065H198.983L147.037 216.631C146.221 216.303 145.161 216.303 144.427 216.713C143.612 217.204 143.612 217.941 144.427 218.351C145.243 218.842 146.547 218.842 147.281 218.351C148.015 217.941 148.097 217.286 147.526 216.794L199.228 186.814H272.948H273.029L299.207 171.661L306.057 175.593L269.931 196.562H206.323H206.241L150.543 228.836H85.6306L47.7105 207.293C48.2813 206.801 48.1998 206.146 47.4658 205.736C46.6503 205.245 45.3456 205.245 44.6116 205.736C43.7961 206.228 43.7961 206.965 44.6116 207.374C45.3456 207.784 46.4872 207.866 47.2212 207.456L85.386 229.573H150.543H150.625L206.323 197.299H252.642L184.712 236.781V247.184L157.557 262.911C156.741 262.583 155.681 262.583 154.947 262.993C154.132 263.484 154.132 264.222 154.947 264.631C155.762 265.123 157.067 265.123 157.801 264.631C158.535 264.222 158.617 263.566 158.046 263.075L185.202 247.348V236.945L253.702 197.217H269.604L235.354 217.122V221.463L218.881 231.129C218.066 230.801 217.006 230.801 216.272 231.211C215.456 231.702 215.456 232.44 216.272 232.849C217.087 233.341 218.392 233.341 219.126 232.849C219.86 232.44 219.941 231.784 219.37 231.293L228.259 226.132V238.092L176.72 267.99C175.905 267.662 174.845 267.662 174.111 268.072C173.295 268.563 173.295 269.3 174.111 269.71C174.926 270.201 176.231 270.201 176.965 269.71C177.699 269.3 177.781 268.645 177.21 268.153L228.749 238.255V225.723L235.762 221.627V217.286L270.338 197.217L270.257 197.054L306.546 176.002L313.151 179.852L275.802 201.641V237.191L207.22 277H208.117L264.875 244.071V276.263L263.57 277H264.467L265.282 276.509V243.826L276.128 237.518V201.968L313.396 180.343L319.186 183.702L290.399 200.412V219.907L290.481 219.989L323.182 238.911V245.546L304.67 256.276C303.855 255.949 302.795 255.949 302.061 256.358C301.245 256.85 301.245 257.587 302.061 257.996C302.876 258.488 304.181 258.488 304.915 257.996C305.649 257.587 305.73 256.931 305.16 256.44L323.671 245.709V238.583L323.59 238.501L290.889 219.579V200.576L312.581 187.961V196.071L302.632 201.886C301.816 201.559 300.756 201.559 300.022 201.968C299.207 202.46 299.207 203.197 300.022 203.607C300.838 204.098 302.142 204.098 302.876 203.607C303.61 203.197 303.692 202.542 303.121 202.05L313.07 196.234V187.552L319.675 183.702L327.422 188.207V202.378L312.744 210.897V220.644L312.825 220.726L343.651 238.583C343.08 239.075 343.161 239.73 343.895 240.139C344.711 240.631 346.016 240.631 346.749 240.139C347.565 239.648 347.565 238.911 346.749 238.501C346.016 238.092 344.874 238.01 344.14 238.419L313.151 220.48V211.224L327.341 202.951V212.699L346.342 223.675C345.771 224.167 345.852 224.822 346.586 225.231C347.402 225.723 348.707 225.723 349.441 225.231C350.256 224.74 350.256 224.003 349.441 223.593C348.707 223.184 347.565 223.102 346.831 223.511L327.83 212.535V188.617L333.294 191.811L333.375 191.729L342.264 186.569L350.419 191.32V202.787L372.03 215.32V226.132C371.622 226.132 371.133 226.296 370.806 226.46C369.991 226.952 369.991 227.689 370.806 228.098C371.622 228.59 372.927 228.59 373.661 228.098C374.476 227.607 374.476 226.87 373.661 226.46C373.334 226.296 372.927 226.132 372.437 226.132V215.074L351.072 202.542V191.565L386.138 211.88V233.423L367.137 244.481H349.685H349.604L319.675 261.846C318.86 261.519 317.8 261.519 317.066 261.928C316.25 262.42 316.25 263.157 317.066 263.566C317.881 264.058 319.186 264.058 319.92 263.566C320.654 263.157 320.735 262.502 320.165 262.01L349.848 244.808H366.403L311.439 276.672C310.623 276.345 309.563 276.345 308.829 276.754H312.173L386.708 233.505V211.47L386.627 211.388L343.08 186.159L351.806 181.081L426.096 224.167V249.887L451.458 264.631C450.887 265.123 450.969 265.778 451.703 266.188C452.518 266.679 453.823 266.679 454.557 266.188C455.372 265.696 455.372 264.959 454.557 264.549C453.823 264.14 452.681 264.058 451.947 264.467L426.586 249.723V224.003L426.504 223.921L352.295 180.917L360.613 176.084L434.088 218.678H477.961L480 219.907V219.416L478.043 218.269H434.17L372.111 182.309H384.588L405.791 194.596H422.1H422.182L444.771 181.49C445.587 181.818 446.647 181.818 447.381 181.408C448.196 180.917 448.196 180.18 447.381 179.77C446.565 179.279 445.26 179.279 444.526 179.77C443.792 180.18 443.711 180.835 444.282 181.326L421.937 194.269H405.872L384.67 181.982H371.296L360.939 176.002L383.202 163.06L389.563 166.746V176.412L405.628 185.75C405.057 186.241 405.138 186.896 405.872 187.306C406.688 187.797 407.993 187.797 408.727 187.306C409.542 186.814 409.542 186.077 408.727 185.668C407.993 185.258 406.851 185.176 406.117 185.586L390.052 176.248V167.156L407.177 177.067H415.332H415.413L425.118 171.415C425.933 171.743 426.993 171.743 427.727 171.333C428.543 170.842 428.543 170.104 427.727 169.695C426.912 169.203 425.607 169.203 424.873 169.695C424.139 170.104 424.058 170.76 424.628 171.251L415.25 176.739H407.34L383.691 162.732L388.013 160.275L387.687 160.111L374.313 152.411L380.755 148.725H390.46L397.391 152.739C396.82 153.23 396.902 153.804 397.636 154.213C398.451 154.705 399.756 154.705 400.49 154.213C401.306 153.722 401.306 152.985 400.49 152.575C399.756 152.166 398.614 152.084 397.799 152.493L390.541 148.316H381.489L397.799 138.814L436.29 161.094H463.935H464.016L479.592 152.084C479.674 152.166 479.837 152.166 479.918 152.166V150.036C479.674 150.118 479.511 150.2 479.348 150.282C478.614 150.691 478.532 151.346 479.103 151.838L463.772 160.684H436.371L406.688 143.483H419.409L431.805 150.691C431.234 151.183 431.315 151.838 432.049 152.247C432.865 152.739 434.17 152.739 434.904 152.247C435.719 151.756 435.719 151.019 434.904 150.609C434.17 150.2 433.028 150.118 432.294 150.527L419.572 143.155H405.954L398.288 138.732L417.778 127.428H479.837V126.937H418.512L426.259 122.431H472.416H472.498L479.837 118.172V117.68L472.334 122.022H426.178H426.096L373.742 152.411L367.952 149.053L422.997 117.107H463.201H463.283L479.837 107.523V106.622L463.119 116.37H422.916H422.834L367.544 148.398L360.939 144.548L468.257 82.2943V59.6865L479.918 52.9697V52.4783ZM387.116 160.275L333.539 191.32L279.961 160.275L333.539 129.23L387.116 160.275Z" fill="#42E8E0"/>
<g opacity="0.67">
<path d="M321.025 252.686L166.443 163.445L321.025 74.2031L475.526 163.445L321.025 252.686Z" fill="#0F054C"/>
</g>
<g opacity="0.67">
<path d="M321.025 238.9L190.426 163.445L321.025 88.0706L451.624 163.445L321.025 238.9Z" fill="#0F054C"/>
</g>
<g opacity="0.9">
<path d="M321.025 222.83L218.243 163.445L321.025 104.141L423.727 163.445L321.025 222.83Z" fill="#080344"/>
</g>
<path d="M222.893 157.163C221.751 157.163 220.69 156.837 219.712 156.347L183.493 135.464C182.922 135.138 182.596 134.567 182.596 133.915C182.596 133.262 182.922 132.691 183.493 132.365L248.915 94.5961C248.996 94.5145 249.16 94.5145 249.241 94.5961L249.567 94.7592L288.396 117.192C288.967 117.518 289.294 118.089 289.294 118.742C289.294 119.394 288.967 119.965 288.396 120.292L225.911 156.347C225.095 156.837 224.035 157.163 222.893 157.163ZM249.241 95.2487L183.982 132.936C183.656 133.099 183.411 133.507 183.411 133.915C183.411 134.322 183.656 134.649 183.982 134.893L220.201 155.776C221.914 156.755 224.117 156.755 225.748 155.776L288.233 119.721C288.56 119.558 288.804 119.15 288.804 118.742C288.804 118.334 288.56 118.008 288.233 117.763L249.241 95.2487Z" fill="#42E8E0"/>
<path d="M293.291 106.914L289.457 108.871L251.362 86.8465C250.709 86.4387 249.649 86.5202 248.915 86.9281L183.248 124.86C182.595 124.534 179.74 123.147 179.74 123.147L181.127 126.736C181.209 126.899 181.29 127.062 181.535 127.144L221.669 150.311C222.322 150.719 223.382 150.637 224.116 150.229L291.333 111.4C291.659 111.237 291.822 110.992 291.904 110.829L293.291 106.914Z" fill="url(#paint2_linear_38_1003)"/>
<path d="M292.638 107.566L223.79 147.374C223.056 147.782 221.914 147.864 221.261 147.456L180.148 123.718C179.496 123.31 179.577 122.658 180.311 122.25L249.159 82.4418C249.894 82.0339 251.036 81.9523 251.688 82.3602L292.801 106.098C293.535 106.424 293.454 107.077 292.638 107.566Z" fill="url(#paint3_linear_38_1003)"/>
<path d="M292.638 107.158L223.79 146.966C223.056 147.374 221.914 147.456 221.261 147.048L180.148 123.31C179.903 123.147 179.822 123.065 179.74 122.902C179.659 123.228 179.74 123.555 180.148 123.718L221.261 147.456C221.914 147.864 223.056 147.782 223.79 147.374L292.638 107.566C293.128 107.24 293.372 106.914 293.209 106.506C293.209 106.751 292.964 106.995 292.638 107.158Z" fill="white"/>
<path d="M202.989 138.727V137.993C202.989 137.912 203.07 137.912 203.07 137.912L205.762 139.462C205.844 139.462 205.844 139.543 205.844 139.625V140.359C205.844 140.44 205.762 140.44 205.762 140.44L203.07 138.891C203.07 138.891 202.989 138.809 202.989 138.727Z" fill="#2842A2"/>
<path d="M206.986 141.012V140.277C206.986 140.196 207.068 140.196 207.068 140.196L209.76 141.746C209.841 141.746 209.841 141.827 209.841 141.909V142.643C209.841 142.725 209.76 142.725 209.76 142.725L207.068 141.175C207.068 141.175 206.986 141.093 206.986 141.012Z" fill="#2842A2"/>
<path d="M203.315 129.102L260.58 96.0646C260.988 95.8199 261.396 95.8199 261.803 96.0646L282.197 107.893C282.523 108.056 282.523 108.464 282.197 108.627L224.932 141.664C224.524 141.909 224.116 141.909 223.709 141.664L203.315 129.918C202.989 129.673 202.989 129.265 203.315 129.102Z" fill="#ADB1F2"/>
<path d="M203.315 129.836L203.56 129.918L260.58 96.962C260.988 96.7173 261.396 96.7173 261.804 96.962L281.952 108.627L282.197 108.545C282.523 108.382 282.523 107.974 282.197 107.811L261.804 95.9831C261.396 95.7384 260.988 95.7384 260.58 95.9831L203.315 129.02C202.989 129.265 202.989 129.673 203.315 129.836Z" fill="#9198DB"/>
<path d="M263.353 99.0014L210.575 129.428L207.965 128.45L261.069 97.7778L263.353 99.0014Z" fill="#24126A"/>
<path d="M268.737 102.183L222.077 129.102L219.875 127.797L266.535 100.878L268.737 102.183Z" fill="#24126A"/>
<path d="M272.245 104.222L217.346 135.873L215.143 134.649L270.042 102.917L272.245 104.222Z" fill="#24126A"/>
<path d="M275.834 106.262L220.853 137.912L218.651 136.689L273.55 104.957L275.834 106.262Z" fill="#24126A"/>
<path d="M279.342 108.301L224.443 139.951L222.24 138.728L277.139 106.996L279.342 108.301Z" fill="#24126A"/>
<path d="M210.575 129.428L208.373 130.734L206.17 129.428L208.373 128.205L210.575 129.428Z" fill="#24126A"/>
<path d="M224.769 127.552L213.838 133.833L211.554 132.61L222.648 126.247L224.769 127.552Z" fill="#24126A"/>
<path d="M223.709 114.255L239.126 105.364C239.697 105.038 239.697 104.467 239.126 104.14L228.603 98.0223C228.032 97.696 227.053 97.696 226.401 98.0223L210.983 106.914C210.412 107.24 210.412 107.811 210.983 108.137L221.506 114.255C222.077 114.663 223.056 114.663 223.709 114.255Z" fill="url(#paint4_linear_38_1003)"/>
<path d="M210.983 107.403L226.401 98.5118C226.972 98.1855 227.951 98.1855 228.603 98.5118L239.126 104.63C239.289 104.711 239.452 104.874 239.534 105.038C239.697 104.711 239.534 104.385 239.126 104.14L228.603 98.0223C228.032 97.696 227.053 97.696 226.401 98.0223L210.983 106.914C210.575 107.159 210.412 107.485 210.575 107.811C210.657 107.648 210.738 107.566 210.983 107.403Z" fill="#9198DB"/>
<path d="M293.128 105.935L284.399 54.2173L285.133 53.891L284.073 53.32C283.828 53.1569 283.584 53.1569 283.257 53.4016L213.675 93.6173C213.104 93.9436 212.696 94.7594 212.778 95.412L221.588 147.456C221.669 147.701 221.751 147.945 221.914 147.945L222.974 148.516L223.138 147.537H223.056L292.23 107.566C292.801 107.322 293.209 106.506 293.128 105.935Z" fill="url(#paint5_linear_38_1003)"/>
<path d="M214.083 95.0041L212.941 94.5146C212.778 94.8409 212.778 95.0857 212.778 95.412L221.588 147.456C221.669 147.701 221.751 147.945 221.914 147.945L222.974 148.516L223.137 147.537H223.056L226.564 145.498L214.083 95.0041Z" fill="url(#paint6_linear_38_1003)"/>
<path d="M293.372 108.301L223.79 148.516C223.219 148.843 222.811 148.68 222.73 148.109L213.92 96.0646C213.838 95.4936 214.246 94.5963 214.817 94.27L284.399 54.0542C284.97 53.7279 285.378 53.8911 285.46 54.4621L294.27 106.506C294.351 107.159 293.943 107.974 293.372 108.301Z" fill="#453C9E"/>
<path d="M419.24 157.163C418.098 157.163 417.038 156.837 416.059 156.348L353.573 120.292C353.002 119.966 352.676 119.395 352.676 118.742C352.676 118.09 353.002 117.519 353.573 117.192L392.729 94.5963C392.81 94.5148 392.973 94.5148 393.055 94.5963L458.477 132.365C459.048 132.691 459.374 133.262 459.374 133.915C459.374 134.567 459.048 135.138 458.477 135.465L422.34 156.266C421.361 156.837 420.301 157.163 419.24 157.163ZM392.892 95.2489L392.729 95.3305L353.9 117.763C353.573 117.926 353.329 118.334 353.329 118.742C353.329 119.15 353.573 119.476 353.9 119.721L416.385 155.777C418.098 156.755 420.301 156.755 421.932 155.777L458.151 134.894C458.477 134.731 458.722 134.323 458.722 133.915C458.722 133.507 458.477 133.181 458.151 132.936L392.892 95.2489Z" fill="#42E8E0"/>
<path d="M348.842 106.914L352.676 108.872L390.771 86.847C391.424 86.4391 392.484 86.5207 393.218 86.9286L458.885 124.86C459.538 124.534 462.393 123.147 462.393 123.147L461.006 126.736C460.924 126.9 460.843 127.063 460.598 127.144L420.464 150.311C419.811 150.719 418.751 150.638 418.017 150.23L350.8 111.401C350.474 111.238 350.311 110.993 350.229 110.83L348.842 106.914Z" fill="url(#paint7_linear_38_1003)"/>
<path d="M349.414 107.567L418.262 147.375C418.996 147.782 420.138 147.864 420.79 147.456L461.903 123.718C462.556 123.31 462.474 122.658 461.74 122.25L392.892 82.442C392.158 82.0341 391.016 81.9526 390.363 82.3604L349.25 106.098C348.598 106.425 348.679 107.077 349.414 107.567Z" fill="url(#paint8_linear_38_1003)"/>
<path d="M349.413 107.159L418.261 146.967C418.996 147.374 420.138 147.456 420.79 147.048L461.903 123.31C462.148 123.147 462.23 123.066 462.311 122.902C462.393 123.229 462.311 123.555 461.903 123.718L420.79 147.456C420.138 147.864 418.996 147.782 418.261 147.374L349.413 107.567C348.924 107.24 348.679 106.914 348.842 106.506C348.924 106.751 349.169 106.996 349.413 107.159Z" fill="white"/>
<path d="M439.144 138.728V137.993C439.144 137.912 439.063 137.912 439.063 137.912L436.371 139.462C436.289 139.462 436.289 139.543 436.289 139.625V140.359C436.289 140.441 436.371 140.441 436.371 140.441L439.063 138.891C439.063 138.891 439.144 138.809 439.144 138.728Z" fill="#2842A2"/>
<path d="M435.147 141.012V140.278C435.147 140.196 435.066 140.196 435.066 140.196L432.374 141.746C432.292 141.746 432.292 141.828 432.292 141.909V142.643C432.292 142.725 432.374 142.725 432.374 142.725L435.066 141.175C435.066 141.175 435.147 141.093 435.147 141.012Z" fill="#2842A2"/>
<path d="M438.818 129.102L381.553 96.0649C381.145 95.8202 380.738 95.8202 380.33 96.0649L359.936 107.893C359.61 108.056 359.61 108.464 359.936 108.627L417.119 141.665C417.527 141.909 417.935 141.909 418.343 141.665L438.736 129.918C439.144 129.673 439.144 129.265 438.818 129.102Z" fill="#ADB1F2"/>
<path d="M438.818 129.836L438.573 129.918L381.553 97.0438C381.145 96.799 380.738 96.799 380.33 97.0438L360.181 108.709L359.936 108.627C359.61 108.464 359.61 108.056 359.936 107.893L380.33 96.0649C380.738 95.8202 381.145 95.8202 381.553 96.0649L438.818 129.102C439.144 129.265 439.144 129.673 438.818 129.836Z" fill="#9198DB"/>
<path d="M378.78 99.0012L431.558 129.428L434.169 128.449L380.983 97.7776L378.78 99.0012Z" fill="#24126A"/>
<path d="M373.396 102.183L420.056 129.102L422.259 127.797L375.599 100.878L373.396 102.183Z" fill="#24126A"/>
<path d="M369.889 104.222L424.788 135.873L426.99 134.649L372.091 102.917L369.889 104.222Z" fill="#24126A"/>
<path d="M366.299 106.261L421.198 137.912L423.401 136.688L368.502 104.956L366.299 106.261Z" fill="#24126A"/>
<path d="M362.792 108.301L417.691 139.951L419.893 138.728L364.994 106.996L362.792 108.301Z" fill="#24126A"/>
<path d="M431.558 129.428L433.761 130.734L435.963 129.428L433.761 128.205L431.558 129.428Z" fill="#24126A"/>
<path d="M417.364 127.552L428.295 133.833L430.498 132.61L419.485 126.247L417.364 127.552Z" fill="#24126A"/>
<path d="M418.425 114.255L403.008 105.364C402.437 105.038 402.437 104.467 403.008 104.14L413.531 98.0223C414.102 97.696 415.081 97.696 415.733 98.0223L431.151 106.914C431.722 107.24 431.722 107.811 431.151 108.137L420.628 114.255C419.975 114.663 419.078 114.663 418.425 114.255Z" fill="url(#paint9_linear_38_1003)"/>
<path d="M431.15 107.403L415.733 98.5118C415.162 98.1855 414.183 98.1855 413.53 98.5118L403.007 104.63C402.844 104.711 402.681 104.874 402.599 105.038C402.436 104.711 402.599 104.385 403.007 104.14L413.53 98.0223C414.101 97.696 415.08 97.696 415.733 98.0223L431.15 106.914C431.558 107.159 431.721 107.485 431.558 107.811C431.476 107.648 431.395 107.566 431.15 107.403Z" fill="#9198DB"/>
<path d="M349.005 105.935L357.734 54.2989L357 53.9726L358.06 53.4015C358.305 53.2384 358.55 53.2384 358.876 53.4831L428.458 93.6989C429.029 94.0252 429.437 94.8409 429.355 95.4935L420.545 147.537C420.464 147.782 420.382 148.027 420.219 148.027L419.159 148.598L418.996 147.619H419.077L349.903 107.648C349.332 107.322 348.842 106.506 349.005 105.935Z" fill="url(#paint10_linear_38_1003)"/>
<path d="M428.05 95.0041L429.192 94.5146C429.355 94.8409 429.355 95.0857 429.355 95.412L420.545 147.456C420.464 147.701 420.382 147.945 420.219 147.945L419.159 148.516L418.995 147.537H419.077L415.569 145.498L428.05 95.0041Z" fill="url(#paint11_linear_38_1003)"/>
<path d="M348.761 108.301L418.343 148.517C418.914 148.843 419.322 148.68 419.403 148.109L428.213 96.0649C428.295 95.4939 427.887 94.5966 427.316 94.2703L357.734 54.0545C357.163 53.7282 356.755 53.8913 356.673 54.4624L347.863 106.506C347.782 107.159 348.19 107.975 348.761 108.301Z" fill="#453C9E"/>
<path d="M321.026 169.644L256.256 132.202L321.026 94.7595L385.877 132.202L321.026 169.644Z" fill="#BCBEFF"/>
<path d="M321.025 159.366L273.957 132.202L321.025 105.038L368.175 132.202L321.025 159.366Z" fill="#453C9E"/>
<path d="M321.025 106.832L366.543 133.099L368.175 132.202L321.025 105.038L273.957 132.202L275.589 133.099L321.025 106.832Z" fill="white"/>
<path d="M385.876 132.202V153.411L321.025 190.771V169.644L385.876 132.202Z" fill="url(#paint12_linear_38_1003)"/>
<path d="M256.256 132.202V153.411L321.026 190.771V169.644L256.256 132.202Z" fill="#24126A"/>
<g opacity="0.51">
<path d="M260.661 141.746V148.435L316.702 180.738V174.049L260.661 141.746Z" fill="#453C9E"/>
</g>
<path d="M321.026 168.42L257.317 131.549L256.256 132.202L321.026 169.644L385.876 132.202L384.816 131.549L321.026 168.42Z" fill="white"/>
<path d="M376.169 147.048V150.882L330.814 177.067V173.233L376.169 147.048Z" fill="#453C9E"/>
<path opacity="0.51" d="M256.256 132.202V153.411L321.026 190.771V169.644L256.256 132.202Z" fill="#453C9E"/>
<path d="M302.182 168.502L290.435 161.731V163.118L302.182 169.889V168.502Z" fill="#42E8E0"/>
<path d="M288.722 160.753L285.541 158.876V160.263L288.722 162.139V160.753Z" fill="#42E8E0"/>
<path d="M273.794 152.105L267.35 148.353V149.821L273.794 153.574V152.105Z" fill="#42E8E0"/>
<path d="M279.749 155.532L275.018 152.84V154.227L279.749 157V155.532Z" fill="#42E8E0"/>
<path d="M284.154 158.142L280.973 156.266V157.652L284.154 159.529V158.142Z" fill="#42E8E0"/>
<path d="M321.107 114.337L319.067 113.113L321.107 111.971L323.146 113.113L321.107 114.337Z" fill="#42E8E0"/>
<path opacity="0.1" d="M325.267 116.703L323.146 115.561L325.267 114.337L327.306 115.561L325.267 116.703Z" fill="#42E8E0"/>
<path opacity="0.4" d="M329.346 119.069L327.306 117.926L329.346 116.703L331.385 117.926L329.346 119.069Z" fill="#42E8E0"/>
<path d="M333.506 121.434L331.385 120.292L333.506 119.068L335.545 120.292L333.506 121.434Z" fill="#42E8E0"/>
<path opacity="0.4" d="M337.585 123.8L335.545 122.658L337.585 121.434L339.624 122.658L337.585 123.8Z" fill="#42E8E0"/>
<path d="M341.663 126.247L339.624 125.023L341.663 123.8L343.784 125.023L341.663 126.247Z" fill="#42E8E0"/>
<path d="M345.823 128.612L343.784 127.389L345.823 126.247L347.863 127.389L345.823 128.612Z" fill="#42E8E0"/>
<path d="M349.902 130.978L347.863 129.754L349.902 128.612L352.023 129.754L349.902 130.978Z" fill="#42E8E0"/>
<path opacity="0.1" d="M354.062 133.344L352.023 132.12L354.062 130.978L356.102 132.12L354.062 133.344Z" fill="#42E8E0"/>
<path d="M317.028 116.703L314.907 115.561L317.028 114.337L319.067 115.561L317.028 116.703Z" fill="#42E8E0"/>
<path d="M321.107 119.068L319.067 117.926L321.107 116.703L323.146 117.926L321.107 119.068Z" fill="#42E8E0"/>
<path d="M325.185 121.434L323.146 120.292L325.185 119.068L327.306 120.292L325.185 121.434Z" fill="#42E8E0"/>
<path d="M329.345 123.881L327.306 122.658L329.345 121.434L331.385 122.658L329.345 123.881Z" fill="#42E8E0"/>
<path d="M333.424 126.247L331.385 125.023L333.424 123.881L335.545 125.023L333.424 126.247Z" fill="#42E8E0"/>
<path d="M337.585 128.612L335.545 127.389L337.585 126.247L339.624 127.389L337.585 128.612Z" fill="#42E8E0"/>
<path d="M341.663 130.978L339.624 129.754L341.663 128.612L343.703 129.754L341.663 130.978Z" fill="#42E8E0"/>
<path d="M345.823 133.344L343.703 132.202L345.823 130.978L347.863 132.202L345.823 133.344Z" fill="#42E8E0"/>
<path d="M349.902 135.71L347.863 134.568L349.902 133.344L351.941 134.568L349.902 135.71Z" fill="#42E8E0"/>
<path d="M312.868 119.069L310.828 117.926L312.868 116.703L314.907 117.926L312.868 119.069Z" fill="#42E8E0"/>
<path d="M316.946 121.516L314.907 120.292L316.946 119.068L319.067 120.292L316.946 121.516Z" fill="#42E8E0"/>
<path d="M321.107 123.881L319.067 122.658L321.107 121.516L323.146 122.658L321.107 123.881Z" fill="#42E8E0"/>
<path opacity="0.1" d="M325.185 126.247L323.146 125.023L325.185 123.881L327.225 125.023L325.185 126.247Z" fill="#42E8E0"/>
<path opacity="0.4" d="M329.346 128.612L327.225 127.389L329.346 126.247L331.385 127.389L329.346 128.612Z" fill="#42E8E0"/>
<path opacity="0.4" d="M333.424 130.978L331.385 129.836L333.424 128.613L335.463 129.836L333.424 130.978Z" fill="#42E8E0"/>
<path d="M337.584 133.344L335.464 132.202L337.584 130.978L339.624 132.202L337.584 133.344Z" fill="#42E8E0"/>
<path d="M341.663 135.71L339.624 134.568L341.663 133.344L343.703 134.568L341.663 135.71Z" fill="#42E8E0"/>
<path d="M345.823 138.075L343.703 136.933L345.823 135.709L347.863 136.933L345.823 138.075Z" fill="#42E8E0"/>
<path opacity="0.4" d="M308.708 121.516L306.668 120.292L308.708 119.15L310.828 120.292L308.708 121.516Z" fill="#42E8E0"/>
<path opacity="0.4" d="M312.868 123.881L310.828 122.658L312.868 121.516L314.907 122.658L312.868 123.881Z" fill="#42E8E0"/>
<path opacity="0.1" d="M316.946 126.247L314.907 125.023L316.946 123.881L318.986 125.023L316.946 126.247Z" fill="#42E8E0"/>
<path d="M321.107 128.612L318.986 127.47L321.107 126.247L323.146 127.47L321.107 128.612Z" fill="#42E8E0"/>
<path d="M325.185 130.978L323.146 129.836L325.185 128.613L327.225 129.836L325.185 130.978Z" fill="#42E8E0"/>
<path d="M329.346 133.344L327.225 132.202L329.346 130.978L331.385 132.202L329.346 133.344Z" fill="#42E8E0"/>
<path opacity="0.4" d="M333.424 135.71L331.385 134.568L333.424 133.344L335.464 134.568L333.424 135.71Z" fill="#42E8E0"/>
<path d="M337.503 138.157L335.464 136.933L337.503 135.709L339.624 136.933L337.503 138.157Z" fill="#42E8E0"/>
<path d="M341.663 140.522L339.624 139.299L341.663 138.157L343.703 139.299L341.663 140.522Z" fill="#42E8E0"/>
<path d="M304.629 123.881L302.508 122.658L304.629 121.516L306.668 122.658L304.629 123.881Z" fill="#42E8E0"/>
<path d="M308.707 126.247L306.668 125.105L308.707 123.881L310.747 125.105L308.707 126.247Z" fill="#42E8E0"/>
<path d="M312.868 128.612L310.747 127.47L312.868 126.247L314.907 127.47L312.868 128.612Z" fill="#42E8E0"/>
<path d="M316.946 130.978L314.907 129.836L316.946 128.612L318.986 129.836L316.946 130.978Z" fill="#42E8E0"/>
<path d="M321.025 133.344L318.986 132.202L321.025 130.978L323.146 132.202L321.025 133.344Z" fill="#42E8E0"/>
<path d="M325.185 135.791L323.146 134.568L325.185 133.344L327.225 134.568L325.185 135.791Z" fill="#42E8E0"/>
<path d="M329.264 138.157L327.225 136.933L329.264 135.791L331.385 136.933L329.264 138.157Z" fill="#42E8E0"/>
<path d="M333.424 140.522L331.385 139.299L333.424 138.156L335.463 139.299L333.424 140.522Z" fill="#42E8E0"/>
<path d="M337.503 142.888L335.464 141.664L337.503 140.522L339.543 141.664L337.503 142.888Z" fill="#42E8E0"/>
<path d="M300.469 126.247L298.429 125.105L300.469 123.881L302.508 125.105L300.469 126.247Z" fill="#42E8E0"/>
<path d="M304.547 128.612L302.508 127.47L304.547 126.247L306.668 127.47L304.547 128.612Z" fill="#42E8E0"/>
<path opacity="0.4" d="M308.707 130.978L306.668 129.836L308.707 128.613L310.747 129.836L308.707 130.978Z" fill="#42E8E0"/>
<path d="M312.786 133.425L310.747 132.202L312.786 130.978L314.907 132.202L312.786 133.425Z" fill="#42E8E0"/>
<path opacity="0.1" d="M316.946 135.791L314.907 134.568L316.946 133.426L318.986 134.568L316.946 135.791Z" fill="#42E8E0"/>
<path d="M321.025 138.157L318.986 136.933L321.025 135.791L323.064 136.933L321.025 138.157Z" fill="#42E8E0"/>
<path d="M325.185 140.522L323.064 139.299L325.185 138.157L327.225 139.299L325.185 140.522Z" fill="#42E8E0"/>
<path d="M329.264 142.888L327.225 141.746L329.264 140.522L331.303 141.746L329.264 142.888Z" fill="#42E8E0"/>
<path d="M333.424 145.254L331.303 144.112L333.424 142.888L335.463 144.112L333.424 145.254Z" fill="#42E8E0"/>
<path d="M296.309 128.612L294.269 127.47L296.309 126.247L298.429 127.47L296.309 128.612Z" fill="#42E8E0"/>
<path d="M300.469 131.06L298.43 129.836L300.469 128.612L302.508 129.836L300.469 131.06Z" fill="#42E8E0"/>
<path opacity="0.4" d="M304.548 133.425L302.508 132.202L304.548 131.06L306.587 132.202L304.548 133.425Z" fill="#42E8E0"/>
<path d="M308.708 135.791L306.587 134.568L308.708 133.426L310.747 134.568L308.708 135.791Z" fill="#42E8E0"/>
<path d="M312.786 138.157L310.747 136.933L312.786 135.791L314.826 136.933L312.786 138.157Z" fill="#42E8E0"/>
<path opacity="0.1" d="M316.947 140.522L314.826 139.38L316.947 138.157L318.986 139.38L316.947 140.522Z" fill="#42E8E0"/>
<path opacity="0.4" d="M321.025 142.888L318.986 141.746L321.025 140.522L323.065 141.746L321.025 142.888Z" fill="#42E8E0"/>
<path d="M325.104 145.253L323.065 144.111L325.104 142.888L327.225 144.111L325.104 145.253Z" fill="#42E8E0"/>
<path opacity="0.1" d="M329.264 147.619L327.225 146.477L329.264 145.254L331.303 146.477L329.264 147.619Z" fill="#42E8E0"/>
<path d="M292.23 131.06L290.109 129.836L292.23 128.694L294.269 129.836L292.23 131.06Z" fill="#42E8E0"/>
<path opacity="0.4" d="M296.309 133.425L294.269 132.202L296.309 131.06L298.348 132.202L296.309 133.425Z" fill="#42E8E0"/>
<path d="M300.469 135.791L298.348 134.568L300.469 133.426L302.508 134.568L300.469 135.791Z" fill="#42E8E0"/>
<path d="M304.547 138.157L302.508 137.015L304.547 135.791L306.586 137.015L304.547 138.157Z" fill="#42E8E0"/>
<path d="M308.626 140.522L306.587 139.38L308.626 138.157L310.747 139.38L308.626 140.522Z" fill="#42E8E0"/>
<path d="M312.786 142.888L310.747 141.746L312.786 140.522L314.826 141.746L312.786 142.888Z" fill="#42E8E0"/>
<path d="M316.865 145.253L314.826 144.111L316.865 142.888L318.986 144.111L316.865 145.253Z" fill="#42E8E0"/>
<path opacity="0.4" d="M321.025 147.701L318.986 146.477L321.025 145.254L323.065 146.477L321.025 147.701Z" fill="#42E8E0"/>
<path d="M325.104 150.066L323.064 148.843L325.104 147.701L327.143 148.843L325.104 150.066Z" fill="#42E8E0"/>
<path d="M288.069 133.425L286.03 132.202L288.069 131.06L290.109 132.202L288.069 133.425Z" fill="#42E8E0"/>
<path opacity="0.1" d="M292.148 135.791L290.109 134.567L292.148 133.425L294.269 134.567L292.148 135.791Z" fill="#42E8E0"/>
<path d="M296.308 138.157L294.269 137.015L296.308 135.791L298.348 137.015L296.308 138.157Z" fill="#42E8E0"/>
<path d="M300.387 140.522L298.348 139.38L300.387 138.156L302.508 139.38L300.387 140.522Z" fill="#42E8E0"/>
<path d="M304.547 142.888L302.508 141.746L304.547 140.522L306.586 141.746L304.547 142.888Z" fill="#42E8E0"/>
<path d="M308.626 145.335L306.586 144.111L308.626 142.888L310.665 144.111L308.626 145.335Z" fill="#42E8E0"/>
<path opacity="0.4" d="M312.786 147.701L310.665 146.477L312.786 145.335L314.825 146.477L312.786 147.701Z" fill="#42E8E0"/>
<path d="M316.865 150.066L314.826 148.842L316.865 147.7L318.904 148.842L316.865 150.066Z" fill="#42E8E0"/>
<path d="M321.025 152.432L318.904 151.208L321.025 150.066L323.064 151.208L321.025 152.432Z" fill="#42E8E0"/>
<path d="M321.026 132.854L256.256 95.4935L321.026 58.0513L385.877 95.4935L321.026 132.854Z" fill="#BCBEFF"/>
<path d="M321.025 122.658L273.957 95.4936L321.025 68.248L368.175 95.4936L321.025 122.658Z" fill="#453C9E"/>
<path d="M321.025 70.1242L366.543 96.3909L368.175 95.4936L321.025 68.248L273.957 95.4936L275.589 96.3909L321.025 70.1242Z" fill="white"/>
<path d="M385.876 95.4934V116.703L321.025 154.063V132.854L385.876 95.4934Z" fill="url(#paint13_linear_38_1003)"/>
<path d="M256.256 95.4934V116.703L321.026 154.063V132.854L256.256 95.4934Z" fill="#24126A"/>
<g opacity="0.51">
<path d="M260.661 105.038V111.645L316.702 144.03V137.341L260.661 105.038Z" fill="#453C9E"/>
</g>
<path d="M321.026 131.713L257.317 94.8413L256.256 95.4939L321.026 132.855L385.876 95.4939L384.816 94.8413L321.026 131.713Z" fill="white"/>
<path d="M376.169 110.34V114.174L330.814 140.359V136.525L376.169 110.34Z" fill="#453C9E"/>
<path opacity="0.51" d="M256.256 95.4934V116.703L321.026 154.063V132.854L256.256 95.4934Z" fill="#453C9E"/>
<path d="M302.182 131.794L290.435 125.023V126.41L302.182 133.181V131.794Z" fill="#42E8E0"/>
<path d="M288.722 124.044L285.541 122.168V123.555L288.722 125.431V124.044Z" fill="#42E8E0"/>
<path d="M273.794 115.398L267.35 111.645V113.032L273.794 116.866V115.398Z" fill="#42E8E0"/>
<path d="M279.749 118.824L275.018 116.132V117.518L279.749 120.292V118.824Z" fill="#42E8E0"/>
<path d="M284.154 121.434L280.973 119.558V120.945L284.154 122.821V121.434Z" fill="#42E8E0"/>
<path d="M321.107 77.6293L319.067 76.4057L321.107 75.2637L323.146 76.4057L321.107 77.6293Z" fill="#42E8E0"/>
<path opacity="0.1" d="M325.267 79.9945L323.146 78.7709L325.267 77.6289L327.306 78.7709L325.267 79.9945Z" fill="#42E8E0"/>
<path opacity="0.4" d="M329.346 82.3603L327.306 81.2182L329.346 79.9946L331.385 81.2182L329.346 82.3603Z" fill="#42E8E0"/>
<path d="M333.506 84.726L331.385 83.584L333.506 82.3604L335.545 83.584L333.506 84.726Z" fill="#42E8E0"/>
<path opacity="0.4" d="M337.585 87.0917L335.545 85.9497L337.585 84.7261L339.624 85.9497L337.585 87.0917Z" fill="#42E8E0"/>
<path d="M341.663 89.5388L339.624 88.3152L341.663 87.0916L343.784 88.3152L341.663 89.5388Z" fill="#42E8E0"/>
<path d="M345.823 91.9044L343.784 90.6808L345.823 89.5388L347.863 90.6808L345.823 91.9044Z" fill="#42E8E0"/>
<path d="M349.902 94.2699L347.863 93.0463L349.902 91.9043L352.023 93.0463L349.902 94.2699Z" fill="#42E8E0"/>
<path opacity="0.1" d="M354.062 96.6356L352.023 95.412L354.062 94.27L356.102 95.412L354.062 96.6356Z" fill="#42E8E0"/>
<path d="M317.028 79.9945L314.907 78.8525L317.028 77.6289L319.067 78.8525L317.028 79.9945Z" fill="#42E8E0"/>
<path d="M321.107 82.3603L319.067 81.2182L321.107 79.9946L323.146 81.2182L321.107 82.3603Z" fill="#42E8E0"/>
<path d="M325.185 84.726L323.146 83.584L325.185 82.3604L327.306 83.584L325.185 84.726Z" fill="#42E8E0"/>
<path opacity="0.8" d="M329.345 87.173L327.306 85.9494L329.345 84.7258L331.385 85.9494L329.345 87.173Z" fill="#FF2C9C"/>
<path d="M333.424 89.5387L331.385 88.3151L333.424 87.1731L335.545 88.3151L333.424 89.5387Z" fill="#42E8E0"/>
<path d="M337.585 91.9044L335.545 90.6808L337.585 89.5388L339.624 90.6808L337.585 91.9044Z" fill="#42E8E0"/>
<path opacity="0.8" d="M341.663 94.2699L339.624 93.0463L341.663 91.9043L343.703 93.0463L341.663 94.2699Z" fill="url(#paint14_radial_38_1003)"/>
<path d="M345.823 96.6356L343.703 95.412L345.823 94.27L347.863 95.412L345.823 96.6356Z" fill="#42E8E0"/>
<path opacity="0.8" d="M349.902 99.0014L347.863 97.8593L349.902 96.6357L351.941 97.8593L349.902 99.0014Z" fill="#FF2C9C"/>
<path d="M312.868 82.3603L310.828 81.2182L312.868 79.9946L314.907 81.2182L312.868 82.3603Z" fill="#42E8E0"/>
<path opacity="0.8" d="M316.946 84.8076L314.907 83.584L316.946 82.3604L319.067 83.584L316.946 84.8076Z" fill="#FF2C9C"/>
<path d="M321.107 87.173L319.067 85.9494L321.107 84.8074L323.146 85.9494L321.107 87.173Z" fill="#42E8E0"/>
<path opacity="0.1" d="M325.185 89.5387L323.146 88.3151L325.185 87.1731L327.225 88.3151L325.185 89.5387Z" fill="#42E8E0"/>
<path opacity="0.4" d="M329.346 91.9044L327.225 90.6808L329.346 89.5388L331.385 90.6808L329.346 91.9044Z" fill="#42E8E0"/>
<path opacity="0.4" d="M333.424 94.2702L331.385 93.0466L333.424 91.9045L335.463 93.0466L333.424 94.2702Z" fill="#42E8E0"/>
<path d="M337.584 96.6356L335.464 95.4936L337.584 94.27L339.624 95.4936L337.584 96.6356Z" fill="#42E8E0"/>
<path d="M341.663 99.0014L339.624 97.8593L341.663 96.6357L343.703 97.8593L341.663 99.0014Z" fill="#42E8E0"/>
<path d="M345.823 101.367L343.703 100.225L345.823 99.0015L347.863 100.225L345.823 101.367Z" fill="#42E8E0"/>
<path opacity="0.4" d="M308.708 84.8076L306.668 83.584L308.708 82.3604L310.828 83.584L308.708 84.8076Z" fill="#42E8E0"/>
<path opacity="0.4" d="M312.868 87.173L310.828 85.9494L312.868 84.8074L314.907 85.9494L312.868 87.173Z" fill="#42E8E0"/>
<path opacity="0.1" d="M316.946 89.5387L314.907 88.3151L316.946 87.1731L318.986 88.3151L316.946 89.5387Z" fill="#42E8E0"/>
<path d="M321.107 91.9044L318.986 90.6808L321.107 89.5388L323.146 90.6808L321.107 91.9044Z" fill="#42E8E0"/>
<path d="M325.185 94.2699L323.146 93.1279L325.185 91.9043L327.225 93.1279L325.185 94.2699Z" fill="#42E8E0"/>
<path opacity="0.8" d="M329.346 96.6356L327.225 95.4936L329.346 94.27L331.385 95.4936L329.346 96.6356Z" fill="#FF2C9C"/>
<path opacity="0.4" d="M333.424 99.0014L331.385 97.8593L333.424 96.6357L335.464 97.8593L333.424 99.0014Z" fill="#42E8E0"/>
<path d="M337.503 101.367L335.464 100.225L337.503 99.0012L339.624 100.225L337.503 101.367Z" fill="#42E8E0"/>
<path d="M341.663 103.814L339.624 102.591L341.663 101.367L343.703 102.591L341.663 103.814Z" fill="#42E8E0"/>
<path opacity="0.8" d="M304.629 87.173L302.508 85.9494L304.629 84.8074L306.668 85.9494L304.629 87.173Z" fill="#FF2C9C"/>
<path d="M308.707 89.5387L306.668 88.3151L308.707 87.1731L310.747 88.3151L308.707 89.5387Z" fill="#42E8E0"/>
<path d="M312.868 91.9044L310.747 90.7624L312.868 89.5388L314.907 90.7624L312.868 91.9044Z" fill="#42E8E0"/>
<path d="M316.946 94.2699L314.907 93.1279L316.946 91.9043L318.986 93.1279L316.946 94.2699Z" fill="#42E8E0"/>
<path opacity="0.8" d="M321.025 96.6356L318.986 95.4936L321.025 94.27L323.146 95.4936L321.025 96.6356Z" fill="#FF2C9C"/>
<path opacity="0.8" d="M325.185 99.0014L323.146 97.8593L325.185 96.6357L327.225 97.8593L325.185 99.0014Z" fill="#FF2C9C"/>
<path d="M329.264 101.448L327.225 100.225L329.264 99.0012L331.385 100.225L329.264 101.448Z" fill="#42E8E0"/>
<path d="M333.424 103.814L331.385 102.591L333.424 101.449L335.463 102.591L333.424 103.814Z" fill="#42E8E0"/>
<path d="M337.503 106.18L335.464 104.956L337.503 103.814L339.543 104.956L337.503 106.18Z" fill="#42E8E0"/>
<path d="M300.469 89.5387L298.429 88.3967L300.469 87.1731L302.508 88.3967L300.469 89.5387Z" fill="#42E8E0"/>
<path d="M304.547 91.9044L302.508 90.7624L304.547 89.5388L306.668 90.7624L304.547 91.9044Z" fill="#42E8E0"/>
<path opacity="0.4" d="M308.707 94.2702L306.668 93.1281L308.707 91.9045L310.747 93.1281L308.707 94.2702Z" fill="#42E8E0"/>
<path opacity="0.8" d="M312.786 96.6356L310.747 95.4936L312.786 94.27L314.907 95.4936L312.786 96.6356Z" fill="#FF2C9C"/>
<path opacity="0.1" d="M316.946 99.0829L314.907 97.8593L316.946 96.6357L318.986 97.8593L316.946 99.0829Z" fill="#42E8E0"/>
<path d="M321.025 101.449L318.986 100.225L321.025 99.083L323.064 100.225L321.025 101.449Z" fill="#42E8E0"/>
<path d="M325.185 103.815L323.064 102.591L325.185 101.449L327.225 102.591L325.185 103.815Z" fill="#42E8E0"/>
<path opacity="0.8" d="M329.264 106.18L327.225 104.956L329.264 103.814L331.303 104.956L329.264 106.18Z" fill="#FF2C9C"/>
<path d="M333.424 108.546L331.303 107.404L333.424 106.18L335.463 107.404L333.424 108.546Z" fill="#42E8E0"/>
<path d="M296.309 91.9044L294.269 90.7624L296.309 89.5388L298.429 90.7624L296.309 91.9044Z" fill="#42E8E0"/>
<path d="M300.469 94.2699L298.43 93.1279L300.469 91.9043L302.508 93.1279L300.469 94.2699Z" fill="#42E8E0"/>
<path opacity="0.4" d="M304.548 96.7172L302.508 95.4936L304.548 94.27L306.587 95.4936L304.548 96.7172Z" fill="#42E8E0"/>
<path d="M308.708 99.0829L306.587 97.8593L308.708 96.7173L310.747 97.8593L308.708 99.0829Z" fill="#42E8E0"/>
<path d="M312.786 101.448L310.747 100.225L312.786 99.0828L314.826 100.225L312.786 101.448Z" fill="#42E8E0"/>
<path opacity="0.1" d="M316.947 103.815L314.826 102.591L316.947 101.449L318.986 102.591L316.947 103.815Z" fill="#42E8E0"/>
<path opacity="0.4" d="M321.025 106.18L318.986 105.038L321.025 103.814L323.065 105.038L321.025 106.18Z" fill="#42E8E0"/>
<path d="M325.104 108.545L323.065 107.403L325.104 106.18L327.225 107.403L325.104 108.545Z" fill="#42E8E0"/>
<path opacity="0.1" d="M329.264 110.911L327.225 109.769L329.264 108.545L331.303 109.769L329.264 110.911Z" fill="#42E8E0"/>
<path d="M292.23 94.3515L290.109 93.1279L292.23 91.9043L294.269 93.1279L292.23 94.3515Z" fill="#42E8E0"/>
<path opacity="0.4" d="M296.309 96.7174L294.269 95.4938L296.309 94.3518L298.348 95.4938L296.309 96.7174Z" fill="#42E8E0"/>
<path d="M300.469 99.0827L298.348 97.8591L300.469 96.717L302.508 97.8591L300.469 99.0827Z" fill="#42E8E0"/>
<path d="M304.547 101.448L302.508 100.225L304.547 99.0828L306.586 100.225L304.547 101.448Z" fill="#42E8E0"/>
<path d="M308.626 103.814L306.587 102.672L308.626 101.449L310.747 102.672L308.626 103.814Z" fill="#42E8E0"/>
<path d="M312.786 106.18L310.747 105.038L312.786 103.814L314.826 105.038L312.786 106.18Z" fill="#42E8E0"/>
<path d="M316.865 108.545L314.826 107.403L316.865 106.18L318.986 107.403L316.865 108.545Z" fill="#42E8E0"/>
<path opacity="0.4" d="M321.025 110.911L318.986 109.769L321.025 108.545L323.065 109.769L321.025 110.911Z" fill="#42E8E0"/>
<path d="M325.104 113.358L323.064 112.135L325.104 110.911L327.143 112.135L325.104 113.358Z" fill="#42E8E0"/>
<path d="M288.069 96.7174L286.03 95.4938L288.069 94.3518L290.109 95.4938L288.069 96.7174Z" fill="#42E8E0"/>
<path opacity="0.1" d="M292.148 99.0827L290.109 97.8591L292.148 96.717L294.269 97.8591L292.148 99.0827Z" fill="#42E8E0"/>
<path opacity="0.8" d="M296.308 101.448L294.269 100.306L296.308 99.0828L298.348 100.306L296.308 101.448Z" fill="#FF2C9C"/>
<path d="M300.387 103.814L298.348 102.672L300.387 101.449L302.508 102.672L300.387 103.814Z" fill="#42E8E0"/>
<path d="M304.547 106.18L302.508 105.038L304.547 103.814L306.586 105.038L304.547 106.18Z" fill="#42E8E0"/>
<path d="M308.626 108.545L306.586 107.403L308.626 106.18L310.665 107.403L308.626 108.545Z" fill="#42E8E0"/>
<path opacity="0.4" d="M312.786 110.992L310.665 109.769L312.786 108.545L314.825 109.769L312.786 110.992Z" fill="#42E8E0"/>
<path opacity="0.8" d="M316.865 113.358L314.826 112.134L316.865 110.992L318.904 112.134L316.865 113.358Z" fill="#FF2C9C"/>
<path d="M321.025 115.724L318.904 114.5L321.025 113.358L323.064 114.5L321.025 115.724Z" fill="#42E8E0"/>
<path d="M390.771 247.057C389.629 247.057 388.569 246.731 387.59 246.242L350.8 224.951C350.229 224.625 349.903 224.054 349.903 223.319C349.903 222.585 350.229 222.096 350.8 221.688L417.446 183.185C417.527 183.104 417.69 183.104 417.772 183.185L457.58 206.189C458.151 206.515 458.477 207.086 458.477 207.82C458.477 208.473 458.151 209.044 457.58 209.452L393.952 246.16C393.055 246.731 391.913 247.057 390.771 247.057ZM417.609 184.001L351.208 222.341C350.882 222.504 350.637 222.912 350.637 223.319C350.637 223.727 350.882 224.054 351.208 224.298L387.998 245.589C389.711 246.568 391.913 246.568 393.626 245.589L457.254 208.881C457.58 208.718 457.825 208.31 457.825 207.902C457.825 207.494 457.58 207.168 457.254 206.923L417.609 184.001Z" fill="#42E8E0"/>
<path d="M417.69 168.42L408.799 115.887L409.533 115.561L408.473 114.908C408.228 114.745 407.983 114.745 407.657 114.99L336.851 155.858C336.28 156.184 335.791 157.082 335.954 157.653L344.845 210.675C344.927 210.92 345.008 211.165 345.253 211.247L346.314 211.818L346.477 210.839H346.395L416.793 170.215C417.364 169.889 417.772 168.991 417.69 168.42Z" fill="url(#paint15_linear_38_1003)"/>
<path d="M337.177 157.326L336.035 156.837C335.872 157.163 335.872 157.489 335.872 157.734L344.763 210.757C344.845 211.002 344.927 211.246 345.171 211.328L346.232 211.899L346.395 210.92H346.313L349.903 208.881L337.177 157.326Z" fill="url(#paint16_linear_38_1003)"/>
<path d="M417.853 170.867L347.047 211.736C346.476 212.062 346.068 211.899 345.905 211.328L337.014 158.305C336.932 157.734 337.34 156.837 337.911 156.51L408.717 115.642C409.288 115.316 409.696 115.479 409.859 116.05L418.751 169.073C418.914 169.644 418.424 170.46 417.853 170.867Z" fill="#24126A"/>
<g opacity="0.51">
<path d="M407.82 118.987L339.543 158.387L348.026 208.31L416.222 168.91L407.82 118.987Z" fill="#453C9E"/>
</g>
<path d="M462.392 195.911L458.558 197.95L419.811 175.599C419.158 175.191 418.016 175.272 417.282 175.68L350.473 214.265C349.821 213.938 346.884 212.47 346.884 212.47L348.271 216.141C348.352 216.304 348.434 216.467 348.679 216.549L389.466 240.123C390.118 240.531 391.26 240.45 391.994 240.042L460.353 200.56C460.679 200.397 460.842 200.152 460.924 199.989L462.392 195.911Z" fill="url(#paint17_linear_38_1003)"/>
<path d="M461.822 196.563L391.75 237.024C391.016 237.432 389.792 237.513 389.139 237.105L347.292 212.96C346.64 212.552 346.721 211.899 347.455 211.491L417.527 171.031C418.261 170.623 419.485 170.541 420.137 170.949L461.985 195.095C462.637 195.421 462.556 196.074 461.822 196.563Z" fill="url(#paint18_linear_38_1003)"/>
<path d="M461.821 196.155L391.75 236.616C391.015 237.024 389.792 237.105 389.139 236.697L347.292 212.552C347.047 212.388 346.966 212.307 346.884 212.062C346.803 212.388 346.884 212.715 347.292 212.878L389.139 237.024C389.792 237.432 390.934 237.35 391.75 236.942L461.821 196.482C462.311 196.155 462.555 195.747 462.392 195.421C462.311 195.747 462.148 195.992 461.821 196.155Z" fill="white"/>
<path d="M370.541 228.295V227.561C370.541 227.48 370.622 227.48 370.622 227.48L373.314 229.03C373.396 229.03 373.396 229.111 373.396 229.193V229.927C373.396 230.009 373.314 230.009 373.314 230.009L370.622 228.459C370.622 228.459 370.541 228.377 370.541 228.295Z" fill="#2842A2"/>
<path d="M374.619 230.579V229.845C374.619 229.764 374.701 229.764 374.701 229.764L377.393 231.314C377.474 231.314 377.474 231.395 377.474 231.477V232.211C377.474 232.292 377.393 232.292 377.393 232.292L374.701 230.743C374.619 230.743 374.619 230.661 374.619 230.579Z" fill="#2842A2"/>
<path d="M358.141 210.757L416.385 177.149C416.793 176.904 417.282 176.904 417.608 177.149L438.328 189.14C438.654 189.303 438.654 189.711 438.328 189.874L380.085 223.483C379.677 223.727 379.187 223.727 378.861 223.483L358.06 211.491C357.897 211.328 357.897 210.92 358.141 210.757Z" fill="#ADB1F2"/>
<path d="M358.141 211.491L358.386 211.573L416.466 178.046C416.874 177.801 417.364 177.801 417.69 178.046L438.247 189.956L438.491 189.874C438.818 189.711 438.818 189.303 438.491 189.14L417.772 177.149C417.364 176.904 416.874 176.904 416.548 177.149L358.305 210.757C357.897 210.92 357.897 211.328 358.141 211.491Z" fill="#9198DB"/>
<path d="M419.24 180.167L368.664 209.37L366.38 208.065L417.037 178.862L419.24 180.167Z" fill="#24126A"/>
<path d="M424.787 183.349L377.311 210.757L375.027 209.452L422.503 182.043L424.787 183.349Z" fill="#24126A"/>
<path d="M428.376 185.388L372.498 217.691L370.214 216.386L426.092 184.083L428.376 185.388Z" fill="#24126A"/>
<path d="M431.965 187.427L376.087 219.73L373.803 218.425L429.681 186.203L431.965 187.427Z" fill="#24126A"/>
<path d="M435.555 189.548L379.677 221.77L377.393 220.464L433.271 188.243L435.555 189.548Z" fill="#24126A"/>
<path d="M365.564 211.083L363.362 212.389L361.078 211.083L363.362 209.778L365.564 211.083Z" fill="#24126A"/>
<path d="M373.559 212.878L368.827 215.57L366.625 214.265L371.274 211.573L373.559 212.878Z" fill="#24126A"/>
<path d="M418.669 218.833L434.413 209.778C435.065 209.452 435.065 208.881 434.413 208.473L423.645 202.273C422.992 201.947 422.014 201.947 421.443 202.273L405.699 211.328C405.046 211.654 405.046 212.225 405.699 212.633L416.466 218.833C417.038 219.241 418.016 219.241 418.669 218.833Z" fill="url(#paint19_linear_38_1003)"/>
<path d="M405.699 211.899L421.442 202.845C422.095 202.518 423.074 202.518 423.645 202.845L434.413 209.044C434.576 209.126 434.739 209.289 434.82 209.452C434.984 209.126 434.82 208.799 434.413 208.555L423.645 202.355C422.992 202.029 422.013 202.029 421.442 202.355L405.699 211.41C405.291 211.654 405.128 211.981 405.291 212.307C405.372 212.144 405.536 211.981 405.699 211.899Z" fill="#9198DB"/>
<g opacity="0.11">
<path d="M417.609 170.949L347.537 211.41C346.803 211.818 345.579 211.899 344.927 211.491L303.079 187.345C302.427 186.938 302.508 186.285 303.243 185.877L373.314 145.417C374.048 145.009 375.272 144.927 375.925 145.335L417.772 169.481C418.506 169.807 418.425 170.46 417.609 170.949Z" fill="url(#paint20_linear_38_1003)"/>
<path d="M347.292 178.209L363.036 169.155C363.689 168.828 363.689 168.257 363.036 167.849L352.268 161.65C351.616 161.323 350.637 161.323 350.066 161.65L334.322 170.704C333.67 171.031 333.67 171.602 334.322 172.01L345.09 178.209C345.742 178.535 346.721 178.535 347.292 178.209Z" fill="url(#paint21_linear_38_1003)"/>
<path d="M334.322 171.194L350.066 162.139C350.718 161.813 351.697 161.813 352.268 162.139L363.036 168.339C363.199 168.42 363.362 168.583 363.444 168.747C363.607 168.42 363.444 168.094 363.036 167.849L352.268 161.65C351.616 161.323 350.637 161.323 350.066 161.65L334.322 170.704C333.914 170.949 333.751 171.275 333.914 171.602C334.077 171.439 334.159 171.357 334.322 171.194Z" fill="#9198DB"/>
<path d="M327.47 192.321L385.714 158.713C386.121 158.468 386.611 158.468 386.937 158.713L407.657 170.704C407.983 170.867 407.983 171.275 407.657 171.438L349.495 205.128C349.087 205.373 348.598 205.373 348.271 205.128L327.47 193.137C327.144 192.974 327.144 192.566 327.47 192.321Z" fill="#ADB1F2"/>
<path d="M327.47 193.137L327.715 193.219L385.795 159.692C386.203 159.447 386.693 159.447 387.019 159.692L407.575 171.602L407.82 171.52C408.146 171.357 408.146 170.949 407.82 170.786L387.1 158.795C386.692 158.55 386.203 158.55 385.877 158.795L327.633 192.403C327.144 192.566 327.144 192.974 327.47 193.137Z" fill="#9198DB"/>
<path d="M402.273 169.888L351.534 199.173L353.492 200.397L404.312 171.112L402.273 169.888Z" fill="#24126A"/>
<path d="M396.889 166.789L348.679 194.687L350.719 195.829L398.929 168.012L396.889 166.789Z" fill="#24126A"/>
<path d="M345.09 196.726L340.604 199.337L342.561 200.479L347.129 197.95L345.09 196.726Z" fill="#24126A"/>
<path d="M349.087 200.642L345.906 202.436L347.945 203.578L351.045 201.784L349.087 200.642Z" fill="#24126A"/>
<path d="M393.545 164.912L337.259 197.379L339.217 198.602L395.584 166.054L393.545 164.912Z" fill="#24126A"/>
<path d="M390.2 162.955L333.914 195.502L335.872 196.644L392.24 164.097L390.2 162.955Z" fill="#24126A"/>
<path d="M386.856 160.997L330.488 193.545L332.528 194.687L388.895 162.221L386.856 160.997Z" fill="#24126A"/>
</g>
<path d="M365.239 189.303L370.786 186.122L370.949 187.019L365.402 190.282L365.239 189.303Z" fill="#42E8E0"/>
<path d="M371.683 185.551L374.701 183.838L374.864 184.817L371.846 186.53L371.683 185.551Z" fill="#42E8E0"/>
<path d="M379.351 181.146L381.553 179.922L381.716 180.82L379.514 182.125L379.351 181.146Z" fill="#42E8E0"/>
<path d="M377.801 182.043L378.535 181.635L378.698 182.614L377.964 183.022L377.801 182.043Z" fill="#42E8E0"/>
<path d="M375.599 183.348L376.904 182.532L377.067 183.511L375.762 184.246L375.599 183.348Z" fill="#42E8E0"/>
<path d="M369.644 181.961L371.846 180.656L372.009 181.635L369.807 182.94L369.644 181.961Z" fill="#42E8E0"/>
<path d="M364.505 184.898L368.828 182.451L368.991 183.43L364.668 185.877L364.505 184.898Z" fill="#42E8E0"/>
<path d="M370.623 169.399L374.946 166.87L375.028 167.849L370.786 170.296L370.623 169.399Z" fill="#42E8E0"/>
<path d="M368.42 170.623L369.807 169.807L369.97 170.786L368.583 171.602L368.42 170.623Z" fill="#42E8E0"/>
<path d="M371.356 173.723L375.598 171.275L375.761 172.254L371.52 174.701L371.356 173.723Z" fill="#42E8E0"/>
<path d="M369.154 175.028L370.541 174.212L370.704 175.191L369.317 176.007L369.154 175.028Z" fill="#42E8E0"/>
<path d="M367.523 150.392L359.447 155.042L359.284 154.145L367.36 149.495L367.523 150.392Z" fill="#42E8E0"/>
<path d="M370.296 148.761L368.338 149.903L368.175 149.006L370.133 147.864L370.296 148.761Z" fill="#42E8E0"/>
<path d="M384.408 147.864L376.414 152.514L376.251 151.535L384.245 146.885L384.408 147.864Z" fill="#42E8E0"/>
<path d="M387.263 146.232L385.306 147.374L385.143 146.395L387.1 145.253L387.263 146.232Z" fill="#42E8E0"/>
<path d="M361.976 156.021L359.855 157.245L359.692 156.266L361.812 155.042L361.976 156.021Z" fill="#42E8E0"/>
<path d="M375.272 153.166L373.07 154.39L372.906 153.492L375.109 152.187L375.272 153.166Z" fill="#42E8E0"/>
<path d="M367.115 153.084L362.873 155.532L362.71 154.553L366.952 152.105L367.115 153.084Z" fill="#42E8E0"/>
<path d="M369.317 151.779L367.931 152.595L367.767 151.616L369.154 150.801L369.317 151.779Z" fill="#42E8E0"/>
<path d="M374.456 148.842L370.215 151.29L370.051 150.311L374.293 147.864L374.456 148.842Z" fill="#42E8E0"/>
<path d="M376.659 147.537L375.272 148.353L375.109 147.374L376.496 146.559L376.659 147.537Z" fill="#42E8E0"/>
<path d="M374.864 150.964L372.662 152.187L372.499 151.29L374.701 149.985L374.864 150.964Z" fill="#42E8E0"/>
<path d="M380.003 148.027L375.762 150.474L375.599 149.496L379.84 147.048L380.003 148.027Z" fill="#42E8E0"/>
<path d="M382.206 146.722L380.819 147.538L380.656 146.559L382.043 145.824L382.206 146.722Z" fill="#42E8E0"/>
<path d="M364.668 156.837L360.181 159.447L360.018 158.468L364.504 155.939L364.668 156.837Z" fill="#42E8E0"/>
<path d="M368.746 154.553L365.483 156.429L365.32 155.45L368.583 153.574L368.746 154.553Z" fill="#42E8E0"/>
<path d="M371.765 152.758L369.562 154.064L369.399 153.085L371.601 151.861L371.765 152.758Z" fill="#42E8E0"/>
<path d="M392.892 142.97L388.405 145.58L388.242 144.601L392.729 142.072L392.892 142.97Z" fill="#42E8E0"/>
<path d="M396.889 140.685L393.708 142.48L393.545 141.582L396.726 139.706L396.889 140.685Z" fill="#42E8E0"/>
<path d="M399.907 138.891L397.786 140.196L397.623 139.217L399.744 137.912L399.907 138.891Z" fill="#42E8E0"/>
<path d="M391.098 171.928L395.584 169.399L395.747 170.378L391.261 172.907L391.098 171.928Z" fill="#42E8E0"/>
<path d="M387.019 174.294L390.282 172.418L390.445 173.397L387.182 175.273L387.019 174.294Z" fill="#42E8E0"/>
<path d="M384 176.088L386.203 174.783L386.366 175.762L384.164 176.985L384 176.088Z" fill="#42E8E0"/>
<path d="M389.629 175.191L394.116 172.662L394.279 173.641L389.792 176.17L389.629 175.191Z" fill="#42E8E0"/>
<path d="M385.55 177.557L388.813 175.68L388.977 176.659L385.714 178.535L385.55 177.557Z" fill="#42E8E0"/>
<path d="M382.532 179.351L384.735 178.046L384.898 179.025L382.695 180.248L382.532 179.351Z" fill="#42E8E0"/>
<path d="M371.683 171.194L373.151 170.297L373.314 171.276L371.846 172.091L371.683 171.194Z" fill="#42E8E0"/>
<path d="M368.828 172.825L370.786 171.683L370.949 172.58L368.991 173.804L368.828 172.825Z" fill="#42E8E0"/>
<path d="M365.076 159.039L360.589 161.65L360.426 160.671L364.912 158.06L365.076 159.039Z" fill="#42E8E0"/>
<path d="M369.073 156.673L365.891 158.55L365.728 157.571L368.991 155.776L369.073 156.673Z" fill="#42E8E0"/>
<path d="M372.172 154.961L369.97 156.184L369.807 155.287L372.009 153.982L372.172 154.961Z" fill="#42E8E0"/>
<path d="M362.465 162.955L360.997 163.852L360.834 162.873L362.302 161.976L362.465 162.955Z" fill="#42E8E0"/>
<path d="M365.32 161.323L363.281 162.465L363.118 161.487L365.157 160.344L365.32 161.323Z" fill="#42E8E0"/>
<path d="M369.317 158.958L366.136 160.834L365.973 159.855L369.154 157.979L369.317 158.958Z" fill="#42E8E0"/>
<path d="M373.722 177.23L375.191 176.333L375.354 177.312L373.885 178.209L373.722 177.23Z" fill="#42E8E0"/>
<path d="M370.867 178.862L372.825 177.72L372.988 178.699L371.03 179.841L370.867 178.862Z" fill="#42E8E0"/>
<path d="M366.788 181.227L370.051 179.351L370.215 180.33L366.952 182.125L366.788 181.227Z" fill="#42E8E0"/>
<path d="M376.006 173.641L379.188 171.765L379.351 172.744L376.169 174.62L376.006 173.641Z" fill="#42E8E0"/>
<path d="M370.704 176.496L375.027 174.049L375.191 174.946L370.867 177.475L370.704 176.496Z" fill="#42E8E0"/>
<path d="M368.583 177.801L369.888 176.985L370.051 177.964L368.746 178.698L368.583 177.801Z" fill="#42E8E0"/>
<path d="M366.462 179.025L367.767 178.209L367.93 179.188L366.625 179.922L366.462 179.025Z" fill="#42E8E0"/>
<path d="M366.707 166.626L371.03 164.178L371.193 165.076L366.87 167.605L366.707 166.626Z" fill="#42E8E0"/>
<path d="M364.504 167.85L365.891 167.115L366.054 168.094L364.667 168.829L364.504 167.85Z" fill="#42E8E0"/>
<path d="M367.033 164.015L368.501 163.2L368.664 164.097L367.196 164.994L367.033 164.015Z" fill="#42E8E0"/>
<path d="M372.335 165.81L373.804 164.913L373.967 165.892L372.498 166.789L372.335 165.81Z" fill="#42E8E0"/>
<path d="M374.456 164.586L378.127 162.465L378.29 163.444L374.619 165.484L374.456 164.586Z" fill="#42E8E0"/>
<path d="M378.698 162.139L380.9 160.834L381.064 161.813L378.861 163.036L378.698 162.139Z" fill="#42E8E0"/>
<path d="M364.178 165.647L366.217 164.505L366.38 165.484L364.341 166.626L364.178 165.647Z" fill="#42E8E0"/>
<path d="M364.015 163.444L365.483 162.547L365.646 163.526L364.178 164.423L364.015 163.444Z" fill="#42E8E0"/>
<path d="M361.16 165.076L363.199 163.934L363.362 164.912L361.323 166.055L361.16 165.076Z" fill="#42E8E0"/>
<path d="M370.133 167.034L371.52 166.3L371.683 167.197L370.296 168.013L370.133 167.034Z" fill="#42E8E0"/>
<path d="M368.012 168.257L369.399 167.523L369.562 168.421L368.175 169.236L368.012 168.257Z" fill="#42E8E0"/>
<path d="M378.453 179.27L383.022 176.659L383.185 177.556L378.617 180.248L378.453 179.27Z" fill="#42E8E0"/>
<path d="M373.233 182.288L377.556 179.759L377.719 180.738L373.396 183.267L373.233 182.288Z" fill="#42E8E0"/>
<path d="M371.03 183.512L372.417 182.777L372.58 183.756L371.194 184.49L371.03 183.512Z" fill="#42E8E0"/>
<path d="M368.991 184.735L370.296 184.001L370.459 184.898L369.154 185.714L368.991 184.735Z" fill="#42E8E0"/>
<path d="M367.849 185.388L364.912 187.101L365.075 188.08L368.012 186.367L367.849 185.388Z" fill="#42E8E0"/>
<g opacity="0.8">
<path d="M251.28 247.139C250.138 247.139 248.996 246.812 248.017 246.241L184.39 209.533C183.737 209.207 183.411 208.554 183.411 207.82C183.411 207.086 183.819 206.433 184.39 206.107L224.443 182.94L224.687 183.103L291.333 221.606C291.986 221.932 292.312 222.585 292.312 223.319C292.312 224.053 291.904 224.706 291.333 225.032L254.543 246.323C253.564 246.812 252.422 247.139 251.28 247.139ZM248.507 245.426C250.22 246.404 252.341 246.404 254.054 245.426L290.844 224.135C291.17 223.972 291.333 223.645 291.333 223.238C291.333 222.911 291.17 222.585 290.844 222.422L224.443 184.082H224.361L184.798 206.923C184.472 207.086 184.308 207.412 184.308 207.82C184.308 208.146 184.472 208.473 184.798 208.636L248.507 245.426Z" fill="url(#paint22_linear_38_1003)"/>
</g>
<path d="M224.442 168.42L233.334 115.887L232.6 115.561L233.66 114.908C233.905 114.745 234.15 114.745 234.476 114.99L305.282 155.858C305.853 156.184 306.342 157.082 306.179 157.653L297.287 210.675C297.206 210.92 297.124 211.165 296.88 211.247L295.819 211.818L295.656 210.839H295.738L225.34 170.215C224.769 169.889 224.361 168.991 224.442 168.42Z" fill="url(#paint23_linear_38_1003)"/>
<path d="M304.874 157.326L306.016 156.837C306.179 157.163 306.179 157.489 306.179 157.734L297.288 210.757C297.206 211.002 297.124 211.246 296.88 211.328L295.819 211.899L295.656 210.92H295.738L292.148 208.881L304.874 157.326Z" fill="url(#paint24_linear_38_1003)"/>
<path d="M224.279 170.867L295.085 211.736C295.656 212.062 296.064 211.899 296.227 211.328L305.119 158.305C305.2 157.734 304.792 156.837 304.221 156.51L233.415 115.642C232.844 115.316 232.437 115.479 232.273 116.05L223.382 169.073C223.219 169.644 223.627 170.46 224.279 170.867Z" fill="#24126A"/>
<g opacity="0.51">
<path d="M234.313 118.987L302.59 158.387L294.106 208.31L225.911 168.91L234.313 118.987Z" fill="#453C9E"/>
</g>
<path d="M179.74 195.911L183.574 197.95L222.322 175.599C222.974 175.191 224.116 175.272 224.85 175.68L291.659 214.265C292.312 213.938 295.248 212.47 295.248 212.47L293.862 216.141C293.78 216.304 293.699 216.467 293.454 216.549L252.667 240.205C252.014 240.613 250.872 240.531 250.138 240.123L181.698 200.56C181.372 200.397 181.209 200.152 181.127 199.989L179.74 195.911Z" fill="url(#paint25_linear_38_1003)"/>
<path d="M180.311 196.563L250.383 237.024C251.117 237.432 252.341 237.513 252.993 237.105L294.841 212.96C295.493 212.552 295.412 211.899 294.677 211.491L224.606 171.031C223.872 170.623 222.648 170.541 221.995 170.949L180.148 195.095C179.495 195.421 179.577 196.074 180.311 196.563Z" fill="url(#paint26_linear_38_1003)"/>
<path d="M180.311 196.155L250.383 236.616C251.117 237.024 252.341 237.105 252.993 236.697L294.841 212.552C295.085 212.388 295.167 212.307 295.248 212.062C295.33 212.388 295.248 212.715 294.841 212.878L252.993 237.024C252.341 237.432 251.199 237.35 250.383 236.942L180.311 196.482C179.822 196.155 179.577 195.747 179.74 195.421C179.822 195.747 179.985 195.992 180.311 196.155Z" fill="white"/>
<path d="M271.592 228.295V227.561C271.592 227.48 271.511 227.48 271.511 227.48L268.819 229.03C268.737 229.03 268.737 229.111 268.737 229.193V229.927C268.737 230.009 268.819 230.009 268.819 230.009L271.511 228.459C271.511 228.459 271.592 228.377 271.592 228.295Z" fill="#2842A2"/>
<path d="M267.513 230.579V229.845C267.513 229.764 267.432 229.764 267.432 229.764L264.74 231.314C264.658 231.314 264.658 231.395 264.658 231.477V232.211C264.658 232.292 264.74 232.292 264.74 232.292L267.432 230.743C267.432 230.743 267.513 230.661 267.513 230.579Z" fill="#2842A2"/>
<path d="M283.91 210.757L225.666 177.149C225.258 176.904 224.769 176.904 224.443 177.149L203.723 189.059C203.397 189.222 203.397 189.63 203.723 189.793L261.967 223.401C262.374 223.646 262.864 223.646 263.19 223.401L283.991 211.41C284.236 211.328 284.236 210.92 283.91 210.757Z" fill="#ADB1F2"/>
<path d="M283.91 211.491L283.665 211.573L225.585 178.046C225.177 177.801 224.687 177.801 224.361 178.046L203.804 189.956L203.56 189.874C203.233 189.711 203.233 189.303 203.56 189.14L224.279 177.149C224.687 176.904 225.177 176.904 225.503 177.149L283.746 210.757C284.236 210.92 284.236 211.328 283.91 211.491Z" fill="#9198DB"/>
<path d="M227.705 182.94L277.057 211.41L279.178 210.023L229.989 181.635L227.705 182.94Z" fill="#24126A"/>
<path d="M224.524 187.427L269.308 213.286L270.858 211.573L226.808 186.203L224.524 187.427Z" fill="#24126A"/>
<path d="M213.757 185.388L269.634 217.691L271.919 216.386L216.041 184.083L213.757 185.388Z" fill="#24126A"/>
<path d="M210.167 187.427L266.045 219.73L268.329 218.425L212.451 186.203L210.167 187.427Z" fill="#24126A"/>
<path d="M206.578 189.548L262.456 221.769L264.74 220.464L208.862 188.243L206.578 189.548Z" fill="#24126A"/>
<path d="M276.568 211.083L278.77 212.389L281.055 211.083L278.77 209.778L276.568 211.083Z" fill="#24126A"/>
<path d="M268.574 212.878L273.224 215.57L275.508 214.265L270.858 211.573L268.574 212.878Z" fill="#24126A"/>
<path d="M223.464 218.833L207.72 209.778C207.067 209.452 207.067 208.881 207.72 208.473L218.488 202.273C219.14 201.947 220.119 201.947 220.69 202.273L236.434 211.328C237.087 211.654 237.087 212.225 236.434 212.633L225.666 218.833C225.095 219.241 224.035 219.241 223.464 218.833Z" fill="url(#paint27_linear_38_1003)"/>
<path d="M236.434 211.899L220.69 202.845C220.038 202.518 219.059 202.518 218.488 202.845L207.72 209.044C207.557 209.126 207.394 209.289 207.312 209.452C207.149 209.126 207.312 208.799 207.72 208.555L218.488 202.355C219.14 202.029 220.119 202.029 220.69 202.355L236.434 211.41C236.842 211.654 237.005 211.981 236.842 212.307C236.76 212.144 236.597 211.981 236.434 211.899Z" fill="#9198DB"/>
<g opacity="0.11">
<path d="M224.524 170.949L294.596 211.41C295.33 211.818 296.554 211.899 297.206 211.491L339.053 187.345C339.706 186.938 339.624 186.285 338.89 185.877L268.819 145.417C268.084 145.009 266.861 144.927 266.208 145.335L224.361 169.481C223.627 169.807 223.708 170.46 224.524 170.949Z" fill="url(#paint28_linear_38_1003)"/>
<path d="M294.841 178.209L279.097 169.155C278.444 168.828 278.444 168.257 279.097 167.849L289.865 161.65C290.517 161.323 291.496 161.323 292.067 161.65L307.811 170.704C308.463 171.031 308.463 171.602 307.811 172.01L297.043 178.209C296.39 178.535 295.412 178.535 294.841 178.209Z" fill="url(#paint29_linear_38_1003)"/>
<path d="M307.729 171.194L291.985 162.139C291.333 161.813 290.354 161.813 289.783 162.139L279.015 168.339C278.852 168.42 278.689 168.583 278.607 168.747C278.444 168.42 278.607 168.094 279.015 167.849L289.783 161.65C290.435 161.323 291.414 161.323 291.985 161.65L307.729 170.704C308.137 170.949 308.3 171.275 308.137 171.602C308.055 171.439 307.974 171.357 307.729 171.194Z" fill="#9198DB"/>
<path d="M314.663 192.321L256.419 158.713C256.012 158.468 255.522 158.468 255.196 158.713L234.476 170.704C234.15 170.867 234.15 171.275 234.476 171.438L292.638 205.128C293.046 205.373 293.535 205.373 293.862 205.128L314.663 193.137C314.989 192.974 314.989 192.566 314.663 192.321Z" fill="#ADB1F2"/>
<path d="M314.663 193.137L314.418 193.219L256.338 159.692C255.93 159.447 255.441 159.447 255.114 159.692L234.558 171.602L234.313 171.52C233.987 171.357 233.987 170.949 234.313 170.786L255.033 158.795C255.441 158.55 255.93 158.55 256.256 158.795L314.5 192.403C314.989 192.566 314.989 192.974 314.663 193.137Z" fill="#9198DB"/>
<path d="M239.86 169.888L290.599 199.173L288.56 200.397L237.821 171.112L239.86 169.888Z" fill="#24126A"/>
<path d="M245.163 166.789L293.454 194.687L291.415 195.829L243.205 168.012L245.163 166.789Z" fill="#24126A"/>
<path d="M297.043 196.726L301.53 199.337L299.491 200.479L295.004 197.95L297.043 196.726Z" fill="#24126A"/>
<path d="M293.046 200.642L296.227 202.436L294.188 203.578L291.007 201.784L293.046 200.642Z" fill="#24126A"/>
<path d="M248.507 164.912L304.874 197.379L302.916 198.602L246.549 166.054L248.507 164.912Z" fill="#24126A"/>
<path d="M251.933 162.955L308.219 195.502L306.261 196.644L249.894 164.097L251.933 162.955Z" fill="#24126A"/>
<path d="M255.277 160.997L311.563 193.545L309.605 194.687L253.238 162.221L255.277 160.997Z" fill="#24126A"/>
</g>
<path d="M249.567 137.504L255.114 140.685L255.277 139.707L249.73 136.525L249.567 137.504Z" fill="#42E8E0"/>
<path d="M256.011 141.175L259.03 142.969L259.193 141.99L256.175 140.196L256.011 141.175Z" fill="#42E8E0"/>
<path d="M263.68 145.661L265.882 146.885L266.045 145.906L263.843 144.682L263.68 145.661Z" fill="#42E8E0"/>
<path d="M262.13 144.682L262.864 145.172L263.027 144.193L262.293 143.785L262.13 144.682Z" fill="#42E8E0"/>
<path d="M259.927 143.459L261.232 144.193L261.396 143.296L260.09 142.48L259.927 143.459Z" fill="#42E8E0"/>
<path d="M253.972 144.845L256.093 146.069L256.256 145.09L254.135 143.866L253.972 144.845Z" fill="#42E8E0"/>
<path d="M248.833 141.909L253.075 144.356L253.238 143.377L248.996 140.93L248.833 141.909Z" fill="#42E8E0"/>
<path d="M254.951 157.408L259.193 159.855L259.356 158.958L255.114 156.429L254.951 157.408Z" fill="#42E8E0"/>
<path d="M252.749 156.184L254.135 156.918L254.299 155.939L252.912 155.205L252.749 156.184Z" fill="#42E8E0"/>
<path d="M255.685 153.003L259.927 155.532L260.09 154.553L255.848 152.106L255.685 153.003Z" fill="#42E8E0"/>
<path d="M253.483 151.779L254.788 152.514L254.951 151.616L253.646 150.801L253.483 151.779Z" fill="#42E8E0"/>
<path d="M251.77 176.333L243.776 171.683L243.612 172.662L251.607 177.312L251.77 176.333Z" fill="#42E8E0"/>
<path d="M254.625 177.965L252.667 176.823L252.504 177.801L254.462 178.943L254.625 177.965Z" fill="#42E8E0"/>
<path d="M268.737 178.943L260.743 174.294L260.58 175.273L268.574 179.841L268.737 178.943Z" fill="#42E8E0"/>
<path d="M271.592 180.575L269.634 179.433L269.471 180.33L271.429 181.554L271.592 180.575Z" fill="#42E8E0"/>
<path d="M246.304 170.786L244.102 169.481L243.939 170.46L246.141 171.765L246.304 170.786Z" fill="#42E8E0"/>
<path d="M259.601 173.641L257.398 172.336L257.235 173.315L259.438 174.538L259.601 173.641Z" fill="#42E8E0"/>
<path d="M251.443 173.723L247.202 171.276L247.038 172.255L251.28 174.702L251.443 173.723Z" fill="#42E8E0"/>
<path d="M253.646 175.028L252.259 174.212L252.096 175.191L253.483 175.925L253.646 175.028Z" fill="#42E8E0"/>
<path d="M258.785 177.965L254.543 175.517L254.38 176.496L258.622 178.943L258.785 177.965Z" fill="#42E8E0"/>
<path d="M260.988 179.27L259.601 178.454L259.438 179.433L260.825 180.167L260.988 179.27Z" fill="#42E8E0"/>
<path d="M259.193 175.844L256.99 174.538L256.827 175.517L259.03 176.741L259.193 175.844Z" fill="#42E8E0"/>
<path d="M264.332 178.78L260.009 176.333L259.846 177.23L264.169 179.677L264.332 178.78Z" fill="#42E8E0"/>
<path d="M266.535 180.004L265.148 179.27L264.985 180.167L266.371 180.983L266.535 180.004Z" fill="#42E8E0"/>
<path d="M248.996 169.889L244.51 167.36L244.347 168.257L248.833 170.868L248.996 169.889Z" fill="#42E8E0"/>
<path d="M252.993 172.254L249.812 170.378L249.649 171.357L252.83 173.233L252.993 172.254Z" fill="#42E8E0"/>
<path d="M256.093 173.967L253.891 172.744L253.728 173.723L255.93 174.946L256.093 173.967Z" fill="#42E8E0"/>
<path d="M277.139 183.756L272.734 181.228L272.571 182.125L276.976 184.735L277.139 183.756Z" fill="#42E8E0"/>
<path d="M281.218 186.122L278.036 184.246L277.873 185.224L281.055 187.101L281.218 186.122Z" fill="#42E8E0"/>
<path d="M284.236 187.835L282.115 186.611L281.952 187.59L284.073 188.814L284.236 187.835Z" fill="#42E8E0"/>
<path d="M275.426 154.798L279.913 157.408L280.076 156.429L275.589 153.9L275.426 154.798Z" fill="#42E8E0"/>
<path d="M271.348 152.432L274.61 154.308L274.774 153.411L271.511 151.535L271.348 152.432Z" fill="#42E8E0"/>
<path d="M268.329 150.719L270.532 151.943L270.695 151.045L268.492 149.74L268.329 150.719Z" fill="#42E8E0"/>
<path d="M273.958 151.535L278.444 154.145L278.607 153.166L274.121 150.556L273.958 151.535Z" fill="#42E8E0"/>
<path d="M269.879 149.169L273.142 151.045L273.305 150.066L270.042 148.271L269.879 149.169Z" fill="#42E8E0"/>
<path d="M266.861 147.456L269.063 148.679L269.226 147.782L267.024 146.477L266.861 147.456Z" fill="#42E8E0"/>
<path d="M255.93 155.613L257.48 156.51L257.643 155.532L256.093 154.634L255.93 155.613Z" fill="#42E8E0"/>
<path d="M253.157 153.982L255.114 155.124L255.278 154.145L253.32 153.003L253.157 153.982Z" fill="#42E8E0"/>
<path d="M249.404 167.686L244.918 165.157L244.755 166.136L249.241 168.665L249.404 167.686Z" fill="#42E8E0"/>
<path d="M253.401 170.052L250.22 168.176L250.057 169.155L253.238 171.031L253.401 170.052Z" fill="#42E8E0"/>
<path d="M256.419 171.846L254.299 170.541L254.135 171.52L256.256 172.743L256.419 171.846Z" fill="#42E8E0"/>
<path d="M246.794 163.852L245.244 162.955L245.081 163.933L246.63 164.749L246.794 163.852Z" fill="#42E8E0"/>
<path d="M249.649 165.484L247.61 164.342L247.446 165.239L249.486 166.381L249.649 165.484Z" fill="#42E8E0"/>
<path d="M253.646 167.768L250.464 165.973L250.301 166.871L253.483 168.747L253.646 167.768Z" fill="#42E8E0"/>
<path d="M257.969 149.577L259.519 150.393L259.682 149.495L258.133 148.598L257.969 149.577Z" fill="#42E8E0"/>
<path d="M255.196 147.945L257.153 149.087L257.317 148.109L255.359 146.967L255.196 147.945Z" fill="#42E8E0"/>
<path d="M251.117 145.58L254.298 147.456L254.462 146.477L251.28 144.601L251.117 145.58Z" fill="#42E8E0"/>
<path d="M260.335 153.085L263.516 154.961L263.679 153.982L260.498 152.187L260.335 153.085Z" fill="#42E8E0"/>
<path d="M255.033 150.229L259.356 152.758L259.519 151.779L255.196 149.332L255.033 150.229Z" fill="#42E8E0"/>
<path d="M252.83 149.006L254.217 149.74L254.38 148.843L252.993 148.027L252.83 149.006Z" fill="#42E8E0"/>
<path d="M250.791 147.782L252.096 148.598L252.259 147.619L250.954 146.803L250.791 147.782Z" fill="#42E8E0"/>
<path d="M251.036 160.182L255.277 162.629L255.441 161.65L251.199 159.203L251.036 160.182Z" fill="#42E8E0"/>
<path d="M248.833 158.876L250.22 159.692L250.383 158.713L248.996 157.897L248.833 158.876Z" fill="#42E8E0"/>
<path d="M251.362 162.71L252.83 163.608L252.993 162.629L251.525 161.813L251.362 162.71Z" fill="#42E8E0"/>
<path d="M256.664 160.997L258.132 161.813L258.295 160.916L256.827 160.019L256.664 160.997Z" fill="#42E8E0"/>
<path d="M258.785 162.221L262.374 164.26L262.537 163.363L258.948 161.242L258.785 162.221Z" fill="#42E8E0"/>
<path d="M263.027 164.668L265.229 165.892L265.392 164.913L263.19 163.689L263.027 164.668Z" fill="#42E8E0"/>
<path d="M248.507 161.079L250.464 162.221L250.628 161.323L248.67 160.1L248.507 161.079Z" fill="#42E8E0"/>
<path d="M248.344 163.363L249.812 164.178L249.975 163.281L248.507 162.384L248.344 163.363Z" fill="#42E8E0"/>
<path d="M245.488 161.731L247.446 162.873L247.609 161.894L245.652 160.752L245.488 161.731Z" fill="#42E8E0"/>
<path d="M254.462 159.692L255.848 160.508L256.011 159.529L254.625 158.795L254.462 159.692Z" fill="#42E8E0"/>
<path d="M252.341 158.468L253.727 159.284L253.891 158.305L252.504 157.571L252.341 158.468Z" fill="#42E8E0"/>
<path d="M262.782 147.456L267.35 150.148L267.513 149.169L262.945 146.559L262.782 147.456Z" fill="#42E8E0"/>
<path d="M257.561 144.519L261.885 146.966L262.048 146.069L257.725 143.54L257.561 144.519Z" fill="#42E8E0"/>
<path d="M255.359 143.214L256.746 144.03L256.909 143.051L255.522 142.317L255.359 143.214Z" fill="#42E8E0"/>
<path d="M253.32 141.991L254.625 142.807L254.788 141.828L253.401 141.094L253.32 141.991Z" fill="#42E8E0"/>
<path d="M252.096 141.338L249.241 139.706L249.404 138.728L252.259 140.359L252.096 141.338Z" fill="#42E8E0"/>
<path d="M222.893 180.167L225.095 181.39L227.379 180.167L225.095 178.862L222.893 180.167Z" fill="#24126A"/>
<path d="M217.346 183.348L221.995 186.04L224.279 184.735L219.63 182.043L217.346 183.348Z" fill="#24126A"/>
<path opacity="0.5" d="M368.175 95.4937V-40H273.958V95.4937L321.026 122.658L368.175 95.4937Z" fill="url(#paint30_linear_38_1003)"/>
</g>
</g>
<defs>
<filter id="filter0_d_38_1003" x="0" y="0" width="500" height="290" filterUnits="userSpaceOnUse" color-interpolation-filters="sRGB">
<feFlood flood-opacity="0" result="BackgroundImageFix"/>
<feColorMatrix in="SourceAlpha" type="matrix" values="0 0 0 0 0 0 0 0 0 0 0 0 0 0 0 0 0 0 127 0" result="hardAlpha"/>
<feOffset dy="4"/>
<feGaussianBlur stdDeviation="10"/>
<feComposite in2="hardAlpha" operator="out"/>
<feColorMatrix type="matrix" values="0 0 0 0 0 0 0 0 0 0.027451 0 0 0 0 0.368627 0 0 0 0.1 0"/>
<feBlend mode="normal" in2="BackgroundImageFix" result="effect1_dropShadow_38_1003"/>
<feBlend mode="normal" in="SourceGraphic" in2="effect1_dropShadow_38_1003" result="shape"/>
</filter>
<radialGradient id="paint0_radial_38_1003" cx="0" cy="0" r="1" gradientUnits="userSpaceOnUse" gradientTransform="translate(297.022 150.583) rotate(180) scale(243.709 198.676)">
<stop stop-color="#42E8E0"/>
<stop offset="0.0311047" stop-color="#42E8E0"/>
<stop offset="0.1763" stop-color="#308BA7"/>
<stop offset="0.3263" stop-color="#265587"/>
<stop offset="0.4803" stop-color="#201A6C"/>
<stop offset="0.6397" stop-color="#160E5A"/>
<stop offset="0.8079" stop-color="#11074F"/>
<stop offset="1" stop-color="#0F054C"/>
</radialGradient>
<radialGradient id="paint1_radial_38_1003" cx="0" cy="0" r="1" gradientUnits="userSpaceOnUse" gradientTransform="translate(490.533 25.6298) rotate(180) scale(358.736 360.311)">
<stop stop-color="#FF2C9C"/>
<stop offset="0.0300632" stop-color="#F62F9F"/>
<stop offset="0.2023" stop-color="#C63EB0"/>
<stop offset="0.3737" stop-color="#9E4BBE"/>
<stop offset="0.5413" stop-color="#7F54C9"/>
<stop offset="0.7039" stop-color="#695BD1"/>
<stop offset="0.8594" stop-color="#5C60D5"/>
<stop offset="1" stop-color="#5761D7"/>
</radialGradient>
<linearGradient id="paint2_linear_38_1003" x1="179.716" y1="118.67" x2="293.255" y2="118.67" gradientUnits="userSpaceOnUse">
<stop stop-color="#5761D7"/>
<stop offset="0.1779" stop-color="#5C66D9"/>
<stop offset="0.3876" stop-color="#6A73DF"/>
<stop offset="0.6134" stop-color="#8289E8"/>
<stop offset="0.849" stop-color="#A3A7F5"/>
<stop offset="1" stop-color="#BCBEFF"/>
</linearGradient>
<linearGradient id="paint3_linear_38_1003" x1="217.865" y1="114.884" x2="331.464" y2="114.884" gradientUnits="userSpaceOnUse">
<stop stop-color="#C0BFF6"/>
<stop offset="0.2938" stop-color="#C5C4F7"/>
<stop offset="0.6399" stop-color="#D3D2F9"/>
<stop offset="1" stop-color="#E9E9FD"/>
</linearGradient>
<linearGradient id="paint4_linear_38_1003" x1="210.495" y1="106.143" x2="239.573" y2="106.143" gradientUnits="userSpaceOnUse">
<stop stop-color="#C0BFF6"/>
<stop offset="0.2938" stop-color="#C5C4F7"/>
<stop offset="0.6399" stop-color="#D3D2F9"/>
<stop offset="1" stop-color="#E9E9FD"/>
</linearGradient>
<linearGradient id="paint5_linear_38_1003" x1="212.768" y1="100.903" x2="293.16" y2="100.903" gradientUnits="userSpaceOnUse">
<stop stop-color="#C0BFF6"/>
<stop offset="0.2938" stop-color="#C5C4F7"/>
<stop offset="0.6399" stop-color="#D3D2F9"/>
<stop offset="1" stop-color="#E9E9FD"/>
</linearGradient>
<linearGradient id="paint6_linear_38_1003" x1="212.769" y1="121.52" x2="226.573" y2="121.52" gradientUnits="userSpaceOnUse">
<stop stop-color="#5761D7"/>
<stop offset="0.1779" stop-color="#5C66D9"/>
<stop offset="0.3876" stop-color="#6A73DF"/>
<stop offset="0.6134" stop-color="#8289E8"/>
<stop offset="0.849" stop-color="#A3A7F5"/>
<stop offset="1" stop-color="#BCBEFF"/>
</linearGradient>
<linearGradient id="paint7_linear_38_1003" x1="462.403" y1="118.67" x2="348.865" y2="118.67" gradientUnits="userSpaceOnUse">
<stop stop-color="#5761D7"/>
<stop offset="0.1779" stop-color="#5C66D9"/>
<stop offset="0.3876" stop-color="#6A73DF"/>
<stop offset="0.6134" stop-color="#8289E8"/>
<stop offset="0.849" stop-color="#A3A7F5"/>
<stop offset="1" stop-color="#BCBEFF"/>
</linearGradient>
<linearGradient id="paint8_linear_38_1003" x1="424.254" y1="114.884" x2="310.655" y2="114.884" gradientUnits="userSpaceOnUse">
<stop stop-color="#C0BFF6"/>
<stop offset="0.2938" stop-color="#C5C4F7"/>
<stop offset="0.6399" stop-color="#D3D2F9"/>
<stop offset="1" stop-color="#E9E9FD"/>
</linearGradient>
<linearGradient id="paint9_linear_38_1003" x1="431.625" y1="106.143" x2="402.547" y2="106.143" gradientUnits="userSpaceOnUse">
<stop stop-color="#C0BFF6"/>
<stop offset="0.2938" stop-color="#C5C4F7"/>
<stop offset="0.6399" stop-color="#D3D2F9"/>
<stop offset="1" stop-color="#E9E9FD"/>
</linearGradient>
<linearGradient id="paint10_linear_38_1003" x1="429.351" y1="100.903" x2="348.96" y2="100.903" gradientUnits="userSpaceOnUse">
<stop stop-color="#C0BFF6"/>
<stop offset="0.2938" stop-color="#C5C4F7"/>
<stop offset="0.6399" stop-color="#D3D2F9"/>
<stop offset="1" stop-color="#E9E9FD"/>
</linearGradient>
<linearGradient id="paint11_linear_38_1003" x1="429.35" y1="121.52" x2="415.546" y2="121.52" gradientUnits="userSpaceOnUse">
<stop stop-color="#5761D7"/>
<stop offset="0.1779" stop-color="#5C66D9"/>
<stop offset="0.3876" stop-color="#6A73DF"/>
<stop offset="0.6134" stop-color="#8289E8"/>
<stop offset="0.849" stop-color="#A3A7F5"/>
<stop offset="1" stop-color="#BCBEFF"/>
</linearGradient>
<linearGradient id="paint12_linear_38_1003" x1="353.458" y1="177.716" x2="353.458" y2="133.437" gradientUnits="userSpaceOnUse">
<stop stop-color="#C0BFF6"/>
<stop offset="0.2938" stop-color="#C5C4F7"/>
<stop offset="0.6399" stop-color="#D3D2F9"/>
<stop offset="1" stop-color="#E9E9FD"/>
</linearGradient>
<linearGradient id="paint13_linear_38_1003" x1="353.458" y1="141" x2="353.458" y2="96.721" gradientUnits="userSpaceOnUse">
<stop stop-color="#C0BFF6"/>
<stop offset="0.2938" stop-color="#C5C4F7"/>
<stop offset="0.6399" stop-color="#D3D2F9"/>
<stop offset="1" stop-color="#E9E9FD"/>
</linearGradient>
<radialGradient id="paint14_radial_38_1003" cx="0" cy="0" r="1" gradientUnits="userSpaceOnUse" gradientTransform="translate(341.685 93.0728) scale(1.67993 1.67993)">
<stop stop-color="#FF2C9C"/>
<stop offset="0.0300632" stop-color="#F62F9F"/>
<stop offset="0.2023" stop-color="#C63EB0"/>
<stop offset="0.3737" stop-color="#9E4BBE"/>
<stop offset="0.5413" stop-color="#7F54C9"/>
<stop offset="0.7039" stop-color="#695BD1"/>
<stop offset="0.8594" stop-color="#5C60D5"/>
<stop offset="1" stop-color="#5761D7"/>
</radialGradient>
<linearGradient id="paint15_linear_38_1003" x1="335.883" y1="163.308" x2="417.696" y2="163.308" gradientUnits="userSpaceOnUse">
<stop stop-color="#C0BFF6"/>
<stop offset="0.2938" stop-color="#C5C4F7"/>
<stop offset="0.6399" stop-color="#D3D2F9"/>
<stop offset="1" stop-color="#E9E9FD"/>
</linearGradient>
<linearGradient id="paint16_linear_38_1003" x1="335.884" y1="184.29" x2="349.932" y2="184.29" gradientUnits="userSpaceOnUse">
<stop stop-color="#5761D7"/>
<stop offset="0.1779" stop-color="#5C66D9"/>
<stop offset="0.3876" stop-color="#6A73DF"/>
<stop offset="0.6134" stop-color="#8289E8"/>
<stop offset="0.849" stop-color="#A3A7F5"/>
<stop offset="1" stop-color="#BCBEFF"/>
</linearGradient>
<linearGradient id="paint17_linear_38_1003" x1="346.844" y1="207.875" x2="462.39" y2="207.875" gradientUnits="userSpaceOnUse">
<stop stop-color="#5761D7"/>
<stop offset="0.1779" stop-color="#5C66D9"/>
<stop offset="0.3876" stop-color="#6A73DF"/>
<stop offset="0.6134" stop-color="#8289E8"/>
<stop offset="0.849" stop-color="#A3A7F5"/>
<stop offset="1" stop-color="#BCBEFF"/>
</linearGradient>
<linearGradient id="paint18_linear_38_1003" x1="385.668" y1="204.022" x2="501.275" y2="204.022" gradientUnits="userSpaceOnUse">
<stop stop-color="#C0BFF6"/>
<stop offset="0.2938" stop-color="#C5C4F7"/>
<stop offset="0.6399" stop-color="#D3D2F9"/>
<stop offset="1" stop-color="#E9E9FD"/>
</linearGradient>
<linearGradient id="paint19_linear_38_1003" x1="405.246" y1="210.585" x2="434.838" y2="210.585" gradientUnits="userSpaceOnUse">
<stop stop-color="#C0BFF6"/>
<stop offset="0.2938" stop-color="#C5C4F7"/>
<stop offset="0.6399" stop-color="#D3D2F9"/>
<stop offset="1" stop-color="#E9E9FD"/>
</linearGradient>
<linearGradient id="paint20_linear_38_1003" x1="341.499" y1="178.398" x2="457.107" y2="178.398" gradientUnits="userSpaceOnUse">
<stop stop-color="#C0BFF6"/>
<stop offset="0.2938" stop-color="#C5C4F7"/>
<stop offset="0.6399" stop-color="#D3D2F9"/>
<stop offset="1" stop-color="#E9E9FD"/>
</linearGradient>
<linearGradient id="paint21_linear_38_1003" x1="333.891" y1="169.912" x2="363.483" y2="169.912" gradientUnits="userSpaceOnUse">
<stop stop-color="#C0BFF6"/>
<stop offset="0.2938" stop-color="#C5C4F7"/>
<stop offset="0.6399" stop-color="#D3D2F9"/>
<stop offset="1" stop-color="#E9E9FD"/>
</linearGradient>
<linearGradient id="paint22_linear_38_1003" x1="183.457" y1="215.077" x2="292.371" y2="215.077" gradientUnits="userSpaceOnUse">
<stop stop-color="#5761D7"/>
<stop offset="0.1406" stop-color="#5C60D5"/>
<stop offset="0.2961" stop-color="#695BD1"/>
<stop offset="0.4587" stop-color="#7F54C9"/>
<stop offset="0.6263" stop-color="#9E4BBE"/>
<stop offset="0.7977" stop-color="#C63EB0"/>
<stop offset="0.9699" stop-color="#F62F9F"/>
<stop offset="1" stop-color="#FF2C9C"/>
</linearGradient>
<linearGradient id="paint23_linear_38_1003" x1="306.236" y1="163.308" x2="224.424" y2="163.308" gradientUnits="userSpaceOnUse">
<stop stop-color="#C0BFF6"/>
<stop offset="0.2938" stop-color="#C5C4F7"/>
<stop offset="0.6399" stop-color="#D3D2F9"/>
<stop offset="1" stop-color="#E9E9FD"/>
</linearGradient>
<linearGradient id="paint24_linear_38_1003" x1="306.236" y1="184.29" x2="292.188" y2="184.29" gradientUnits="userSpaceOnUse">
<stop stop-color="#5761D7"/>
<stop offset="0.1779" stop-color="#5C66D9"/>
<stop offset="0.3876" stop-color="#6A73DF"/>
<stop offset="0.6134" stop-color="#8289E8"/>
<stop offset="0.849" stop-color="#A3A7F5"/>
<stop offset="1" stop-color="#BCBEFF"/>
</linearGradient>
<linearGradient id="paint25_linear_38_1003" x1="295.275" y1="207.875" x2="179.729" y2="207.875" gradientUnits="userSpaceOnUse">
<stop stop-color="#5761D7"/>
<stop offset="0.1779" stop-color="#5C66D9"/>
<stop offset="0.3876" stop-color="#6A73DF"/>
<stop offset="0.6134" stop-color="#8289E8"/>
<stop offset="0.849" stop-color="#A3A7F5"/>
<stop offset="1" stop-color="#BCBEFF"/>
</linearGradient>
<linearGradient id="paint26_linear_38_1003" x1="256.451" y1="204.022" x2="140.844" y2="204.022" gradientUnits="userSpaceOnUse">
<stop stop-color="#C0BFF6"/>
<stop offset="0.2938" stop-color="#C5C4F7"/>
<stop offset="0.6399" stop-color="#D3D2F9"/>
<stop offset="1" stop-color="#E9E9FD"/>
</linearGradient>
<linearGradient id="paint27_linear_38_1003" x1="236.874" y1="210.585" x2="207.281" y2="210.585" gradientUnits="userSpaceOnUse">
<stop stop-color="#C0BFF6"/>
<stop offset="0.2938" stop-color="#C5C4F7"/>
<stop offset="0.6399" stop-color="#D3D2F9"/>
<stop offset="1" stop-color="#E9E9FD"/>
</linearGradient>
<linearGradient id="paint28_linear_38_1003" x1="300.62" y1="178.398" x2="185.013" y2="178.398" gradientUnits="userSpaceOnUse">
<stop stop-color="#C0BFF6"/>
<stop offset="0.2938" stop-color="#C5C4F7"/>
<stop offset="0.6399" stop-color="#D3D2F9"/>
<stop offset="1" stop-color="#E9E9FD"/>
</linearGradient>
<linearGradient id="paint29_linear_38_1003" x1="308.229" y1="169.912" x2="278.637" y2="169.912" gradientUnits="userSpaceOnUse">
<stop stop-color="#C0BFF6"/>
<stop offset="0.2938" stop-color="#C5C4F7"/>
<stop offset="0.6399" stop-color="#D3D2F9"/>
<stop offset="1" stop-color="#E9E9FD"/>
</linearGradient>
<linearGradient id="paint30_linear_38_1003" x1="321.06" y1="122.673" x2="321.06" y2="-40" gradientUnits="userSpaceOnUse">
<stop stop-color="#42E8E0"/>
<stop offset="0.1055" stop-color="#37B6BF"/>
<stop offset="0.2197" stop-color="#2C87A1"/>
<stop offset="0.338" stop-color="#235F87" stop-opacity="0.91"/>
<stop offset="0.4587" stop-color="#1C3F72" stop-opacity="0.74"/>
<stop offset="0.5824" stop-color="#162561" stop-opacity="0.69"/>
<stop offset="0.7105" stop-color="#121355" stop-opacity="0.6"/>
<stop offset="0.8458" stop-color="#10084E" stop-opacity="0"/>
<stop offset="1" stop-color="#0F054C" stop-opacity="0"/>
</linearGradient>
<clipPath id="clip0_38_1003">
<rect x="20" y="16" width="460" height="250" rx="10" fill="white"/>
</clipPath>
</defs>
</svg>
