<svg width="216" height="200" viewBox="0 0 216 200" fill="none" xmlns="http://www.w3.org/2000/svg">
<path opacity="0.5" d="M186.207 124.932L192.716 128.716V143.851L186.207 140.068V124.932Z" fill="#5CFFF3"/>
<path opacity="0.2" d="M179.698 128.716L186.207 132.5V140.068L179.698 136.284V128.716Z" fill="#5CFFF3"/>
<path opacity="0.5" d="M173.189 102.162L179.698 105.946V136.284L173.189 132.5V102.162Z" fill="#5CFFF3"/>
<path opacity="0.2" d="M166.68 90.8108L173.189 94.5946V132.5L166.68 128.716V90.8108Z" fill="#5CFFF3"/>
<path opacity="0.5" d="M160.172 94.5946L166.68 98.3784V128.716L160.172 124.932V94.5946Z" fill="#5CFFF3"/>
<path opacity="0.2" d="M153.663 68.1081L160.171 71.8919V124.932L153.663 121.149V68.1081Z" fill="#5CFFF3"/>
<path opacity="0.5" d="M147.154 71.8919L153.663 75.6757V121.149L147.154 117.297V71.8919Z" fill="#5CFFF3"/>
<path opacity="0.2" d="M140.645 75.6757L147.154 79.4595V117.297L140.645 113.514V75.6757Z" fill="#5CFFF3"/>
<path opacity="0.5" d="M134.136 56.7567L140.645 60.5405V113.514L134.136 109.73V56.7567Z" fill="#5CFFF3"/>
<path opacity="0.2" d="M127.627 37.8378L134.136 41.6216V109.73L127.627 105.946V37.8378Z" fill="#5CFFF3"/>
<path opacity="0.5" d="M121.118 41.6216L127.627 45.4054V105.946L121.118 102.162V41.6216Z" fill="#5CFFF3"/>
<path opacity="0.2" d="M114.609 22.7027L121.118 26.4865V102.162L114.609 98.3784V22.7027Z" fill="#5CFFF3"/>
<path opacity="0.5" d="M108.101 18.9189L114.61 22.7027V98.3784L108.101 94.5946V18.9189Z" fill="#5CFFF3"/>
<path opacity="0.2" d="M101.592 0L108.101 3.78378V94.5946L101.592 90.8108V0Z" fill="#5CFFF3"/>
<path opacity="0.4" d="M107.966 200C140.912 200 167.62 184.481 167.62 165.338C167.62 146.194 140.912 130.676 107.966 130.676C75.0208 130.676 48.3131 146.194 48.3131 165.338C48.3131 184.481 75.0208 200 107.966 200Z" fill="#0F054C"/>
<path d="M107.966 186.216C145.47 186.216 175.873 168.55 175.873 146.757C175.873 124.964 145.47 107.297 107.966 107.297C70.4626 107.297 40.0597 124.964 40.0597 146.757C40.0597 168.55 70.4626 186.216 107.966 186.216Z" fill="url(#paint0_linear_38_250)"/>
<path opacity="0.48" d="M175.873 133.716H174.196C171.445 126.689 165.405 120 156.011 114.527C129.506 99.1216 86.5611 99.1216 59.9889 114.527C51.1314 119.662 45.2265 125.946 42.274 132.568H40.1268V141.284C39.59 151.757 46.233 162.365 59.9889 170.338C86.494 185.743 129.439 185.743 156.011 170.338C169.297 162.635 175.873 152.568 175.873 142.432V133.716Z" fill="url(#paint1_linear_38_250)"/>
<path opacity="0.48" d="M175.873 133.716H174.196C171.445 126.689 165.405 120 156.011 114.527C129.506 99.1216 86.5611 99.1216 59.9889 114.527C51.1314 119.662 45.2265 125.946 42.274 132.568H40.1268V141.284C39.59 151.757 46.233 162.365 59.9889 170.338C86.494 185.743 129.439 185.743 156.011 170.338C169.297 162.635 175.873 152.568 175.873 142.432V133.716Z" fill="url(#paint2_linear_38_250)"/>
<path opacity="0.48" d="M175.873 133.716H174.196C171.445 126.689 165.405 120 156.011 114.527C129.506 99.1216 86.5611 99.1216 59.9889 114.527C51.1314 119.662 45.2265 125.946 42.274 132.568H40.1268V141.284C39.59 151.757 46.233 162.365 59.9889 170.338C86.494 185.743 129.439 185.743 156.011 170.338C169.297 162.635 175.873 152.568 175.873 142.432V133.716Z" fill="url(#paint3_linear_38_250)"/>
<path d="M175.873 130.338H174.196C171.445 123.311 165.405 116.622 156.011 111.149C129.506 95.7432 86.5611 95.7432 59.9889 111.149C51.1314 116.284 45.2265 122.568 42.274 129.189H40.1268V137.905C39.59 148.378 46.233 158.986 59.9889 166.959C86.494 182.365 129.439 182.365 156.011 166.959C169.297 159.257 175.873 149.189 175.873 139.054V130.338Z" fill="url(#paint4_linear_38_250)"/>
<path opacity="0.48" d="M174.196 130.338C174.129 130.068 173.994 129.865 173.927 129.595V123.851H170.371V123.446C169.499 122.23 168.492 121.013 167.351 119.865V123.851H165.338V117.905C164.399 117.027 163.392 116.216 162.319 115.338V123.851H160.306V113.851C159.366 113.176 158.293 112.5 157.286 111.892V123.851H155.273V110.676C154.267 110.135 153.26 109.595 152.254 109.054V123.851H150.24V108.108C149.234 107.635 148.227 107.23 147.154 106.757V123.851H145.141V110H142.054V123.851H140.041V113.851H136.954V123.919H134.941V117.703H131.855V123.919H129.909V121.486H126.755V123.919H89.3122V121.486H86.2256V123.919H84.2796V117.703H81.1258V123.919H79.1128V113.851H76.0261V123.919H74.0131V110.068H70.9264V123.919H68.9133V106.824C67.9068 107.23 66.8332 107.703 65.8267 108.176V123.919H63.8136V109.122C62.8071 109.662 61.7335 110.203 60.7941 110.743V123.919H58.781V111.892C57.7074 112.568 56.7009 113.176 55.7614 113.851V123.851H53.7484V115.338C52.6748 116.149 51.6682 117.027 50.7288 117.905V123.919H48.7158V119.932C47.575 121.081 46.5685 122.297 45.6962 123.514V123.986H42.1398V129.257H40.6636V143.919C41.2004 146.554 42.2069 149.189 43.6831 151.689V142.5H45.7633V154.797C46.6356 156.014 47.6421 157.162 48.7829 158.378V142.568H50.7959V160.405C51.7353 161.284 52.7419 162.095 53.8155 162.973V142.635H55.8285V164.459C56.768 165.135 57.8416 165.811 58.8481 166.419V142.568H60.8612V167.568C61.8677 168.108 62.8742 168.649 63.8807 169.189V142.568H65.8938V170.135C66.9003 170.608 67.9068 171.013 68.9804 171.486V142.568H70.9935V172.297C72 172.703 73.0065 173.041 74.0802 173.378V142.568H76.0932V173.986C77.0997 174.324 78.1063 174.595 79.1799 174.865V142.5H81.1929V175.338C82.1995 175.608 83.2731 175.811 84.2796 176.081V142.5H86.2256V176.486C87.2321 176.689 88.3057 176.892 89.3122 177.027V142.5H91.2582V177.365C92.2647 177.5 93.3383 177.635 94.3448 177.77V142.5H96.2908V177.973C97.2973 178.108 98.3709 178.176 99.3775 178.243V142.5H101.323V178.378C102.397 178.446 103.404 178.514 104.477 178.514V142.5H106.423V178.581C107.497 178.581 108.503 178.581 109.577 178.581V142.5H111.523V178.514C112.596 178.514 113.603 178.446 114.677 178.378V142.5H116.623V178.243C117.696 178.176 118.703 178.108 119.709 177.973V142.5H121.655V177.77C122.729 177.635 123.735 177.5 124.742 177.365V142.5H126.688V177.027C127.694 176.824 128.768 176.689 129.774 176.486V142.5H131.72V176.014C132.727 175.811 133.801 175.541 134.807 175.27V142.432H136.82V174.797C137.827 174.527 138.9 174.189 139.907 173.919V142.5H141.92V173.311C142.926 172.973 144 172.568 145.007 172.23V142.568H147.02V171.486C148.026 171.081 149.1 170.608 150.106 170.135V142.568H152.119V169.189C153.126 168.649 154.199 168.108 155.139 167.568V142.568H157.152V166.351C158.226 165.676 159.232 165.068 160.172 164.392V142.568H162.185V162.905C163.258 162.095 164.265 161.216 165.204 160.338V142.568H167.217V158.378C168.358 157.23 169.364 156.014 170.237 154.797V142.568H172.317V151.689C173.793 149.122 174.8 146.486 175.336 143.851V130.473L174.196 130.338Z" fill="url(#paint5_linear_38_250)"/>
<path d="M107.966 169.797C145.47 169.797 175.873 152.131 175.873 130.338C175.873 108.545 145.47 90.8784 107.966 90.8784C70.4626 90.8784 40.0597 108.545 40.0597 130.338C40.0597 152.131 70.4626 169.797 107.966 169.797Z" fill="url(#paint6_linear_38_250)"/>
<path opacity="0.3" d="M108.034 90.8784C92.6673 90.8784 77.3011 93.9189 64.7531 99.9324L44.4884 144.257C47.7764 149.324 52.9432 154.122 59.9889 158.243C64.3505 160.811 69.1818 162.905 74.3486 164.595L108.034 90.8784Z" fill="#42E8E0"/>
<path opacity="0.3" d="M127.023 92.5L92.1975 168.784C100.518 169.932 109.174 170.135 117.629 169.459L149.704 99.2568C142.792 96.0811 135.075 93.8514 127.023 92.5Z" fill="#42E8E0"/>
<g opacity="0.05">
<path d="M107.966 165.27C141.171 165.27 168.089 149.63 168.089 130.338C168.089 111.045 141.171 95.4054 107.966 95.4054C74.7614 95.4054 47.8434 111.045 47.8434 130.338C47.8434 149.63 74.7614 165.27 107.966 165.27Z" fill="url(#paint7_linear_38_250)"/>
<path d="M0.603914 130.203L0 129.865L104.678 68.9865L105.349 69.3243L0.603914 130.203Z" fill="#42E8E0"/>
<path d="M2.48278 131.284L1.81177 130.946L106.557 70.0676L107.161 70.4054L2.48278 131.284Z" fill="#42E8E0"/>
<path d="M4.29447 132.365L3.69055 131.959L108.369 71.0811L109.04 71.4865L4.29447 132.365Z" fill="#42E8E0"/>
<path d="M6.17334 133.446L5.50232 133.041L110.248 72.1622L110.852 72.5676L6.17334 133.446Z" fill="#42E8E0"/>
<path d="M7.98514 134.527L7.38123 134.122L112.06 73.2432L112.731 73.6486L7.98514 134.527Z" fill="#42E8E0"/>
<path d="M9.86389 135.608L9.19287 135.203L113.938 74.3243L114.542 74.7297L9.86389 135.608Z" fill="#42E8E0"/>
<path d="M11.6757 136.622L11.0718 136.284L115.75 75.4054L116.421 75.7432L11.6757 136.622Z" fill="#42E8E0"/>
<path d="M13.5546 137.703L12.8835 137.365L117.629 76.4865L118.233 76.8243L13.5546 137.703Z" fill="#42E8E0"/>
<path d="M15.3662 138.784L14.7623 138.446L119.441 77.5676L120.112 77.9054L15.3662 138.784Z" fill="#42E8E0"/>
<path d="M17.2451 139.865L16.5741 139.527L121.32 78.6487L121.924 78.9865L17.2451 139.865Z" fill="#42E8E0"/>
<path d="M19.0568 140.946L18.4529 140.541L123.131 79.6621L123.802 80.0675L19.0568 140.946Z" fill="#42E8E0"/>
<path d="M20.9357 142.027L20.2646 141.622L125.01 80.7432L125.614 81.1486L20.9357 142.027Z" fill="#42E8E0"/>
<path d="M22.7475 143.108L22.1436 142.703L126.822 81.8243L127.493 82.2297L22.7475 143.108Z" fill="#42E8E0"/>
<path d="M24.6263 144.189L23.9553 143.784L128.701 82.9054L129.305 83.3108L24.6263 144.189Z" fill="#42E8E0"/>
<path d="M26.438 145.203L25.8341 144.865L130.513 83.9865L131.184 84.3243L26.438 145.203Z" fill="#42E8E0"/>
<path d="M28.3169 146.284L27.6459 145.946L132.391 85.0676L132.995 85.4054L28.3169 146.284Z" fill="#42E8E0"/>
<path d="M30.1286 147.365L29.5247 147.027L134.203 86.1487L134.874 86.4865L30.1286 147.365Z" fill="#42E8E0"/>
<path d="M32.0074 148.446L31.3364 148.041L136.082 87.1622L136.686 87.5676L32.0074 148.446Z" fill="#42E8E0"/>
<path d="M33.8192 149.527L33.2153 149.122L137.894 88.2433L138.565 88.6487L33.8192 149.527Z" fill="#42E8E0"/>
<path d="M35.698 150.608L35.027 150.203L139.773 89.3243L140.376 89.7297L35.698 150.608Z" fill="#42E8E0"/>
<path d="M37.5098 151.689L36.9059 151.284L141.584 90.4054L142.255 90.8108L37.5098 151.689Z" fill="#42E8E0"/>
<path d="M39.3887 152.77L38.7177 152.365L143.463 91.4865L144.067 91.8919L39.3887 152.77Z" fill="#42E8E0"/>
<path d="M41.2004 153.784L40.5964 153.446L145.275 92.5676L145.946 92.9054L41.2004 153.784Z" fill="#42E8E0"/>
<path d="M43.0792 154.865L42.4082 154.527L147.154 93.6487L147.758 93.9865L43.0792 154.865Z" fill="#42E8E0"/>
<path d="M44.8909 155.946L44.287 155.608L148.965 94.7297L149.636 95.0675L44.8909 155.946Z" fill="#42E8E0"/>
<path d="M46.7698 157.027L46.0988 156.622L150.844 95.7432L151.448 96.1486L46.7698 157.027Z" fill="#42E8E0"/>
<path d="M48.5815 158.108L47.9105 157.703L152.656 96.8243L153.327 97.2297L48.5815 158.108Z" fill="#42E8E0"/>
<path d="M50.4604 159.189L49.7894 158.784L154.535 97.9054L155.139 98.3108L50.4604 159.189Z" fill="#42E8E0"/>
<path d="M52.2721 160.27L51.6011 159.865L156.347 98.9865L157.018 99.3919L52.2721 160.27Z" fill="#42E8E0"/>
<path d="M54.151 161.351L53.48 160.946L158.226 100.068L158.829 100.473L54.151 161.351Z" fill="#42E8E0"/>
<path d="M55.9628 162.365L55.2917 162.027L160.037 101.149L160.708 101.486L55.9628 162.365Z" fill="#42E8E0"/>
<path d="M57.8415 163.446L57.1705 163.108L161.916 102.23L162.52 102.568L57.8415 163.446Z" fill="#42E8E0"/>
<path d="M59.6533 164.527L58.9823 164.189L163.728 103.311L164.399 103.649L59.6533 164.527Z" fill="#42E8E0"/>
<path d="M61.5321 165.608L60.8611 165.203L165.607 104.324L166.211 104.73L61.5321 165.608Z" fill="#42E8E0"/>
<path d="M63.3439 166.689L62.6729 166.284L167.418 105.405L168.089 105.811L63.3439 166.689Z" fill="#42E8E0"/>
<path d="M65.2228 167.77L64.5518 167.365L169.297 106.486L169.901 106.892L65.2228 167.77Z" fill="#42E8E0"/>
<path d="M67.0345 168.851L66.3635 168.446L171.109 107.568L171.78 107.973L67.0345 168.851Z" fill="#42E8E0"/>
<path d="M68.9133 169.932L68.2423 169.527L172.988 108.649L173.592 108.986L68.9133 169.932Z" fill="#42E8E0"/>
<path d="M70.7251 170.946L70.0541 170.608L174.8 109.73L175.471 110.068L70.7251 170.946Z" fill="#42E8E0"/>
<path d="M72.5368 172.027L71.9329 171.689L176.678 110.811L177.282 111.149L72.5368 172.027Z" fill="#42E8E0"/>
<path d="M74.4156 173.108L73.7446 172.77L178.49 111.892L179.161 112.23L74.4156 173.108Z" fill="#42E8E0"/>
<path d="M76.2274 174.189L75.6235 173.784L180.369 112.905L180.973 113.311L76.2274 174.189Z" fill="#42E8E0"/>
<path d="M78.1062 175.27L77.4352 174.865L182.181 113.986L182.852 114.392L78.1062 175.27Z" fill="#42E8E0"/>
<path d="M79.918 176.351L79.3141 175.946L183.993 115.068L184.664 115.473L79.918 176.351Z" fill="#42E8E0"/>
<path d="M81.7969 177.432L81.1259 177.027L185.871 116.149L186.542 116.554L81.7969 177.432Z" fill="#42E8E0"/>
<path d="M83.6085 178.446L83.0046 178.108L187.683 117.23L188.354 117.568L83.6085 178.446Z" fill="#42E8E0"/>
<path d="M85.4874 179.527L84.8164 179.189L189.562 118.311L190.233 118.649L85.4874 179.527Z" fill="#42E8E0"/>
<path d="M87.2991 180.608L86.6952 180.27L191.374 119.392L192.045 119.73L87.2991 180.608Z" fill="#42E8E0"/>
<path d="M89.178 181.689L88.507 181.351L193.253 120.473L193.924 120.811L89.178 181.689Z" fill="#42E8E0"/>
<path d="M90.9898 182.77L90.3859 182.365L195.064 121.486L195.735 121.892L90.9898 182.77Z" fill="#42E8E0"/>
<path d="M92.8685 183.851L92.1975 183.446L196.943 122.568L197.614 122.973L92.8685 183.851Z" fill="#42E8E0"/>
<path d="M94.6801 184.932L94.0762 184.527L198.755 123.649L199.426 124.054L94.6801 184.932Z" fill="#42E8E0"/>
<path d="M96.5592 186.014L95.8882 185.608L200.634 124.73L201.305 125.135L96.5592 186.014Z" fill="#42E8E0"/>
<path d="M98.3709 187.027L97.767 186.689L202.445 125.811L203.116 126.149L98.3709 187.027Z" fill="#42E8E0"/>
<path d="M100.25 188.108L99.5787 187.77L204.324 126.892L204.995 127.23L100.25 188.108Z" fill="#42E8E0"/>
<path d="M102.062 189.189L101.458 188.851L206.136 127.973L206.807 128.311L102.062 189.189Z" fill="#42E8E0"/>
<path d="M103.94 190.27L103.269 189.932L208.015 129.054L208.619 129.392L103.94 190.27Z" fill="#42E8E0"/>
<path d="M105.752 191.351L105.148 190.946L209.827 130.068L210.498 130.473L105.752 191.351Z" fill="#42E8E0"/>
<path d="M107.631 192.432L106.96 192.027L211.706 131.149L212.309 131.554L107.631 192.432Z" fill="#42E8E0"/>
<path d="M109.443 193.514L108.839 193.108L213.517 132.23L214.188 132.635L109.443 193.514Z" fill="#42E8E0"/>
<path d="M111.322 194.595L110.651 194.189L215.396 133.311L216 133.716L111.322 194.595Z" fill="#42E8E0"/>
</g>
<path d="M65.4911 108.041C88.9767 94.3919 127.023 94.3919 150.509 108.041C161.715 114.595 167.553 123.041 168.089 131.554C168.626 122.23 162.788 112.77 150.509 105.676C127.023 92.027 88.9767 92.027 65.4911 105.676C53.2115 112.77 47.3737 122.23 47.9105 131.554C48.3802 122.973 54.2851 114.527 65.4911 108.041Z" fill="url(#paint8_linear_38_250)"/>
<path d="M126.554 122.973C122.93 122.635 119.441 123.243 116.086 124.73C120.112 121.351 119.172 117.905 113.267 114.392C113.133 114.324 112.999 114.257 112.865 114.122C110.852 112.905 108.839 112.027 106.759 111.486C104.544 110.878 102.464 110.541 100.518 110.541C98.5723 110.541 96.6263 110.811 94.5462 111.351C93.4725 111.622 92.3989 111.959 91.4595 112.297L87.7018 110.068L82.1324 113.311L85.219 115.135C84.6822 115.405 84.0783 115.743 83.5415 116.081L81.5285 117.297L78.4418 115.473L72.8723 118.716L75.959 120.541L72.1342 122.77L70.658 123.649L70.2554 123.851L63.8807 127.568L69.4502 130.811L75.8248 127.095L116.019 150.473L109.644 154.189L115.213 157.432L121.588 153.716L123.534 152.635L127.359 150.405L130.513 152.23L136.082 148.986L134.069 147.838L132.928 147.162L136.619 145L139.773 146.824L145.342 143.581L143.329 142.432L141.719 141.486C143.933 139.527 145.074 137.635 145.208 135.676C145.342 132.77 142.926 129.797 137.961 126.892C137.827 126.824 137.76 126.757 137.625 126.689C133.868 124.459 130.177 123.311 126.554 122.973ZM89.178 121.622L90.9898 120.608C95.4185 118.041 99.6459 117.905 103.739 120.27C106.088 121.622 107.43 122.905 107.631 124.054C107.832 125.203 106.759 126.486 104.276 127.905L102.129 129.189L89.178 121.622ZM124.943 142.432L109.577 133.514L111.791 132.23C114.341 130.743 116.69 130.068 118.904 130.203C121.118 130.338 123.668 131.216 126.554 132.905C129.103 134.392 130.513 135.811 130.714 137.095C130.915 138.378 129.774 139.73 127.359 141.149L124.943 142.432Z" fill="url(#paint9_linear_38_250)"/>
<path d="M72.8723 114.122V117.703L75.959 115.946L72.8723 114.122Z" fill="url(#paint10_linear_38_250)"/>
<path d="M82.1323 108.716V112.297L85.2861 110.541L82.1323 108.716Z" fill="url(#paint11_linear_38_250)"/>
<path d="M118.569 115.946V120.203L115.75 118.446L118.569 115.946Z" fill="url(#paint12_linear_38_250)"/>
<path d="M145.141 130.338V135.608L140.98 132.973L145.141 130.338Z" fill="url(#paint13_linear_38_250)"/>
<path d="M126.554 118.446C122.93 118.108 119.441 118.716 116.086 120.203C120.112 116.824 119.172 113.378 113.267 109.865C113.133 109.797 112.999 109.73 112.865 109.595C110.852 108.378 108.839 107.5 106.759 106.959C104.544 106.351 102.464 106.013 100.518 106.013C98.5723 106.013 96.6263 106.284 94.5462 106.824C93.4725 107.095 92.3989 107.432 91.4595 107.77L87.7018 105.541L82.1324 108.784L85.219 110.608C84.6822 110.878 84.0783 111.216 83.5415 111.554L81.5285 112.77L78.4418 110.946L72.8723 114.189L75.959 116.013L72.1342 118.243L70.658 119.122L70.2554 119.324L63.8807 123.041L69.4502 126.284L75.8248 122.568L116.019 145.946L109.644 149.662L115.213 152.905L121.588 149.189L123.534 148.108L127.359 145.878L130.513 147.703L136.082 144.459L134.069 143.311L132.928 142.635L136.619 140.473L139.773 142.297L145.342 139.054L143.329 137.905L141.719 136.959C143.933 135 145.074 133.108 145.208 131.149C145.342 128.243 142.926 125.27 137.961 122.365C137.827 122.297 137.76 122.23 137.625 122.162C133.868 119.932 130.177 118.716 126.554 118.446ZM89.178 117.095L90.9898 116.081C95.4185 113.514 99.6459 113.378 103.739 115.743C106.088 117.095 107.43 118.378 107.631 119.527C107.832 120.676 106.759 121.959 104.276 123.378L102.129 124.662L89.178 117.095ZM124.943 137.905L109.577 128.986L111.791 127.703C114.341 126.216 116.69 125.541 118.904 125.676C121.118 125.811 123.668 126.689 126.554 128.378C129.103 129.865 130.513 131.284 130.714 132.568C130.915 133.851 129.774 135.203 127.359 136.622L124.943 137.905Z" fill="url(#paint14_linear_38_250)"/>
<path d="M145.275 138.986V143.513L139.705 146.757V142.162L145.275 138.986Z" fill="url(#paint15_linear_38_250)"/>
<path d="M136.015 144.324V148.919L130.445 152.095V147.568L136.015 144.324Z" fill="url(#paint16_linear_38_250)"/>
<path d="M115.146 152.838V157.365L109.577 154.122V149.595L115.146 152.838Z" fill="url(#paint17_linear_38_250)"/>
<path d="M63.8136 122.973V127.5L69.383 130.743V126.216L63.8136 122.973Z" fill="url(#paint18_linear_38_250)"/>
<path d="M75.7577 127.027V122.5L69.3831 126.216V130.743L75.7577 127.027Z" fill="url(#paint19_linear_38_250)"/>
<path d="M75.7577 122.5V127.027L112.06 148.108L115.952 145.878L75.7577 122.5Z" fill="url(#paint20_linear_38_250)"/>
<path d="M108.839 97.5C106.356 97.5 103.94 96.9594 102.062 95.8784C100.183 94.7973 99.1091 93.3108 99.1091 91.6892C99.1091 90.0675 100.183 88.5811 102.062 87.5C105.819 85.3378 111.926 85.3378 115.683 87.5C117.562 88.5811 118.636 90.0675 118.636 91.6892C118.636 93.3108 117.562 94.7973 115.683 95.8784C113.737 96.9594 111.255 97.5 108.839 97.5ZM108.839 86.6216C106.49 86.6216 104.209 87.1621 102.397 88.1757C100.72 89.1216 99.8472 90.4054 99.8472 91.6892C99.8472 92.9729 100.787 94.2567 102.397 95.2027C105.953 97.2973 111.724 97.2973 115.281 95.2027C116.958 94.2567 117.83 92.9729 117.83 91.6892C117.83 90.4054 116.891 89.1216 115.281 88.1757C113.469 87.0946 111.12 86.6216 108.839 86.6216Z" fill="#42E8E0"/>
<path d="M112.865 93.9865C110.651 95.2703 107.027 95.2703 104.813 93.9865C102.598 92.7027 102.598 90.6081 104.813 89.3243C107.027 88.0405 110.651 88.0405 112.865 89.3243C115.079 90.6081 115.079 92.7027 112.865 93.9865Z" fill="#42E8E0"/>
<path d="M132.324 80.3378L128.365 77.973L135.143 74.054L139.102 76.3513L132.324 80.3378Z" fill="#42E8E0"/>
<path opacity="0.8" d="M125.144 76.6892L120.112 75.2027L124.473 70.2027L129.506 71.6892L125.144 76.6892Z" fill="#42E8E0"/>
<path opacity="0.6" d="M116.354 74.4594L110.785 73.9189L112.261 68.4459L117.898 68.9189L116.354 74.4594Z" fill="#42E8E0"/>
<path opacity="0.4" d="M106.826 73.9189L101.256 74.4594L99.7802 68.9189L105.35 68.4459L106.826 73.9189Z" fill="#42E8E0"/>
<path opacity="0.2" d="M97.4986 75.2027L92.466 76.6892L88.1044 71.6892L93.137 70.2027L97.4986 75.2027Z" fill="#42E8E0"/>
<path opacity="0.1" d="M89.3123 77.973L85.2862 80.3378L78.5089 76.3513L82.535 74.054L89.3123 77.973Z" fill="#42E8E0"/>
<path opacity="0.2" d="M118.971 86.5541L117.562 85.7432L127.761 79.8649L129.171 80.6757L118.971 86.5541Z" fill="#42E8E0"/>
<path opacity="0.4" d="M115.817 85L114.006 84.4594L120.514 77.027L122.326 77.5676L115.817 85Z" fill="#42E8E0"/>
<path opacity="0.6" d="M111.926 84.054L109.912 83.9189L112.194 75.6757L114.14 75.8108L111.926 84.054Z" fill="#42E8E0"/>
<path opacity="0.8" d="M107.698 83.9189L105.752 84.054L103.471 75.8108L105.484 75.6757L107.698 83.9189Z" fill="#42E8E0"/>
<path d="M103.605 84.4594L101.86 85L95.3514 77.5676L97.0961 77.027L103.605 84.4594Z" fill="#42E8E0"/>
<path d="M100.049 85.7432L98.6394 86.5541L88.5071 80.6757L89.9162 79.8649L100.049 85.7432Z" fill="#42E8E0"/>
<path d="M97.3644 87.6351L96.425 88.6486L83.6757 84.8649L84.548 83.8513L97.3644 87.6351Z" fill="#42E8E0"/>
<path d="M95.754 89.8649L95.4184 91.0135L81.26 89.7297L81.5955 88.5811L95.754 89.8649Z" fill="#42E8E0"/>
<path d="M95.4184 92.2973L95.754 93.4459L81.5955 94.7973L81.26 93.6487L95.4184 92.2973Z" fill="#42E8E0"/>
<path d="M96.425 94.6622L97.3644 95.7432L84.548 99.527L83.6757 98.5135L96.425 94.6622Z" fill="#42E8E0"/>
<path d="M98.6394 96.7567L100.049 97.5676L89.9162 103.514L88.5071 102.703L98.6394 96.7567Z" fill="#42E8E0"/>
<path opacity="0.6" d="M148.697 72.5C163.594 82.973 164.466 97.9054 151.18 108.919L156.548 113.919C174.8 100.676 174.397 81.6216 155.34 68.6487L148.697 72.5Z" fill="#42E8E0"/>
<path opacity="0.2" d="M116.891 121.351C101.122 122.77 84.4139 120 72.2685 112.905C69.3831 111.216 66.9674 109.392 64.8873 107.5L55.7615 109.324C58.3784 111.959 61.6664 114.527 65.5583 116.757C80.9246 125.676 102.464 128.851 122.192 126.284L116.891 121.351Z" fill="#42E8E0"/>
<path d="M48.3132 96.6892L57.439 94.8649C55.8286 86.1486 60.7941 77.0946 72.2684 70.4054C91.3253 59.3243 121.454 58.7162 141.786 68.5135L148.496 64.6622C124.473 52.7703 88.3728 53.3784 65.6254 66.554C51.467 74.7973 45.6962 86.0135 48.3132 96.6892Z" fill="#42E8E0"/>
<path d="M103.269 111.554L99.6459 109.459L145.409 82.9054L148.966 84.9324L103.269 111.554Z" fill="#42E8E0"/>
<path opacity="0.8" d="M108.302 114.459L104.746 112.432L124.608 100.878L128.164 102.905L108.302 114.459Z" fill="#42E8E0"/>
<path opacity="0.6" d="M113.737 117.635L110.181 115.541L141.786 97.1622L145.342 99.2568L113.737 117.635Z" fill="#42E8E0"/>
<path opacity="0.2" d="M119.038 120.743L115.482 118.649L140.108 104.324L143.664 106.419L119.038 120.743Z" fill="#42E8E0"/>
<defs>
<linearGradient id="paint0_linear_38_250" x1="37.9811" y1="111.245" x2="111.241" y2="224.963" gradientUnits="userSpaceOnUse">
<stop stop-color="#42E8E0"/>
<stop offset="0.0157138" stop-color="#40DDDA"/>
<stop offset="0.0920726" stop-color="#3AAEC0"/>
<stop offset="0.173" stop-color="#3484A9"/>
<stop offset="0.2573" stop-color="#2F6195"/>
<stop offset="0.3458" stop-color="#2B4486"/>
<stop offset="0.44" stop-color="#282E79"/>
<stop offset="0.5425" stop-color="#261E71"/>
<stop offset="0.6594" stop-color="#24156C"/>
<stop offset="0.8226" stop-color="#24126A"/>
</linearGradient>
<linearGradient id="paint1_linear_38_250" x1="29.8685" y1="142.453" x2="164.269" y2="142.453" gradientUnits="userSpaceOnUse">
<stop stop-color="#42E8E0"/>
<stop offset="0.1507" stop-color="#43E3E0"/>
<stop offset="0.3285" stop-color="#45D5DF"/>
<stop offset="0.5199" stop-color="#49BDDD"/>
<stop offset="0.7209" stop-color="#4E9CDB"/>
<stop offset="0.9274" stop-color="#5472D8"/>
<stop offset="1" stop-color="#5761D7"/>
</linearGradient>
<linearGradient id="paint2_linear_38_250" x1="29.8685" y1="142.453" x2="164.269" y2="142.453" gradientUnits="userSpaceOnUse">
<stop stop-color="#42E8E0"/>
<stop offset="0.1507" stop-color="#43E3E0"/>
<stop offset="0.3285" stop-color="#45D5DF"/>
<stop offset="0.5199" stop-color="#49BDDD"/>
<stop offset="0.7209" stop-color="#4E9CDB"/>
<stop offset="0.9274" stop-color="#5472D8"/>
<stop offset="1" stop-color="#5761D7"/>
</linearGradient>
<linearGradient id="paint3_linear_38_250" x1="29.8685" y1="142.453" x2="164.269" y2="142.453" gradientUnits="userSpaceOnUse">
<stop stop-color="#42E8E0"/>
<stop offset="0.1507" stop-color="#43E3E0"/>
<stop offset="0.3285" stop-color="#45D5DF"/>
<stop offset="0.5199" stop-color="#49BDDD"/>
<stop offset="0.7209" stop-color="#4E9CDB"/>
<stop offset="0.9274" stop-color="#5472D8"/>
<stop offset="1" stop-color="#5761D7"/>
</linearGradient>
<linearGradient id="paint4_linear_38_250" x1="29.8685" y1="139.071" x2="164.269" y2="139.071" gradientUnits="userSpaceOnUse">
<stop stop-color="#42E8E0"/>
<stop offset="0.0157138" stop-color="#40DDDA"/>
<stop offset="0.0920726" stop-color="#3AAEC0"/>
<stop offset="0.173" stop-color="#3484A9"/>
<stop offset="0.2573" stop-color="#2F6195"/>
<stop offset="0.3458" stop-color="#2B4486"/>
<stop offset="0.44" stop-color="#282E79"/>
<stop offset="0.5425" stop-color="#261E71"/>
<stop offset="0.6594" stop-color="#24156C"/>
<stop offset="0.8226" stop-color="#24126A"/>
</linearGradient>
<linearGradient id="paint5_linear_38_250" x1="40.611" y1="142.651" x2="175.396" y2="142.651" gradientUnits="userSpaceOnUse">
<stop stop-color="#42E8E0"/>
<stop offset="0.1507" stop-color="#43E3E0"/>
<stop offset="0.3285" stop-color="#45D5DF"/>
<stop offset="0.5199" stop-color="#49BDDD"/>
<stop offset="0.7209" stop-color="#4E9CDB"/>
<stop offset="0.9274" stop-color="#5472D8"/>
<stop offset="1" stop-color="#5761D7"/>
</linearGradient>
<linearGradient id="paint6_linear_38_250" x1="37.9811" y1="94.8705" x2="111.241" y2="208.589" gradientUnits="userSpaceOnUse">
<stop stop-color="#42E8E0"/>
<stop offset="0.0157138" stop-color="#40DDDA"/>
<stop offset="0.0920726" stop-color="#3AAEC0"/>
<stop offset="0.173" stop-color="#3484A9"/>
<stop offset="0.2573" stop-color="#2F6195"/>
<stop offset="0.3458" stop-color="#2B4486"/>
<stop offset="0.44" stop-color="#282E79"/>
<stop offset="0.5425" stop-color="#261E71"/>
<stop offset="0.6594" stop-color="#24156C"/>
<stop offset="0.8226" stop-color="#24126A"/>
</linearGradient>
<linearGradient id="paint7_linear_38_250" x1="97.3941" y1="77.0458" x2="131.426" y2="245.952" gradientUnits="userSpaceOnUse">
<stop stop-color="#42E8E0"/>
<stop offset="0.0157138" stop-color="#40DDDA"/>
<stop offset="0.0920726" stop-color="#3AAEC0"/>
<stop offset="0.173" stop-color="#3484A9"/>
<stop offset="0.2573" stop-color="#2F6195"/>
<stop offset="0.3458" stop-color="#2B4486"/>
<stop offset="0.44" stop-color="#282E79"/>
<stop offset="0.5425" stop-color="#261E71"/>
<stop offset="0.6594" stop-color="#24156C"/>
<stop offset="0.8226" stop-color="#24126A"/>
</linearGradient>
<linearGradient id="paint8_linear_38_250" x1="47.8841" y1="113.481" x2="168.094" y2="113.481" gradientUnits="userSpaceOnUse">
<stop stop-color="#2B237C"/>
<stop offset="1" stop-color="#180D5B"/>
</linearGradient>
<linearGradient id="paint9_linear_38_250" x1="63.8177" y1="133.705" x2="145.252" y2="133.705" gradientUnits="userSpaceOnUse">
<stop stop-color="#2B237C"/>
<stop offset="1" stop-color="#180D5B"/>
</linearGradient>
<linearGradient id="paint10_linear_38_250" x1="74.2224" y1="113.383" x2="74.5136" y2="118.269" gradientUnits="userSpaceOnUse">
<stop stop-color="#42E8E0"/>
<stop offset="0.0157138" stop-color="#40DDDA"/>
<stop offset="0.0920726" stop-color="#3AAEC0"/>
<stop offset="0.173" stop-color="#3484A9"/>
<stop offset="0.2573" stop-color="#2F6195"/>
<stop offset="0.3458" stop-color="#2B4486"/>
<stop offset="0.44" stop-color="#282E79"/>
<stop offset="0.5425" stop-color="#261E71"/>
<stop offset="0.6594" stop-color="#24156C"/>
<stop offset="0.8226" stop-color="#24126A"/>
</linearGradient>
<linearGradient id="paint11_linear_38_250" x1="83.4986" y1="107.998" x2="83.7898" y2="112.884" gradientUnits="userSpaceOnUse">
<stop stop-color="#42E8E0"/>
<stop offset="0.0157138" stop-color="#40DDDA"/>
<stop offset="0.0920726" stop-color="#3AAEC0"/>
<stop offset="0.173" stop-color="#3484A9"/>
<stop offset="0.2573" stop-color="#2F6195"/>
<stop offset="0.3458" stop-color="#2B4486"/>
<stop offset="0.44" stop-color="#282E79"/>
<stop offset="0.5425" stop-color="#261E71"/>
<stop offset="0.6594" stop-color="#24156C"/>
<stop offset="0.8226" stop-color="#24126A"/>
</linearGradient>
<linearGradient id="paint12_linear_38_250" x1="117.057" y1="115.227" x2="117.404" y2="121.044" gradientUnits="userSpaceOnUse">
<stop stop-color="#2B237C"/>
<stop offset="1" stop-color="#180D5B"/>
</linearGradient>
<linearGradient id="paint13_linear_38_250" x1="141.22" y1="132.142" x2="146.944" y2="133.333" gradientUnits="userSpaceOnUse">
<stop stop-color="#2B237C"/>
<stop offset="1" stop-color="#180D5B"/>
</linearGradient>
<linearGradient id="paint14_linear_38_250" x1="67.2798" y1="120.62" x2="336.783" y2="176.708" gradientUnits="userSpaceOnUse">
<stop stop-color="#42E8E0"/>
<stop offset="0.0157138" stop-color="#40DDDA"/>
<stop offset="0.0920726" stop-color="#3AAEC0"/>
<stop offset="0.173" stop-color="#3484A9"/>
<stop offset="0.2573" stop-color="#2F6195"/>
<stop offset="0.3458" stop-color="#2B4486"/>
<stop offset="0.44" stop-color="#282E79"/>
<stop offset="0.5425" stop-color="#261E71"/>
<stop offset="0.6594" stop-color="#24156C"/>
<stop offset="0.8226" stop-color="#24126A"/>
</linearGradient>
<linearGradient id="paint15_linear_38_250" x1="139.754" y1="142.273" x2="146.831" y2="143.746" gradientUnits="userSpaceOnUse">
<stop stop-color="#2B237C"/>
<stop offset="1" stop-color="#180D5B"/>
</linearGradient>
<linearGradient id="paint16_linear_38_250" x1="130.492" y1="147.658" x2="137.569" y2="149.131" gradientUnits="userSpaceOnUse">
<stop stop-color="#2B237C"/>
<stop offset="1" stop-color="#180D5B"/>
</linearGradient>
<linearGradient id="paint17_linear_38_250" x1="109.005" y1="152.763" x2="117.715" y2="154.576" gradientUnits="userSpaceOnUse">
<stop stop-color="#2B237C"/>
<stop offset="1" stop-color="#180D5B"/>
</linearGradient>
<linearGradient id="paint18_linear_38_250" x1="66.2773" y1="121.341" x2="66.9357" y2="132.39" gradientUnits="userSpaceOnUse">
<stop stop-color="#42E8E0"/>
<stop offset="0.0157138" stop-color="#40DDDA"/>
<stop offset="0.0920726" stop-color="#3AAEC0"/>
<stop offset="0.173" stop-color="#3484A9"/>
<stop offset="0.2573" stop-color="#2F6195"/>
<stop offset="0.3458" stop-color="#2B4486"/>
<stop offset="0.44" stop-color="#282E79"/>
<stop offset="0.5425" stop-color="#261E71"/>
<stop offset="0.6594" stop-color="#24156C"/>
<stop offset="0.8226" stop-color="#24126A"/>
</linearGradient>
<linearGradient id="paint19_linear_38_250" x1="72.2681" y1="121.261" x2="72.9075" y2="131.992" gradientUnits="userSpaceOnUse">
<stop stop-color="#2B237C"/>
<stop offset="1" stop-color="#180D5B"/>
</linearGradient>
<linearGradient id="paint20_linear_38_250" x1="94.6797" y1="116.26" x2="96.9338" y2="154.085" gradientUnits="userSpaceOnUse">
<stop stop-color="#42E8E0"/>
<stop offset="0.0157138" stop-color="#40DDDA"/>
<stop offset="0.0920726" stop-color="#3AAEC0"/>
<stop offset="0.173" stop-color="#3484A9"/>
<stop offset="0.2573" stop-color="#2F6195"/>
<stop offset="0.3458" stop-color="#2B4486"/>
<stop offset="0.44" stop-color="#282E79"/>
<stop offset="0.5425" stop-color="#261E71"/>
<stop offset="0.6594" stop-color="#24156C"/>
<stop offset="0.8226" stop-color="#24126A"/>
</linearGradient>
</defs>
</svg>
