<svg width="20" height="18" viewBox="0 0 20 18" fill="none" xmlns="http://www.w3.org/2000/svg">
<path d="M17.6545 2.25454C17.1984 1.79688 16.6565 1.43376 16.0598 1.18598C15.4631 0.938212 14.8233 0.810669 14.1772 0.810669C13.5311 0.810669 12.8914 0.938212 12.2947 1.18598C11.6979 1.43376 11.156 1.79688 10.6999 2.25454L9.99995 2.96363L9.29995 2.25454C8.84387 1.79688 8.30195 1.43376 7.70524 1.18598C7.10853 0.938212 6.46878 0.810669 5.82267 0.810669C5.17657 0.810669 4.53682 0.938212 3.94011 1.18598C3.3434 1.43376 2.80147 1.79688 2.3454 2.25454C0.418127 4.18181 0.299945 7.43636 2.72722 9.90909L9.99995 17.1818L17.2727 9.90909C19.6999 7.43636 19.5818 4.18181 17.6545 2.25454Z" stroke="white" stroke-width="1.5" stroke-linecap="round" stroke-linejoin="round"/>
<path d="M17.6545 2.25454C17.1984 1.79688 16.6565 1.43376 16.0598 1.18598C15.4631 0.938212 14.8233 0.810669 14.1772 0.810669C13.5311 0.810669 12.8914 0.938212 12.2947 1.18598C11.6979 1.43376 11.156 1.79688 10.6999 2.25454L9.99995 2.96363L9.29995 2.25454C8.84387 1.79688 8.30195 1.43376 7.70524 1.18598C7.10853 0.938212 6.46878 0.810669 5.82267 0.810669C5.17657 0.810669 4.53682 0.938212 3.94011 1.18598C3.3434 1.43376 2.80147 1.79688 2.3454 2.25454C0.418127 4.18181 0.299945 7.43636 2.72722 9.90909L9.99995 17.1818L17.2727 9.90909C19.6999 7.43636 19.5818 4.18181 17.6545 2.25454Z" stroke="url(#paint0_linear_18_102)" stroke-width="1.5" stroke-linecap="round" stroke-linejoin="round"/>
<defs>
<linearGradient id="paint0_linear_18_102" x1="0.423623" y1="23.0047" x2="18.6422" y2="17.0306" gradientUnits="userSpaceOnUse">
<stop stop-color="#0D748B"/>
<stop offset="1" stop-color="#1A0B73"/>
</linearGradient>
</defs>
</svg>
