<svg width="120" height="120" viewBox="0 0 120 120" fill="none" xmlns="http://www.w3.org/2000/svg">
<g filter="url(#filter0_d_42_1935)">
<circle cx="60" cy="56" r="40" fill="white"/>
</g>
<circle cx="60" cy="56" r="30" fill="#F0F5FB"/>
<path fill-rule="evenodd" clip-rule="evenodd" d="M49.5028 44.9903H49.6743C50.5026 44.9903 51.1765 44.3474 51.1765 43.5572L51.1762 39.4331C51.1759 38.6429 50.502 38 49.6737 38H49.5022C48.6739 38 48 38.6429 48 39.4331V43.5575C48.0006 44.3474 48.6744 44.9903 49.5028 44.9903ZM72.7454 43.3749V41.1455H74.4063C76.3876 41.1455 78 42.7509 78 44.7245V47.4368H42V44.7245C42 42.7512 43.6121 41.1455 45.594 41.1455H46.8306V43.3749C46.8306 43.4755 46.838 43.5741 46.8493 43.6719C46.9979 44.949 48.0891 45.9441 49.4106 45.9441H49.5787C50.9005 45.9441 51.9914 44.949 52.14 43.6719C52.1513 43.5741 52.1586 43.4755 52.1586 43.3749V41.1455L67.4179 41.1458V43.3752C67.4179 43.4758 67.4253 43.5744 67.4366 43.6722C67.5852 44.9493 68.6764 45.9444 69.9979 45.9444L70.1654 45.9441C71.4872 45.9441 72.5782 44.949 72.7267 43.6719C72.738 43.5741 72.7454 43.4755 72.7454 43.3749ZM42 49.1846H44.537H78V65.8376C78 66.7049 77.6681 67.5287 77.0663 68.1575L72.4727 72.9518C71.8347 73.6185 70.937 74.0001 70.0107 74.0001H45.594C43.6124 74.0001 42 72.4016 42 70.4361V49.1846ZM76.037 65.5399C76.166 65.4044 76.0689 65.1811 75.8808 65.1811L71.503 65.1811C70.2242 65.1811 69.1777 66.219 69.1777 67.4872V72.2072C69.1777 72.3994 69.4148 72.4931 69.5483 72.3531L70.6042 71.2445L75.3429 66.2689L76.037 65.5399ZM70.1447 44.9903H69.9732C69.145 44.9903 68.471 44.3474 68.4707 43.5575V39.4331C68.4707 38.6429 69.1447 38 69.9732 38H70.1441C70.9726 38 71.6466 38.6429 71.6469 39.4331L71.6472 43.5572C71.6472 44.3474 70.9732 44.9903 70.1447 44.9903Z" fill="white"/>
<path fill-rule="evenodd" clip-rule="evenodd" d="M49.5028 44.9903H49.6743C50.5026 44.9903 51.1765 44.3474 51.1765 43.5572L51.1762 39.4331C51.1759 38.6429 50.502 38 49.6737 38H49.5022C48.6739 38 48 38.6429 48 39.4331V43.5575C48.0006 44.3474 48.6744 44.9903 49.5028 44.9903ZM72.7454 43.3749V41.1455H74.4063C76.3876 41.1455 78 42.7509 78 44.7245V47.4368H42V44.7245C42 42.7512 43.6121 41.1455 45.594 41.1455H46.8306V43.3749C46.8306 43.4755 46.838 43.5741 46.8493 43.6719C46.9979 44.949 48.0891 45.9441 49.4106 45.9441H49.5787C50.9005 45.9441 51.9914 44.949 52.14 43.6719C52.1513 43.5741 52.1586 43.4755 52.1586 43.3749V41.1455L67.4179 41.1458V43.3752C67.4179 43.4758 67.4253 43.5744 67.4366 43.6722C67.5852 44.9493 68.6764 45.9444 69.9979 45.9444L70.1654 45.9441C71.4872 45.9441 72.5782 44.949 72.7267 43.6719C72.738 43.5741 72.7454 43.4755 72.7454 43.3749ZM42 49.1846H44.537H78V65.8376C78 66.7049 77.6681 67.5287 77.0663 68.1575L72.4727 72.9518C71.8347 73.6185 70.937 74.0001 70.0107 74.0001H45.594C43.6124 74.0001 42 72.4016 42 70.4361V49.1846ZM76.037 65.5399C76.166 65.4044 76.0689 65.1811 75.8808 65.1811L71.503 65.1811C70.2242 65.1811 69.1777 66.219 69.1777 67.4872V72.2072C69.1777 72.3994 69.4148 72.4931 69.5483 72.3531L70.6042 71.2445L75.3429 66.2689L76.037 65.5399ZM70.1447 44.9903H69.9732C69.145 44.9903 68.471 44.3474 68.4707 43.5575V39.4331C68.4707 38.6429 69.1447 38 69.9732 38H70.1441C70.9726 38 71.6466 38.6429 71.6469 39.4331L71.6472 43.5572C71.6472 44.3474 70.9732 44.9903 70.1447 44.9903Z" fill="url(#paint0_linear_42_1935)"/>
<defs>
<filter id="filter0_d_42_1935" x="0" y="0" width="120" height="120" filterUnits="userSpaceOnUse" color-interpolation-filters="sRGB">
<feFlood flood-opacity="0" result="BackgroundImageFix"/>
<feColorMatrix in="SourceAlpha" type="matrix" values="0 0 0 0 0 0 0 0 0 0 0 0 0 0 0 0 0 0 127 0" result="hardAlpha"/>
<feOffset dy="4"/>
<feGaussianBlur stdDeviation="10"/>
<feComposite in2="hardAlpha" operator="out"/>
<feColorMatrix type="matrix" values="0 0 0 0 0 0 0 0 0 0.027451 0 0 0 0 0.368627 0 0 0 0.1 0"/>
<feBlend mode="normal" in2="BackgroundImageFix" result="effect1_dropShadow_42_1935"/>
<feBlend mode="normal" in="SourceGraphic" in2="effect1_dropShadow_42_1935" result="shape"/>
</filter>
<linearGradient id="paint0_linear_42_1935" x1="41.0538" y1="86.8047" x2="77.7775" y2="75.9704" gradientUnits="userSpaceOnUse">
<stop stop-color="#0D748B"/>
<stop offset="1" stop-color="#1A0B73"/>
</linearGradient>
</defs>
</svg>
