<svg width="120" height="120" viewBox="0 0 120 120" fill="none" xmlns="http://www.w3.org/2000/svg">
<g filter="url(#filter0_d_42_1937)">
<circle cx="60" cy="56" r="40" fill="white"/>
</g>
<circle cx="60" cy="56" r="30" fill="#F0F5FB"/>
<path fill-rule="evenodd" clip-rule="evenodd" d="M76.3944 39.0441L77.35 40.016L77.3499 40.0161C78.6796 41.3685 77.7655 44.4955 76.4361 45.848L69.9131 51.9756L71.9074 66.3017C71.9906 66.8933 71.6999 67.7806 71.2843 68.2033L70.0378 69.4712C69.5807 69.8936 69.0408 69.8093 68.7498 69.2598L63.4731 58.5681L54.374 66.0057L55.5374 70.908C55.5788 71.4996 55.2467 72.3869 54.8311 72.8096L53.5845 74.0774C53.169 74.5423 52.5459 74.4577 52.2134 73.9507L50.3021 67.9498C49.9696 67.4427 49.2633 66.7244 48.7648 66.3862L42.4079 64.0198C41.9094 63.6817 41.8677 63.0479 42.2833 62.6252L43.5298 61.3573C43.9451 60.9349 44.7763 60.5968 45.3994 60.6389L50.4684 61.8643L57.6979 52.6939L46.9784 47.2001C46.4381 46.9044 46.355 46.3128 46.7706 45.8901L48.0171 44.6222C48.4323 44.1998 49.2636 43.9039 49.8867 43.9885L64.6779 46.0593L70.6607 39.9738C71.9904 38.6213 75.0648 37.6916 76.3944 39.0441ZM75.062 44.2928C75.2166 44.6465 75.2905 44.8156 75.4389 44.6647L75.4389 44.6648C76.353 43.735 76.3944 42.7631 75.5635 41.9601L74.4001 40.7769C73.5692 39.9317 72.6137 39.9317 71.6996 40.8615C71.5537 41.0098 71.696 41.0687 72.0105 41.1988C72.4125 41.3651 73.0959 41.6478 73.8185 42.3828C74.5545 43.1314 74.8703 43.8541 75.062 44.2928ZM57.2406 44.2419L60.4814 44.7068C60.7306 44.7489 60.9384 44.6222 61.0216 44.4108V44.3686C61.1877 43.8616 61.0631 43.2276 60.6477 42.8473L60.2321 42.4246C59.6505 41.8329 58.6949 41.8329 58.0716 42.4246L57.0328 43.8613C56.8668 44.0308 56.95 44.1997 57.2406 44.2419ZM73.1123 55.2717C72.6967 54.8489 72.1151 54.7222 71.6166 54.8914H71.5752C71.4091 54.976 71.2842 55.1449 71.2842 55.3563V55.483L71.6166 57.9763V58.0184L71.6998 58.7368C71.7412 59.0328 71.9076 59.1171 72.1154 58.9482L73.528 57.8917C74.1096 57.3001 74.1096 56.3281 73.528 55.6941L73.1123 55.2717Z" fill="white"/>
<path fill-rule="evenodd" clip-rule="evenodd" d="M76.3944 39.0441L77.35 40.016L77.3499 40.0161C78.6796 41.3685 77.7655 44.4955 76.4361 45.848L69.9131 51.9756L71.9074 66.3017C71.9906 66.8933 71.6999 67.7806 71.2843 68.2033L70.0378 69.4712C69.5807 69.8936 69.0408 69.8093 68.7498 69.2598L63.4731 58.5681L54.374 66.0057L55.5374 70.908C55.5788 71.4996 55.2467 72.3869 54.8311 72.8096L53.5845 74.0774C53.169 74.5423 52.5459 74.4577 52.2134 73.9507L50.3021 67.9498C49.9696 67.4427 49.2633 66.7244 48.7648 66.3862L42.4079 64.0198C41.9094 63.6817 41.8677 63.0479 42.2833 62.6252L43.5298 61.3573C43.9451 60.9349 44.7763 60.5968 45.3994 60.6389L50.4684 61.8643L57.6979 52.6939L46.9784 47.2001C46.4381 46.9044 46.355 46.3128 46.7706 45.8901L48.0171 44.6222C48.4323 44.1998 49.2636 43.9039 49.8867 43.9885L64.6779 46.0593L70.6607 39.9738C71.9904 38.6213 75.0648 37.6916 76.3944 39.0441ZM75.062 44.2928C75.2166 44.6465 75.2905 44.8156 75.4389 44.6647L75.4389 44.6648C76.353 43.735 76.3944 42.7631 75.5635 41.9601L74.4001 40.7769C73.5692 39.9317 72.6137 39.9317 71.6996 40.8615C71.5537 41.0098 71.696 41.0687 72.0105 41.1988C72.4125 41.3651 73.0959 41.6478 73.8185 42.3828C74.5545 43.1314 74.8703 43.8541 75.062 44.2928ZM57.2406 44.2419L60.4814 44.7068C60.7306 44.7489 60.9384 44.6222 61.0216 44.4108V44.3686C61.1877 43.8616 61.0631 43.2276 60.6477 42.8473L60.2321 42.4246C59.6505 41.8329 58.6949 41.8329 58.0716 42.4246L57.0328 43.8613C56.8668 44.0308 56.95 44.1997 57.2406 44.2419ZM73.1123 55.2717C72.6967 54.8489 72.1151 54.7222 71.6166 54.8914H71.5752C71.4091 54.976 71.2842 55.1449 71.2842 55.3563V55.483L71.6166 57.9763V58.0184L71.6998 58.7368C71.7412 59.0328 71.9076 59.1171 72.1154 58.9482L73.528 57.8917C74.1096 57.3001 74.1096 56.3281 73.528 55.6941L73.1123 55.2717Z" fill="url(#paint0_linear_42_1937)"/>
<defs>
<filter id="filter0_d_42_1937" x="0" y="0" width="120" height="120" filterUnits="userSpaceOnUse" color-interpolation-filters="sRGB">
<feFlood flood-opacity="0" result="BackgroundImageFix"/>
<feColorMatrix in="SourceAlpha" type="matrix" values="0 0 0 0 0 0 0 0 0 0 0 0 0 0 0 0 0 0 127 0" result="hardAlpha"/>
<feOffset dy="4"/>
<feGaussianBlur stdDeviation="10"/>
<feComposite in2="hardAlpha" operator="out"/>
<feColorMatrix type="matrix" values="0 0 0 0 0 0 0 0 0 0.027451 0 0 0 0 0.368627 0 0 0 0.1 0"/>
<feBlend mode="normal" in2="BackgroundImageFix" result="effect1_dropShadow_42_1937"/>
<feBlend mode="normal" in="SourceGraphic" in2="effect1_dropShadow_42_1937" result="shape"/>
</filter>
<linearGradient id="paint0_linear_42_1937" x1="41.0538" y1="87.1874" x2="77.7775" y2="76.353" gradientUnits="userSpaceOnUse">
<stop stop-color="#0D748B"/>
<stop offset="1" stop-color="#1A0B73"/>
</linearGradient>
</defs>
</svg>
