<svg width="120" height="120" viewBox="0 0 120 120" fill="none" xmlns="http://www.w3.org/2000/svg">
<g filter="url(#filter0_d_42_1939)">
<circle cx="60" cy="56" r="40" fill="white"/>
</g>
<circle cx="60" cy="56" r="30" fill="#F0F5FB"/>
<path fill-rule="evenodd" clip-rule="evenodd" d="M65.1521 39.7184C65.1521 38.7709 64.3826 38 63.4366 38H57.0559C56.1099 38 55.3403 38.7708 55.3403 39.7184V43.358H65.1522L65.1521 39.7184ZM64.3975 66.1231V66.3299C64.3975 67.6463 65.4268 68.6774 66.7411 68.6774C67.3945 68.6774 67.999 68.4251 68.4432 67.9676C68.8751 67.5224 69.103 66.9311 69.085 66.3027C69.0847 66.2944 69.0847 66.2865 69.0847 66.2783V66.2781V66.1228C69.0847 64.8064 68.0553 63.7754 66.7411 63.7754C65.4268 63.7757 64.3975 64.8067 64.3975 66.1231L64.3975 66.1231ZM70.9885 73.9999H49.505C48.086 73.9999 46.9316 72.8438 46.9316 71.4224V44.9896C46.9316 43.5684 48.0859 42.4121 49.505 42.4121H53.6254V44.2173C53.6254 44.6917 54.0096 45.0765 54.4832 45.0765H66.0102C66.4839 45.0765 66.8681 44.6917 66.8681 44.2173V42.4121H70.9885C72.4074 42.4121 73.5618 43.5683 73.5618 44.9896V71.4224C73.5618 72.8437 72.4075 73.9999 70.9885 73.9999ZM70.8002 66.2669V66.1233V66.1232C70.8002 65.0394 70.3845 64.0213 69.6294 63.2563C68.866 62.4833 67.8403 62.0574 66.7411 62.0574C65.6587 62.0574 64.6423 62.4738 63.8788 63.2302C63.1071 63.9946 62.6819 65.0222 62.6819 66.1232V66.3301C62.6819 67.4142 63.0977 68.4323 63.8528 69.197C64.6162 69.97 65.6419 70.3959 66.7411 70.3959C67.8623 70.3959 68.9036 69.959 69.6735 69.1654C70.428 68.3875 70.8281 67.3586 70.8002 66.2669ZM68.2279 49.1312H52.2666C51.7927 49.1312 51.4088 49.516 51.4088 49.9904C51.4088 50.4648 51.793 50.8496 52.2666 50.8496H68.2279C68.7015 50.8496 69.0857 50.4648 69.0857 49.9904C69.0857 49.516 68.7015 49.1312 68.2279 49.1312ZM68.2279 55.3195H52.2666C51.7927 55.3195 51.4088 55.704 51.4088 56.1787C51.4088 56.6531 51.793 57.0379 52.2666 57.0379H68.2279C68.7015 57.0379 69.0857 56.6531 69.0857 56.1787C69.0857 55.7043 68.7015 55.3195 68.2279 55.3195ZM58.4448 61.5077H52.2666C51.7927 61.5077 51.4088 61.8923 51.4088 62.367C51.4088 62.8414 51.793 63.2262 52.2666 63.2262H58.4448C58.9185 63.2262 59.3026 62.8414 59.3026 62.367C59.3026 61.8925 58.9184 61.5077 58.4448 61.5077Z" fill="white"/>
<path fill-rule="evenodd" clip-rule="evenodd" d="M65.1521 39.7184C65.1521 38.7709 64.3826 38 63.4366 38H57.0559C56.1099 38 55.3403 38.7708 55.3403 39.7184V43.358H65.1522L65.1521 39.7184ZM64.3975 66.1231V66.3299C64.3975 67.6463 65.4268 68.6774 66.7411 68.6774C67.3945 68.6774 67.999 68.4251 68.4432 67.9676C68.8751 67.5224 69.103 66.9311 69.085 66.3027C69.0847 66.2944 69.0847 66.2865 69.0847 66.2783V66.2781V66.1228C69.0847 64.8064 68.0553 63.7754 66.7411 63.7754C65.4268 63.7757 64.3975 64.8067 64.3975 66.1231L64.3975 66.1231ZM70.9885 73.9999H49.505C48.086 73.9999 46.9316 72.8438 46.9316 71.4224V44.9896C46.9316 43.5684 48.0859 42.4121 49.505 42.4121H53.6254V44.2173C53.6254 44.6917 54.0096 45.0765 54.4832 45.0765H66.0102C66.4839 45.0765 66.8681 44.6917 66.8681 44.2173V42.4121H70.9885C72.4074 42.4121 73.5618 43.5683 73.5618 44.9896V71.4224C73.5618 72.8437 72.4075 73.9999 70.9885 73.9999ZM70.8002 66.2669V66.1233V66.1232C70.8002 65.0394 70.3845 64.0213 69.6294 63.2563C68.866 62.4833 67.8403 62.0574 66.7411 62.0574C65.6587 62.0574 64.6423 62.4738 63.8788 63.2302C63.1071 63.9946 62.6819 65.0222 62.6819 66.1232V66.3301C62.6819 67.4142 63.0977 68.4323 63.8528 69.197C64.6162 69.97 65.6419 70.3959 66.7411 70.3959C67.8623 70.3959 68.9036 69.959 69.6735 69.1654C70.428 68.3875 70.8281 67.3586 70.8002 66.2669ZM68.2279 49.1312H52.2666C51.7927 49.1312 51.4088 49.516 51.4088 49.9904C51.4088 50.4648 51.793 50.8496 52.2666 50.8496H68.2279C68.7015 50.8496 69.0857 50.4648 69.0857 49.9904C69.0857 49.516 68.7015 49.1312 68.2279 49.1312ZM68.2279 55.3195H52.2666C51.7927 55.3195 51.4088 55.704 51.4088 56.1787C51.4088 56.6531 51.793 57.0379 52.2666 57.0379H68.2279C68.7015 57.0379 69.0857 56.6531 69.0857 56.1787C69.0857 55.7043 68.7015 55.3195 68.2279 55.3195ZM58.4448 61.5077H52.2666C51.7927 61.5077 51.4088 61.8923 51.4088 62.367C51.4088 62.8414 51.793 63.2262 52.2666 63.2262H58.4448C58.9185 63.2262 59.3026 62.8414 59.3026 62.367C59.3026 61.8925 58.9184 61.5077 58.4448 61.5077Z" fill="url(#paint0_linear_42_1939)"/>
<defs>
<filter id="filter0_d_42_1939" x="0" y="0" width="120" height="120" filterUnits="userSpaceOnUse" color-interpolation-filters="sRGB">
<feFlood flood-opacity="0" result="BackgroundImageFix"/>
<feColorMatrix in="SourceAlpha" type="matrix" values="0 0 0 0 0 0 0 0 0 0 0 0 0 0 0 0 0 0 127 0" result="hardAlpha"/>
<feOffset dy="4"/>
<feGaussianBlur stdDeviation="10"/>
<feComposite in2="hardAlpha" operator="out"/>
<feColorMatrix type="matrix" values="0 0 0 0 0 0 0 0 0 0.027451 0 0 0 0 0.368627 0 0 0 0.1 0"/>
<feBlend mode="normal" in2="BackgroundImageFix" result="effect1_dropShadow_42_1939"/>
<feBlend mode="normal" in="SourceGraphic" in2="effect1_dropShadow_42_1939" result="shape"/>
</filter>
<linearGradient id="paint0_linear_42_1939" x1="46.2317" y1="86.8045" x2="74.4191" y2="80.6529" gradientUnits="userSpaceOnUse">
<stop stop-color="#0D748B"/>
<stop offset="1" stop-color="#1A0B73"/>
</linearGradient>
</defs>
</svg>
