<svg width="120" height="120" viewBox="0 0 120 120" fill="none" xmlns="http://www.w3.org/2000/svg">
<g filter="url(#filter0_d_42_1936)">
<circle cx="60" cy="56" r="40" fill="white"/>
</g>
<circle cx="60" cy="56" r="30" fill="#F0F5FB"/>
<path fill-rule="evenodd" clip-rule="evenodd" d="M71.7472 37.0475H71.2881L71.2565 37H70.7024C70.4356 37.0376 70.1712 37.0903 69.9107 37.1582C68.9855 37.4542 68.2128 38.0996 67.758 38.9564C67.3032 39.8133 67.2026 40.8138 67.4774 41.7438C67.7519 42.674 68.3804 43.4599 69.2281 43.9336C70.0761 44.4076 71.076 44.5316 72.014 44.2794C72.9523 44.0271 73.7543 43.4186 74.249 42.5839C74.7433 41.7491 74.8912 40.7545 74.6605 39.8125C74.5003 39.1173 74.139 38.4843 73.6208 37.9926C73.1028 37.5008 72.4513 37.1722 71.7472 37.0475ZM49.6449 37.0474H49.1858L49.1542 37.0317H48.6002C48.3336 37.0706 48.0694 37.1234 47.8085 37.1896C46.8832 37.4856 46.1106 38.131 45.6558 38.9879C45.201 39.8447 45.1004 40.8452 45.3752 41.7755C45.6497 42.7055 46.2781 43.4916 47.1259 43.9653C47.9738 44.439 48.9737 44.563 49.9117 44.3108C50.85 44.0585 51.6521 43.45 52.1467 42.6154C52.6411 41.7808 52.7889 40.7862 52.5582 39.844C52.4037 39.143 52.0447 38.5031 51.5262 38.0055C51.0077 37.5077 50.353 37.1743 49.6449 37.0474ZM72.9507 53.3061L71.3676 53.401L71.3673 53.4007C71.5593 54.2562 71.6495 55.1314 71.6365 56.0079C71.6365 58.1813 71.0272 60.3112 69.877 62.1569C68.7272 64.0029 67.0824 65.4905 65.1292 66.4518C65.3838 66.567 65.6275 66.7046 65.8577 66.8627C66.1368 67.0302 66.4015 67.2204 66.6492 67.4313C68.6532 66.2695 70.3163 64.6027 71.4722 62.598C72.628 60.5931 73.2362 58.3206 73.2357 56.0078C73.2351 55.0998 73.1396 54.1943 72.9508 53.3061L72.9507 53.3061ZM48.3465 56.0079C48.3441 55.0813 48.4556 54.158 48.6791 53.2587H47.096H47.0957C46.8868 54.1606 46.7752 55.0821 46.7633 56.0079C46.7606 58.3842 47.4005 60.7174 48.6154 62.7612C49.8303 64.8051 51.5755 66.4841 53.6662 67.621C53.9731 67.3526 54.3016 67.1093 54.648 66.8942L55.1546 66.594C53.122 65.6667 51.3997 64.1758 50.1924 62.2989C48.9854 60.4219 48.3445 58.2382 48.3464 56.0078L48.3465 56.0079ZM59.9995 42.8302C57.8482 42.8477 55.7337 43.3903 53.8405 44.4104C54.0938 44.5368 54.3314 44.6791 54.5847 44.837C54.869 45.0174 55.1438 45.2127 55.408 45.4215C56.8549 44.7824 58.4171 44.4438 59.9995 44.426C61.6348 44.4112 63.254 44.7453 64.7493 45.4058C64.9601 45.2381 65.1823 45.0849 65.4144 44.9474C65.7046 44.7426 66.0117 44.5627 66.3328 44.4104C64.3898 43.3567 62.2107 42.8129 59.9995 42.8302L59.9995 42.8302ZM56.8328 50.0667C56.8352 50.387 56.7293 50.6986 56.532 50.9514C56.3207 51.2076 56.0629 51.4219 55.7721 51.5833C55.1368 51.9362 54.4544 52.1969 53.7456 52.3577C52.1537 52.6646 50.5376 52.8283 48.9164 52.8474H48.7582C48.3148 52.8474 47.7448 52.8474 47.175 52.7525C46.1637 52.695 45.1583 52.5631 44.1666 52.3578C43.4346 52.207 42.73 51.9458 42.0766 51.5833C41.7785 51.4264 41.5148 51.2116 41.3009 50.9514C41.1036 50.6986 40.9977 50.387 41 50.0667C41.0072 49.3145 41.1519 48.5703 41.4275 47.8705C41.9208 46.7245 42.7627 45.7628 43.8342 45.1211C44.2062 44.8869 44.598 44.6858 45.0059 44.5207C45.2137 44.4113 45.4628 44.4113 45.6707 44.5207C46.0633 44.7676 46.4831 44.9693 46.9214 45.1211C48.2362 45.5644 49.66 45.5644 50.9748 45.1211C51.4168 44.9661 51.8414 44.7647 52.2412 44.5207C52.4494 44.4113 52.6981 44.4113 52.9063 44.5207L53.2546 44.6786C53.5337 44.8071 53.8037 44.955 54.062 45.1211C54.3201 45.2729 54.5638 45.4475 54.7903 45.6425C55.5236 46.2376 56.0998 47.0023 56.4688 47.8705C56.7226 48.5742 56.846 49.3185 56.8328 50.0667L56.8328 50.0667ZM78.999 50.1617C79.0014 50.4821 78.8955 50.7939 78.6982 51.0467C78.4842 51.3069 78.2206 51.5218 77.9224 51.6786C77.2969 52.0405 76.6183 52.3018 75.9115 52.4528C74.9053 52.6724 73.8839 52.815 72.8559 52.8794C72.5129 52.8794 72.1845 52.9086 71.8926 52.9347L71.8925 52.9347C71.6589 52.9555 71.4486 52.9742 71.2727 52.9742H71.0826C69.4499 52.948 67.8228 52.7734 66.2219 52.4528C65.5109 52.2991 64.8274 52.0381 64.1953 51.6786C63.9046 51.5173 63.6468 51.3029 63.4355 51.0467C63.2435 50.7929 63.1482 50.4794 63.1663 50.1617C63.1732 49.4098 63.3181 48.6655 63.5937 47.9655C63.971 47.0718 64.5705 46.2886 65.3354 45.6904C65.5438 45.5147 65.766 45.3563 66.0002 45.2164C66.2872 45.0428 66.5832 44.8847 66.887 44.7424L67.1562 44.616C67.3641 44.5063 67.6128 44.5063 67.821 44.616C68.2208 44.86 68.6454 45.0611 69.0877 45.2164C70.4022 45.6594 71.8263 45.6594 73.1408 45.2164C73.5781 45.0611 73.9973 44.86 74.3915 44.616C74.5997 44.5063 74.8485 44.5063 75.0566 44.616C75.4642 44.7811 75.8563 44.9819 76.2282 45.2164C77.2995 45.8581 78.1417 46.8199 78.6347 47.9655C78.8888 48.6695 79.0122 49.4138 78.999 50.1617L78.999 50.1617ZM68.1847 72.1875C68.1871 72.5078 68.0812 72.8197 67.8839 73.0724C67.6699 73.3324 67.4063 73.5472 67.1081 73.7044C66.4794 74.0594 65.8019 74.3204 65.0972 74.4785C63.496 74.7978 61.8693 74.9724 60.2367 75C58.6039 74.9737 56.9769 74.7991 55.376 74.4785C54.6671 74.3177 53.9847 74.057 53.3494 73.7044C53.0587 73.543 52.8009 73.3287 52.5893 73.0724C52.3862 72.8229 52.2795 72.5089 52.2885 72.1875C52.2943 71.4406 52.4393 70.7011 52.7159 70.0072C53.0444 69.2067 53.5538 68.493 54.2043 67.9214C54.4939 67.6737 54.8009 67.4466 55.1227 67.2421L55.7718 66.8786L56.2784 66.6414V66.6417C56.4865 66.532 56.7353 66.532 56.9435 66.6417C57.3393 66.8825 57.7583 67.0836 58.1942 67.2421C58.8537 67.4572 59.5427 67.5693 60.2367 67.5738C60.9254 67.5704 61.6093 67.4585 62.2632 67.2421C62.6989 67.0836 63.1178 66.8825 63.514 66.6417C63.7218 66.532 63.9709 66.532 64.1788 66.6417L64.4796 66.7681C64.7783 66.9104 65.069 67.0685 65.3504 67.2421C65.606 67.4032 65.8495 67.5825 66.0786 67.7791C66.8192 68.3671 67.3969 69.1339 67.7571 70.0072C68.0338 70.701 68.1787 71.4406 68.1846 72.1875H68.1847ZM60.9337 59.168H60.4746L60.5537 59.168H59.9996C59.6967 59.1852 59.3953 59.2223 59.0972 59.2784C58.1719 59.5744 57.3993 60.2198 56.9445 61.0767C56.4897 61.9338 56.3891 62.9343 56.6639 63.8643C56.9384 64.7943 57.5668 65.5804 58.4146 66.0541C59.2626 66.5279 60.2624 66.6519 61.2005 66.3996C62.1387 66.1474 62.9408 65.5388 63.4354 64.7042C63.9298 63.8696 64.0777 62.875 63.847 61.9331C63.6868 61.2376 63.3255 60.6046 62.8073 60.1128C62.2893 59.6211 61.6377 59.2925 60.9337 59.168Z" fill="white"/>
<path fill-rule="evenodd" clip-rule="evenodd" d="M71.7472 37.0475H71.2881L71.2565 37H70.7024C70.4356 37.0376 70.1712 37.0903 69.9107 37.1582C68.9855 37.4542 68.2128 38.0996 67.758 38.9564C67.3032 39.8133 67.2026 40.8138 67.4774 41.7438C67.7519 42.674 68.3804 43.4599 69.2281 43.9336C70.0761 44.4076 71.076 44.5316 72.014 44.2794C72.9523 44.0271 73.7543 43.4186 74.249 42.5839C74.7433 41.7491 74.8912 40.7545 74.6605 39.8125C74.5003 39.1173 74.139 38.4843 73.6208 37.9926C73.1028 37.5008 72.4513 37.1722 71.7472 37.0475ZM49.6449 37.0474H49.1858L49.1542 37.0317H48.6002C48.3336 37.0706 48.0694 37.1234 47.8085 37.1896C46.8832 37.4856 46.1106 38.131 45.6558 38.9879C45.201 39.8447 45.1004 40.8452 45.3752 41.7755C45.6497 42.7055 46.2781 43.4916 47.1259 43.9653C47.9738 44.439 48.9737 44.563 49.9117 44.3108C50.85 44.0585 51.6521 43.45 52.1467 42.6154C52.6411 41.7808 52.7889 40.7862 52.5582 39.844C52.4037 39.143 52.0447 38.5031 51.5262 38.0055C51.0077 37.5077 50.353 37.1743 49.6449 37.0474ZM72.9507 53.3061L71.3676 53.401L71.3673 53.4007C71.5593 54.2562 71.6495 55.1314 71.6365 56.0079C71.6365 58.1813 71.0272 60.3112 69.877 62.1569C68.7272 64.0029 67.0824 65.4905 65.1292 66.4518C65.3838 66.567 65.6275 66.7046 65.8577 66.8627C66.1368 67.0302 66.4015 67.2204 66.6492 67.4313C68.6532 66.2695 70.3163 64.6027 71.4722 62.598C72.628 60.5931 73.2362 58.3206 73.2357 56.0078C73.2351 55.0998 73.1396 54.1943 72.9508 53.3061L72.9507 53.3061ZM48.3465 56.0079C48.3441 55.0813 48.4556 54.158 48.6791 53.2587H47.096H47.0957C46.8868 54.1606 46.7752 55.0821 46.7633 56.0079C46.7606 58.3842 47.4005 60.7174 48.6154 62.7612C49.8303 64.8051 51.5755 66.4841 53.6662 67.621C53.9731 67.3526 54.3016 67.1093 54.648 66.8942L55.1546 66.594C53.122 65.6667 51.3997 64.1758 50.1924 62.2989C48.9854 60.4219 48.3445 58.2382 48.3464 56.0078L48.3465 56.0079ZM59.9995 42.8302C57.8482 42.8477 55.7337 43.3903 53.8405 44.4104C54.0938 44.5368 54.3314 44.6791 54.5847 44.837C54.869 45.0174 55.1438 45.2127 55.408 45.4215C56.8549 44.7824 58.4171 44.4438 59.9995 44.426C61.6348 44.4112 63.254 44.7453 64.7493 45.4058C64.9601 45.2381 65.1823 45.0849 65.4144 44.9474C65.7046 44.7426 66.0117 44.5627 66.3328 44.4104C64.3898 43.3567 62.2107 42.8129 59.9995 42.8302L59.9995 42.8302ZM56.8328 50.0667C56.8352 50.387 56.7293 50.6986 56.532 50.9514C56.3207 51.2076 56.0629 51.4219 55.7721 51.5833C55.1368 51.9362 54.4544 52.1969 53.7456 52.3577C52.1537 52.6646 50.5376 52.8283 48.9164 52.8474H48.7582C48.3148 52.8474 47.7448 52.8474 47.175 52.7525C46.1637 52.695 45.1583 52.5631 44.1666 52.3578C43.4346 52.207 42.73 51.9458 42.0766 51.5833C41.7785 51.4264 41.5148 51.2116 41.3009 50.9514C41.1036 50.6986 40.9977 50.387 41 50.0667C41.0072 49.3145 41.1519 48.5703 41.4275 47.8705C41.9208 46.7245 42.7627 45.7628 43.8342 45.1211C44.2062 44.8869 44.598 44.6858 45.0059 44.5207C45.2137 44.4113 45.4628 44.4113 45.6707 44.5207C46.0633 44.7676 46.4831 44.9693 46.9214 45.1211C48.2362 45.5644 49.66 45.5644 50.9748 45.1211C51.4168 44.9661 51.8414 44.7647 52.2412 44.5207C52.4494 44.4113 52.6981 44.4113 52.9063 44.5207L53.2546 44.6786C53.5337 44.8071 53.8037 44.955 54.062 45.1211C54.3201 45.2729 54.5638 45.4475 54.7903 45.6425C55.5236 46.2376 56.0998 47.0023 56.4688 47.8705C56.7226 48.5742 56.846 49.3185 56.8328 50.0667L56.8328 50.0667ZM78.999 50.1617C79.0014 50.4821 78.8955 50.7939 78.6982 51.0467C78.4842 51.3069 78.2206 51.5218 77.9224 51.6786C77.2969 52.0405 76.6183 52.3018 75.9115 52.4528C74.9053 52.6724 73.8839 52.815 72.8559 52.8794C72.5129 52.8794 72.1845 52.9086 71.8926 52.9347L71.8925 52.9347C71.6589 52.9555 71.4486 52.9742 71.2727 52.9742H71.0826C69.4499 52.948 67.8228 52.7734 66.2219 52.4528C65.5109 52.2991 64.8274 52.0381 64.1953 51.6786C63.9046 51.5173 63.6468 51.3029 63.4355 51.0467C63.2435 50.7929 63.1482 50.4794 63.1663 50.1617C63.1732 49.4098 63.3181 48.6655 63.5937 47.9655C63.971 47.0718 64.5705 46.2886 65.3354 45.6904C65.5438 45.5147 65.766 45.3563 66.0002 45.2164C66.2872 45.0428 66.5832 44.8847 66.887 44.7424L67.1562 44.616C67.3641 44.5063 67.6128 44.5063 67.821 44.616C68.2208 44.86 68.6454 45.0611 69.0877 45.2164C70.4022 45.6594 71.8263 45.6594 73.1408 45.2164C73.5781 45.0611 73.9973 44.86 74.3915 44.616C74.5997 44.5063 74.8485 44.5063 75.0566 44.616C75.4642 44.7811 75.8563 44.9819 76.2282 45.2164C77.2995 45.8581 78.1417 46.8199 78.6347 47.9655C78.8888 48.6695 79.0122 49.4138 78.999 50.1617L78.999 50.1617ZM68.1847 72.1875C68.1871 72.5078 68.0812 72.8197 67.8839 73.0724C67.6699 73.3324 67.4063 73.5472 67.1081 73.7044C66.4794 74.0594 65.8019 74.3204 65.0972 74.4785C63.496 74.7978 61.8693 74.9724 60.2367 75C58.6039 74.9737 56.9769 74.7991 55.376 74.4785C54.6671 74.3177 53.9847 74.057 53.3494 73.7044C53.0587 73.543 52.8009 73.3287 52.5893 73.0724C52.3862 72.8229 52.2795 72.5089 52.2885 72.1875C52.2943 71.4406 52.4393 70.7011 52.7159 70.0072C53.0444 69.2067 53.5538 68.493 54.2043 67.9214C54.4939 67.6737 54.8009 67.4466 55.1227 67.2421L55.7718 66.8786L56.2784 66.6414V66.6417C56.4865 66.532 56.7353 66.532 56.9435 66.6417C57.3393 66.8825 57.7583 67.0836 58.1942 67.2421C58.8537 67.4572 59.5427 67.5693 60.2367 67.5738C60.9254 67.5704 61.6093 67.4585 62.2632 67.2421C62.6989 67.0836 63.1178 66.8825 63.514 66.6417C63.7218 66.532 63.9709 66.532 64.1788 66.6417L64.4796 66.7681C64.7783 66.9104 65.069 67.0685 65.3504 67.2421C65.606 67.4032 65.8495 67.5825 66.0786 67.7791C66.8192 68.3671 67.3969 69.1339 67.7571 70.0072C68.0338 70.701 68.1787 71.4406 68.1846 72.1875H68.1847ZM60.9337 59.168H60.4746L60.5537 59.168H59.9996C59.6967 59.1852 59.3953 59.2223 59.0972 59.2784C58.1719 59.5744 57.3993 60.2198 56.9445 61.0767C56.4897 61.9338 56.3891 62.9343 56.6639 63.8643C56.9384 64.7943 57.5668 65.5804 58.4146 66.0541C59.2626 66.5279 60.2624 66.6519 61.2005 66.3996C62.1387 66.1474 62.9408 65.5388 63.4354 64.7042C63.9298 63.8696 64.0777 62.875 63.847 61.9331C63.6868 61.2376 63.3255 60.6046 62.8073 60.1128C62.2893 59.6211 61.6377 59.2925 60.9337 59.168Z" fill="url(#paint0_linear_42_1936)"/>
<defs>
<filter id="filter0_d_42_1936" x="0" y="0" width="120" height="120" filterUnits="userSpaceOnUse" color-interpolation-filters="sRGB">
<feFlood flood-opacity="0" result="BackgroundImageFix"/>
<feColorMatrix in="SourceAlpha" type="matrix" values="0 0 0 0 0 0 0 0 0 0 0 0 0 0 0 0 0 0 127 0" result="hardAlpha"/>
<feOffset dy="4"/>
<feGaussianBlur stdDeviation="10"/>
<feComposite in2="hardAlpha" operator="out"/>
<feColorMatrix type="matrix" values="0 0 0 0 0 0 0 0 0 0.027451 0 0 0 0 0.368627 0 0 0 0.1 0"/>
<feBlend mode="normal" in2="BackgroundImageFix" result="effect1_dropShadow_42_1936"/>
<feBlend mode="normal" in="SourceGraphic" in2="effect1_dropShadow_42_1936" result="shape"/>
</filter>
<linearGradient id="paint0_linear_42_1936" x1="40.0013" y1="88.5159" x2="78.7651" y2="77.0796" gradientUnits="userSpaceOnUse">
<stop stop-color="#0D748B"/>
<stop offset="1" stop-color="#1A0B73"/>
</linearGradient>
</defs>
</svg>
