<svg width="120" height="120" viewBox="0 0 120 120" fill="none" xmlns="http://www.w3.org/2000/svg">
<g filter="url(#filter0_d_42_1940)">
<circle cx="60" cy="56" r="40" fill="white"/>
</g>
<circle cx="60" cy="56" r="30" fill="#F0F5FB"/>
<path fill-rule="evenodd" clip-rule="evenodd" d="M42 47.8764C42 45.5922 43.8667 43.7144 46.1368 43.7144H63.8366C66.107 43.7144 67.9734 45.5925 67.9734 47.8764V64.1237C67.9734 66.4079 66.1067 68.2858 63.8366 68.2858H46.1368C43.8667 68.2858 42 66.4077 42 64.1237V47.8764ZM47.651 49.1118C47.4271 48.8865 47.1236 48.7593 46.807 48.7582L46.8071 48.7582C46.4889 48.7569 46.1832 48.883 45.9572 49.1086C45.7314 49.3339 45.6039 49.6406 45.6025 49.9608V55.995C45.6012 56.317 45.7279 56.6259 45.9539 56.8536C46.18 57.0811 46.4872 57.2085 46.8071 57.2072C47.1255 57.2058 47.4301 57.0776 47.6543 56.8501C47.8785 56.6229 48.0038 56.3154 48.0025 55.995V49.9607C48.0011 49.6421 47.875 49.3371 47.651 49.1118ZM74.3249 47.7601C74.5788 47.6235 74.8647 47.5483 75.1475 47.5267L75.1475 47.5269C75.4304 47.5054 75.7092 47.5361 75.9538 47.6164C76.4426 47.7767 76.8115 48.0683 77.0975 48.3923C77.6697 49.0399 78 49.833 78 50.7361L77.9997 61.262C77.9997 62.1438 77.6756 62.9377 77.1067 63.5705C76.5377 64.2033 75.4799 64.6919 74.4653 64.3016L70.3732 62.7289V49.8918L74.3249 47.7601Z" fill="white"/>
<path fill-rule="evenodd" clip-rule="evenodd" d="M42 47.8764C42 45.5922 43.8667 43.7144 46.1368 43.7144H63.8366C66.107 43.7144 67.9734 45.5925 67.9734 47.8764V64.1237C67.9734 66.4079 66.1067 68.2858 63.8366 68.2858H46.1368C43.8667 68.2858 42 66.4077 42 64.1237V47.8764ZM47.651 49.1118C47.4271 48.8865 47.1236 48.7593 46.807 48.7582L46.8071 48.7582C46.4889 48.7569 46.1832 48.883 45.9572 49.1086C45.7314 49.3339 45.6039 49.6406 45.6025 49.9608V55.995C45.6012 56.317 45.7279 56.6259 45.9539 56.8536C46.18 57.0811 46.4872 57.2085 46.8071 57.2072C47.1255 57.2058 47.4301 57.0776 47.6543 56.8501C47.8785 56.6229 48.0038 56.3154 48.0025 55.995V49.9607C48.0011 49.6421 47.875 49.3371 47.651 49.1118ZM74.3249 47.7601C74.5788 47.6235 74.8647 47.5483 75.1475 47.5267L75.1475 47.5269C75.4304 47.5054 75.7092 47.5361 75.9538 47.6164C76.4426 47.7767 76.8115 48.0683 77.0975 48.3923C77.6697 49.0399 78 49.833 78 50.7361L77.9997 61.262C77.9997 62.1438 77.6756 62.9377 77.1067 63.5705C76.5377 64.2033 75.4799 64.6919 74.4653 64.3016L70.3732 62.7289V49.8918L74.3249 47.7601Z" fill="url(#paint0_linear_42_1940)"/>
<defs>
<filter id="filter0_d_42_1940" x="0" y="0" width="120" height="120" filterUnits="userSpaceOnUse" color-interpolation-filters="sRGB">
<feFlood flood-opacity="0" result="BackgroundImageFix"/>
<feColorMatrix in="SourceAlpha" type="matrix" values="0 0 0 0 0 0 0 0 0 0 0 0 0 0 0 0 0 0 127 0" result="hardAlpha"/>
<feOffset dy="4"/>
<feGaussianBlur stdDeviation="10"/>
<feComposite in2="hardAlpha" operator="out"/>
<feColorMatrix type="matrix" values="0 0 0 0 0 0 0 0 0 0.027451 0 0 0 0 0.368627 0 0 0 0.1 0"/>
<feBlend mode="normal" in2="BackgroundImageFix" result="effect1_dropShadow_42_1940"/>
<feBlend mode="normal" in="SourceGraphic" in2="effect1_dropShadow_42_1940" result="shape"/>
</filter>
<linearGradient id="paint0_linear_42_1940" x1="41.0538" y1="77.0254" x2="74.6895" y2="62.4866" gradientUnits="userSpaceOnUse">
<stop stop-color="#0D748B"/>
<stop offset="1" stop-color="#1A0B73"/>
</linearGradient>
</defs>
</svg>
